<svg xmlns="http://www.w3.org/2000/svg" xmlns:xlink="http://www.w3.org/1999/xlink" width="50" zoomAndPan="magnify" viewBox="0 0 37.5 37.499999" height="50" preserveAspectRatio="xMidYMid meet" version="1.0"><defs><clipPath id="560fb9aef9"><path d="M 14 2.011719 L 15 2.011719 L 15 3 L 14 3 Z M 14 2.011719 " clip-rule="nonzero"/></clipPath><clipPath id="aaff5f5bb3"><path d="M 20 2.011719 L 22 2.011719 L 22 3 L 20 3 Z M 20 2.011719 " clip-rule="nonzero"/></clipPath><clipPath id="d47da9ad64"><path d="M 17 2.011719 L 18 2.011719 L 18 3 L 17 3 Z M 17 2.011719 " clip-rule="nonzero"/></clipPath><clipPath id="587193ef57"><path d="M 18 2.011719 L 20 2.011719 L 20 3 L 18 3 Z M 18 2.011719 " clip-rule="nonzero"/></clipPath><clipPath id="8bec433f4e"><path d="M 16 2.011719 L 18 2.011719 L 18 3 L 16 3 Z M 16 2.011719 " clip-rule="nonzero"/></clipPath><clipPath id="5be6414449"><path d="M 16 2.011719 L 17 2.011719 L 17 3 L 16 3 Z M 16 2.011719 " clip-rule="nonzero"/></clipPath><clipPath id="cb37b9da77"><path d="M 24 34 L 26 34 L 26 35.761719 L 24 35.761719 Z M 24 34 " clip-rule="nonzero"/></clipPath><clipPath id="c524d18d84"><path d="M 18 35 L 19 35 L 19 35.761719 L 18 35.761719 Z M 18 35 " clip-rule="nonzero"/></clipPath><clipPath id="869b382663"><path d="M 2.132812 14 L 3 14 L 3 15 L 2.132812 15 Z M 2.132812 14 " clip-rule="nonzero"/></clipPath><clipPath id="48b39904eb"><path d="M 2.132812 12 L 4 12 L 4 15 L 2.132812 15 Z M 2.132812 12 " clip-rule="nonzero"/></clipPath><clipPath id="8f9af275e7"><path d="M 2.132812 2.011719 L 35.132812 2.011719 L 35.132812 35.761719 L 2.132812 35.761719 Z M 2.132812 2.011719 " clip-rule="nonzero"/></clipPath><clipPath id="34a1feb6fb"><path d="M 4.964844 5.605469 L 32.527344 5.605469 L 32.527344 31.855469 L 4.964844 31.855469 Z M 4.964844 5.605469 " clip-rule="nonzero"/></clipPath></defs><g clip-path="url(#560fb9aef9)"><path fill="#e2a002" d="M 14.960938 2.472656 C 14.957031 2.433594 14.949219 2.386719 14.9375 2.335938 C 14.871094 2.410156 14.894531 2.449219 14.960938 2.472656 Z M 14.960938 2.472656 " fill-opacity="1" fill-rule="nonzero"/></g><g clip-path="url(#aaff5f5bb3)"><path fill="#e2a002" d="M 20.65625 2.320312 C 20.796875 2.320312 20.9375 2.324219 20.9375 2.324219 C 20.960938 2.328125 20.980469 2.332031 20.988281 2.332031 C 20.992188 2.332031 21 2.332031 21.003906 2.332031 C 21.003906 2.3125 20.46875 2.15625 20.453125 2.320312 C 20.457031 2.320312 20.460938 2.320312 20.46875 2.320312 C 20.519531 2.320312 20.589844 2.320312 20.65625 2.320312 Z M 20.65625 2.320312 " fill-opacity="1" fill-rule="nonzero"/></g><g clip-path="url(#d47da9ad64)"><path fill="#e2a002" d="M 17.984375 2.433594 C 17.921875 2.40625 17.851562 2.386719 17.777344 2.371094 C 17.835938 2.394531 17.90625 2.414062 17.984375 2.433594 Z M 17.984375 2.433594 " fill-opacity="1" fill-rule="nonzero"/></g><g clip-path="url(#587193ef57)"><path fill="#e2a002" d="M 19.527344 2.609375 C 19.421875 2.578125 19.308594 2.554688 19.195312 2.535156 C 19.097656 2.523438 18.996094 2.515625 18.894531 2.511719 C 18.789062 2.515625 18.6875 2.527344 18.582031 2.542969 C 18.582031 2.542969 18.582031 2.546875 18.585938 2.550781 C 18.730469 2.574219 18.882812 2.589844 19.039062 2.601562 C 19.203125 2.617188 19.367188 2.617188 19.527344 2.609375 Z M 19.527344 2.609375 " fill-opacity="1" fill-rule="nonzero"/></g><g clip-path="url(#8bec433f4e)"><path fill="#e2a002" d="M 17.292969 2.464844 C 17.417969 2.4375 17.5 2.417969 17.5 2.417969 C 17.5 2.417969 17.425781 2.316406 17.355469 2.214844 C 17.28125 2.113281 17.207031 2.011719 17.207031 2.011719 C 16.585938 2.019531 16.664062 2.191406 16.726562 2.367188 C 16.761719 2.457031 16.789062 2.546875 16.730469 2.617188 C 16.765625 2.609375 16.804688 2.597656 16.84375 2.585938 C 17.007812 2.542969 17.171875 2.5 17.292969 2.464844 Z M 17.292969 2.464844 " fill-opacity="1" fill-rule="nonzero"/></g><g clip-path="url(#5be6414449)"><path fill="#e2a002" d="M 16.726562 2.621094 C 16.726562 2.621094 16.726562 2.617188 16.730469 2.617188 C 16.605469 2.652344 16.488281 2.6875 16.398438 2.71875 C 16.277344 2.757812 16.195312 2.785156 16.195312 2.785156 C 16.355469 2.765625 16.472656 2.742188 16.558594 2.714844 C 16.644531 2.6875 16.699219 2.65625 16.726562 2.621094 Z M 16.726562 2.621094 " fill-opacity="1" fill-rule="nonzero"/></g><path fill="#e2a002" d="M 27.105469 33.941406 C 27.070312 33.992188 27.015625 34.050781 26.953125 34.113281 C 27.019531 34.09375 27.078125 34.070312 27.136719 34.03125 Z M 27.105469 33.941406 " fill-opacity="1" fill-rule="nonzero"/><path fill="#e2a002" d="M 27.019531 33.707031 L 27.105469 33.941406 C 27.179688 33.828125 27.183594 33.738281 27.019531 33.707031 Z M 27.019531 33.707031 " fill-opacity="1" fill-rule="nonzero"/><g clip-path="url(#cb37b9da77)"><path fill="#e2a002" d="M 24.921875 34.769531 C 24.753906 34.945312 24.578125 35.101562 24.578125 35.101562 C 24.730469 35.074219 24.988281 34.996094 25.164062 34.878906 C 25.339844 34.761719 25.429688 34.613281 25.253906 34.425781 C 25.257812 34.425781 25.089844 34.597656 24.921875 34.769531 Z M 24.921875 34.769531 " fill-opacity="1" fill-rule="nonzero"/></g><path fill="#e2a002" d="M 30.085938 28.90625 L 29.933594 28.800781 C 29.945312 28.867188 29.980469 28.914062 30.085938 28.90625 Z M 30.085938 28.90625 " fill-opacity="1" fill-rule="nonzero"/><path fill="#e2a002" d="M 4.265625 12.445312 C 4.253906 12.410156 4.234375 12.375 4.203125 12.335938 C 4.203125 12.335938 4.226562 12.378906 4.265625 12.445312 Z M 4.265625 12.445312 " fill-opacity="1" fill-rule="nonzero"/><g clip-path="url(#c524d18d84)"><path fill="#e2a002" d="M 18.777344 35.1875 L 18.757812 35.160156 C 18.757812 35.171875 18.761719 35.179688 18.777344 35.1875 Z M 18.777344 35.1875 " fill-opacity="1" fill-rule="nonzero"/></g><path fill="#e2a002" d="M 27.507812 5.542969 C 27.550781 5.496094 27.582031 5.46875 27.582031 5.46875 C 27.546875 5.488281 27.523438 5.511719 27.507812 5.542969 Z M 27.507812 5.542969 " fill-opacity="1" fill-rule="nonzero"/><path fill="#e2a002" d="M 34.253906 22.953125 C 34.246094 22.957031 34.234375 22.957031 34.226562 22.957031 C 34.226562 22.972656 34.226562 22.984375 34.222656 23 C 34.234375 22.984375 34.242188 22.972656 34.253906 22.953125 Z M 34.253906 22.953125 " fill-opacity="1" fill-rule="nonzero"/><path fill="#e2a002" d="M 34.054688 24.375 C 34.121094 23.960938 34.195312 23.457031 34.222656 23.023438 C 34.222656 23.015625 34.222656 23.007812 34.226562 23 C 34.078125 23.222656 34.015625 23.40625 34.011719 23.609375 C 34.003906 23.824219 34.039062 24.0625 34.054688 24.375 Z M 34.054688 24.375 " fill-opacity="1" fill-rule="nonzero"/><path fill="#e2a002" d="M 32.824219 27.765625 C 32.859375 27.789062 32.894531 27.816406 32.9375 27.84375 C 32.933594 27.746094 32.886719 27.734375 32.824219 27.765625 Z M 32.824219 27.765625 " fill-opacity="1" fill-rule="nonzero"/><path fill="#e2a002" d="M 31.902344 27.613281 C 31.902344 27.613281 32.015625 27.453125 32.121094 27.285156 C 32.226562 27.117188 32.328125 26.945312 32.328125 26.945312 C 32.464844 27.140625 32.382812 27.371094 32.28125 27.578125 C 32.179688 27.785156 32.085938 27.972656 32.222656 28.121094 C 32.386719 28.171875 32.667969 27.839844 32.824219 27.765625 C 32.550781 27.539062 32.632812 27.3125 32.683594 27.128906 C 32.742188 26.925781 32.761719 26.78125 32.207031 26.757812 C 32.179688 26.804688 32.15625 26.855469 32.132812 26.910156 C 32.050781 27.097656 31.976562 27.320312 31.902344 27.613281 Z M 31.902344 27.613281 " fill-opacity="1" fill-rule="nonzero"/><path fill="#e2a002" d="M 32.773438 25.1875 C 32.746094 25.488281 32.691406 25.722656 32.628906 25.914062 C 32.574219 26.050781 32.519531 26.164062 32.464844 26.273438 C 32.523438 26.238281 32.589844 26.230469 32.65625 26.21875 C 32.832031 26.195312 33.027344 26.164062 33.167969 25.628906 C 33.167969 25.628906 33.070312 25.519531 32.96875 25.40625 C 32.871094 25.296875 32.773438 25.1875 32.773438 25.1875 Z M 32.773438 25.1875 " fill-opacity="1" fill-rule="nonzero"/><path fill="#e2a002" d="M 32.191406 26.757812 C 32.195312 26.757812 32.199219 26.757812 32.207031 26.757812 C 32.265625 26.636719 32.328125 26.527344 32.386719 26.417969 C 32.414062 26.371094 32.4375 26.324219 32.464844 26.273438 C 32.445312 26.285156 32.425781 26.296875 32.40625 26.3125 C 32.328125 26.382812 32.265625 26.515625 32.191406 26.757812 Z M 32.191406 26.757812 " fill-opacity="1" fill-rule="nonzero"/><path fill="#e2a002" d="M 30.019531 30.558594 C 30.089844 30.484375 30.15625 30.402344 30.214844 30.3125 C 30.214844 30.3125 30.214844 30.3125 30.207031 30.308594 C 30.089844 30.402344 29.96875 30.5 29.855469 30.601562 C 29.726562 30.710938 29.609375 30.828125 29.5 30.949219 C 29.601562 30.894531 29.695312 30.828125 29.789062 30.757812 C 29.867188 30.699219 29.945312 30.632812 30.019531 30.558594 Z M 30.019531 30.558594 " fill-opacity="1" fill-rule="nonzero"/><path fill="#e2a002" d="M 30.714844 29.964844 C 30.777344 29.9375 30.84375 29.902344 30.902344 29.859375 C 30.847656 29.886719 30.785156 29.921875 30.714844 29.964844 Z M 30.714844 29.964844 " fill-opacity="1" fill-rule="nonzero"/><path fill="#e2a002" d="M 30.410156 30.011719 C 30.277344 29.984375 30.214844 29.878906 30.289062 29.65625 C 30.289062 29.65625 30.441406 29.652344 30.589844 29.648438 C 30.742188 29.640625 30.894531 29.636719 30.894531 29.636719 C 30.894531 29.636719 30.894531 29.558594 30.890625 29.445312 C 30.890625 29.332031 30.882812 29.179688 30.871094 29.027344 C 30.847656 28.726562 30.820312 28.433594 30.820312 28.433594 C 30.828125 28.648438 30.753906 28.824219 30.648438 28.976562 C 30.550781 29.128906 30.40625 29.242188 30.292969 29.355469 C 30.0625 29.582031 29.90625 29.761719 30.214844 30.09375 C 30.214844 30.09375 30.097656 30.117188 29.976562 30.144531 C 29.859375 30.167969 29.742188 30.191406 29.742188 30.191406 C 29.742188 30.191406 29.859375 30.222656 29.980469 30.253906 C 30.078125 30.277344 30.179688 30.304688 30.207031 30.308594 C 30.390625 30.171875 30.566406 30.054688 30.714844 29.964844 C 30.605469 30.011719 30.496094 30.03125 30.410156 30.011719 Z M 30.410156 30.011719 " fill-opacity="1" fill-rule="nonzero"/><path fill="#e2a002" d="M 28.902344 31.960938 C 28.804688 32.0625 28.707031 32.160156 28.707031 32.160156 C 28.683594 32.175781 28.667969 32.1875 28.660156 32.191406 C 28.660156 32.195312 28.65625 32.199219 28.652344 32.203125 C 28.664062 32.214844 29.152344 31.945312 29.050781 31.816406 C 29.046875 31.820312 29.042969 31.820312 29.039062 31.824219 C 29.003906 31.863281 28.953125 31.914062 28.902344 31.960938 Z M 28.902344 31.960938 " fill-opacity="1" fill-rule="nonzero"/><path fill="#e2a002" d="M 31.734375 28.429688 C 31.632812 28.558594 31.566406 28.660156 31.527344 28.742188 C 31.484375 28.824219 31.46875 28.882812 31.472656 28.929688 C 31.472656 28.929688 31.476562 28.929688 31.476562 28.929688 C 31.539062 28.820312 31.597656 28.710938 31.640625 28.621094 C 31.699219 28.507812 31.734375 28.429688 31.734375 28.429688 Z M 31.734375 28.429688 " fill-opacity="1" fill-rule="nonzero"/><path fill="#e2a002" d="M 31.648438 29.109375 C 31.566406 29.070312 31.484375 29.023438 31.476562 28.929688 C 31.457031 28.964844 31.433594 29 31.414062 29.035156 C 31.332031 29.183594 31.246094 29.332031 31.183594 29.445312 C 31.113281 29.554688 31.066406 29.628906 31.066406 29.628906 C 31.066406 29.628906 31.191406 29.648438 31.3125 29.667969 C 31.4375 29.683594 31.558594 29.703125 31.558594 29.703125 C 31.992188 29.253906 31.816406 29.1875 31.648438 29.109375 Z M 31.648438 29.109375 " fill-opacity="1" fill-rule="nonzero"/><g clip-path="url(#869b382663)"><path fill="#e2a002" d="M 2.320312 14.230469 C 2.3125 14.167969 2.308594 14.089844 2.308594 14.003906 C 2.277344 14.0625 2.25 14.125 2.234375 14.191406 Z M 2.320312 14.230469 " fill-opacity="1" fill-rule="nonzero"/><path fill="#e2a002" d="M 2.542969 14.335938 L 2.320312 14.230469 C 2.347656 14.367188 2.40625 14.429688 2.542969 14.335938 Z M 2.542969 14.335938 " fill-opacity="1" fill-rule="nonzero"/></g><g clip-path="url(#48b39904eb)"><path fill="#e2a002" d="M 3.023438 13.316406 C 3.234375 13.148438 3.320312 13.003906 2.992188 12.746094 C 2.992188 12.746094 2.894531 12.921875 2.792969 13.101562 C 2.746094 13.1875 2.695312 13.277344 2.65625 13.34375 C 2.621094 13.410156 2.597656 13.457031 2.597656 13.457031 C 2.292969 13.296875 2.140625 13.214844 2.402344 12.769531 C 2.222656 12.820312 2.199219 13.324219 2.160156 13.589844 L 2.269531 13.429688 C 2.316406 13.578125 2.304688 13.804688 2.308594 14.003906 C 2.476562 13.675781 2.804688 13.480469 3.023438 13.316406 Z M 3.023438 13.316406 " fill-opacity="1" fill-rule="nonzero"/></g><path fill="#e2a002" d="M 3.289062 12.5625 C 3.289062 12.5625 3.289062 12.320312 3.285156 12.078125 C 3.285156 11.835938 3.296875 11.59375 3.296875 11.59375 C 3.210938 11.726562 3.082031 11.96875 3.039062 12.175781 C 2.996094 12.382812 3.039062 12.554688 3.289062 12.5625 Z M 3.289062 12.5625 " fill-opacity="1" fill-rule="nonzero"/><path fill="#e2a002" d="M 4.199219 11.859375 C 4.285156 11.722656 4.378906 11.605469 4.375 11.445312 C 4.15625 11.585938 4.160156 11.5 4.226562 11.34375 C 4.289062 11.191406 4.410156 10.976562 4.410156 10.859375 C 3.648438 11.457031 4.386719 11.351562 4.199219 11.859375 Z M 4.199219 11.859375 " fill-opacity="1" fill-rule="nonzero"/><path fill="#e2a002" d="M 4.199219 11.859375 C 4.160156 11.921875 4.121094 11.988281 4.101562 12.066406 C 4.148438 11.984375 4.175781 11.921875 4.199219 11.859375 Z M 4.199219 11.859375 " fill-opacity="1" fill-rule="nonzero"/><path fill="#e2a002" d="M 7.339844 7.371094 L 7.371094 7.375 C 7.367188 7.367188 7.355469 7.367188 7.339844 7.371094 Z M 7.339844 7.371094 " fill-opacity="1" fill-rule="nonzero"/><g clip-path="url(#8f9af275e7)"><path fill="#e2a002" d="M 35.015625 17.996094 C 34.949219 17.800781 34.867188 17.574219 34.8125 17.355469 C 34.761719 17.136719 34.75 16.921875 34.84375 16.746094 L 34.507812 16.808594 C 34.507812 16.785156 34.503906 16.761719 34.503906 16.738281 C 34.476562 16.332031 34.457031 16.074219 34.457031 15.902344 C 34.457031 15.71875 34.464844 15.628906 34.480469 15.546875 C 34.5 15.464844 34.515625 15.394531 34.519531 15.246094 C 34.519531 15.171875 34.519531 15.078125 34.511719 14.957031 C 34.496094 14.835938 34.476562 14.683594 34.445312 14.492188 C 34.445312 14.492188 34.316406 14.417969 34.191406 14.34375 C 34.15625 14.324219 34.121094 14.304688 34.089844 14.285156 C 34.066406 14.203125 34.046875 14.117188 34.023438 14.035156 C 34.023438 14.035156 34.027344 14.03125 34.027344 14.03125 C 34.015625 13.988281 34 13.945312 33.984375 13.90625 C 33.761719 13.132812 33.476562 12.390625 33.132812 11.675781 C 33.078125 11.496094 33 11.3125 32.871094 11.140625 C 32.871094 11.140625 32.875 11.152344 32.878906 11.167969 C 32.707031 10.847656 32.523438 10.53125 32.328125 10.222656 C 32.347656 10.203125 32.367188 10.183594 32.386719 10.152344 C 32.257812 9.964844 32.109375 9.796875 31.949219 9.652344 C 30.777344 7.980469 29.261719 6.578125 27.507812 5.546875 C 27.507812 5.542969 27.507812 5.542969 27.507812 5.542969 C 27.507812 5.542969 27.507812 5.542969 27.507812 5.546875 C 27.367188 5.464844 27.222656 5.382812 27.082031 5.304688 C 27.132812 5.246094 27.191406 5.1875 27.25 5.125 C 27.550781 4.808594 27.863281 4.472656 27.253906 4.210938 C 27.484375 4.5 27.375 4.753906 27.171875 4.902344 C 26.960938 5.054688 26.667969 5.089844 26.476562 4.953125 C 26.480469 4.964844 26.480469 4.980469 26.480469 5 C 26.394531 4.957031 26.3125 4.917969 26.226562 4.878906 C 26.429688 4.8125 26.464844 4.679688 26.390625 4.546875 C 26.3125 4.40625 26.113281 4.257812 25.878906 4.210938 C 25.972656 4.257812 26.054688 4.3125 26.113281 4.371094 C 26.171875 4.433594 26.214844 4.5 26.238281 4.566406 C 26.28125 4.683594 26.265625 4.792969 26.203125 4.867188 C 26.074219 4.8125 25.945312 4.753906 25.816406 4.703125 C 25.789062 4.679688 25.761719 4.660156 25.734375 4.640625 C 25.773438 4.625 25.820312 4.59375 25.871094 4.542969 C 26.015625 4.304688 25.773438 4.035156 25.429688 3.78125 C 25.257812 3.65625 25.0625 3.53125 24.878906 3.40625 C 24.695312 3.292969 24.527344 3.175781 24.414062 3.054688 C 24.167969 3.023438 24.03125 3.066406 23.9375 3.136719 C 23.839844 3.207031 23.78125 3.316406 23.675781 3.457031 C 23.648438 3.292969 23.523438 3.152344 23.390625 3.027344 C 23.257812 2.898438 23.125 2.773438 23.085938 2.609375 C 22.816406 2.664062 22.589844 2.667969 22.382812 2.632812 C 22.171875 2.597656 21.984375 2.523438 21.792969 2.464844 C 21.605469 2.40625 21.410156 2.34375 21.199219 2.324219 C 21.136719 2.324219 21.070312 2.324219 21.003906 2.332031 C 21.003906 2.332031 21 2.332031 20.988281 2.332031 C 20.839844 2.347656 20.679688 2.382812 20.511719 2.457031 C 20.464844 2.398438 20.449219 2.351562 20.453125 2.320312 C 20.410156 2.320312 20.378906 2.324219 20.378906 2.324219 L 20.4375 2.390625 C 20.25 2.503906 20.027344 2.5625 19.785156 2.589844 C 19.703125 2.597656 19.617188 2.605469 19.527344 2.609375 C 19.605469 2.628906 19.679688 2.65625 19.753906 2.6875 C 19.804688 2.707031 19.851562 2.734375 19.902344 2.757812 C 19.765625 2.769531 19.589844 2.792969 19.417969 2.8125 C 19.171875 2.839844 18.929688 2.878906 18.789062 2.902344 C 18.765625 2.859375 18.738281 2.808594 18.707031 2.757812 C 18.652344 2.667969 18.601562 2.578125 18.585938 2.550781 C 18.359375 2.519531 18.152344 2.476562 17.984375 2.433594 C 18.097656 2.480469 18.1875 2.546875 18.234375 2.617188 C 18.269531 2.671875 18.277344 2.726562 18.261719 2.78125 C 18.222656 2.78125 18.1875 2.785156 18.148438 2.785156 C 18.066406 2.792969 17.988281 2.796875 17.90625 2.800781 C 17.890625 2.78125 17.871094 2.765625 17.851562 2.746094 C 17.742188 2.640625 17.628906 2.539062 17.628906 2.539062 C 17.628906 2.539062 17.578125 2.59375 17.5 2.675781 C 17.460938 2.714844 17.414062 2.765625 17.363281 2.820312 C 17.089844 2.832031 16.820312 2.851562 16.554688 2.859375 C 16.210938 2.886719 15.878906 2.921875 15.574219 2.976562 C 15.320312 3.027344 15.082031 3.09375 14.871094 3.175781 C 14.960938 3.09375 15.089844 3.039062 15.214844 2.996094 C 15.429688 2.921875 15.632812 2.855469 15.636719 2.65625 C 15.554688 2.5 15.121094 2.535156 14.960938 2.472656 C 14.996094 2.828125 14.78125 2.933594 14.617188 3.023438 C 14.449219 3.117188 14.34375 3.199219 14.605469 3.523438 C 14.585938 3.578125 14.589844 3.625 14.628906 3.652344 C 14.527344 3.683594 14.429688 3.710938 14.332031 3.742188 C 14.28125 3.757812 14.230469 3.773438 14.179688 3.789062 C 14.199219 3.792969 14.222656 3.796875 14.246094 3.800781 C 14.34375 3.808594 14.46875 3.765625 14.660156 3.667969 C 14.726562 3.6875 14.847656 3.683594 15.058594 3.632812 C 14.808594 3.882812 14.488281 3.96875 14.136719 3.972656 C 14 3.980469 13.863281 3.976562 13.726562 3.972656 C 13.753906 3.957031 13.785156 3.9375 13.8125 3.925781 C 13.941406 3.867188 14.0625 3.824219 14.179688 3.789062 C 14.109375 3.769531 14.058594 3.726562 14.003906 3.6875 C 13.863281 3.582031 13.703125 3.460938 13.234375 3.738281 C 13.234375 3.738281 13.226562 3.835938 13.21875 3.953125 C 13.175781 3.953125 13.128906 3.949219 13.085938 3.949219 C 13.085938 3.949219 13.109375 3.910156 13.144531 3.851562 C 13.179688 3.792969 13.226562 3.71875 13.273438 3.644531 C 13.371094 3.492188 13.464844 3.34375 13.464844 3.34375 C 12.613281 3.640625 11.632812 3.839844 10.703125 4.179688 C 9.777344 4.515625 8.90625 4.976562 8.355469 5.640625 L 8.796875 5.773438 C 8.722656 5.835938 8.648438 5.894531 8.574219 5.953125 C 8.5 6.015625 8.425781 6.078125 8.351562 6.132812 C 8.199219 6.25 8.046875 6.359375 7.894531 6.464844 C 7.597656 6.683594 7.296875 6.878906 7.023438 7.074219 C 6.753906 7.277344 6.492188 7.460938 6.292969 7.660156 C 6.085938 7.855469 5.925781 8.050781 5.828125 8.25 C 6.421875 8.066406 6.34375 8.273438 6.113281 8.558594 C 6.058594 8.632812 5.992188 8.710938 5.925781 8.789062 C 5.90625 8.800781 5.882812 8.808594 5.859375 8.816406 L 5.886719 8.835938 C 5.699219 9.066406 5.503906 9.292969 5.480469 9.421875 C 5.585938 9.332031 5.695312 9.234375 5.804688 9.132812 C 5.875 9.066406 5.941406 8.992188 6.007812 8.921875 L 6.140625 9.011719 C 5.851562 9.351562 5.671875 9.5625 5.542969 9.691406 C 5.417969 9.820312 5.347656 9.878906 5.28125 9.921875 C 5.210938 9.96875 5.148438 10.007812 5.042969 10.109375 C 4.992188 10.160156 4.925781 10.230469 4.847656 10.320312 C 4.773438 10.417969 4.683594 10.539062 4.574219 10.695312 C 4.574219 10.695312 4.609375 10.839844 4.648438 10.984375 C 4.667969 11.054688 4.6875 11.125 4.699219 11.179688 C 4.71875 11.230469 4.726562 11.265625 4.726562 11.265625 C 4.757812 11.316406 4.792969 10.96875 4.882812 10.636719 C 4.96875 10.296875 5.132812 9.992188 5.351562 10.117188 C 5.335938 10.242188 5.308594 10.371094 5.28125 10.496094 C 5.253906 10.625 5.222656 10.757812 5.1875 10.886719 C 5.15625 11.019531 5.117188 11.152344 5.078125 11.289062 C 5.039062 11.421875 5.007812 11.558594 4.972656 11.699219 C 4.941406 11.835938 4.90625 11.972656 4.878906 12.109375 C 4.851562 12.25 4.832031 12.390625 4.8125 12.527344 C 4.796875 12.667969 4.789062 12.804688 4.785156 12.941406 C 4.78125 13.078125 4.792969 13.214844 4.8125 13.347656 C 4.8125 13.347656 4.652344 13.101562 4.5 12.847656 C 4.410156 12.699219 4.320312 12.542969 4.265625 12.445312 C 4.335938 12.640625 4.175781 12.816406 3.972656 13.046875 C 3.851562 13.1875 3.710938 13.34375 3.589844 13.53125 C 3.476562 13.71875 3.386719 13.9375 3.351562 14.195312 C 3.351562 14.195312 3.46875 13.996094 3.585938 13.796875 C 3.648438 13.699219 3.703125 13.601562 3.75 13.527344 C 3.800781 13.457031 3.832031 13.410156 3.832031 13.410156 C 3.964844 13.636719 4.011719 13.894531 3.996094 14.175781 C 3.976562 14.457031 3.917969 14.765625 3.847656 15.085938 C 3.828125 15.167969 3.808594 15.25 3.792969 15.328125 C 3.777344 15.410156 3.761719 15.496094 3.746094 15.578125 C 3.71875 15.742188 3.695312 15.910156 3.675781 16.074219 C 3.648438 16.402344 3.671875 16.726562 3.765625 17.011719 C 3.792969 16.707031 3.820312 16.402344 4.0625 16.375 C 4.082031 16.398438 4.101562 16.433594 4.113281 16.46875 C 4.113281 16.582031 4.121094 16.605469 4.144531 16.589844 C 4.164062 16.710938 4.15625 16.859375 4.128906 17.011719 C 4.089844 17.269531 4.015625 17.550781 3.9375 17.757812 C 3.90625 17.75 3.878906 17.742188 3.847656 17.730469 C 3.816406 17.523438 3.832031 17.320312 3.96875 17.042969 C 3.96875 17.042969 3.847656 17.0625 3.726562 17.082031 C 3.605469 17.105469 3.484375 17.128906 3.484375 17.128906 C 3.488281 17.175781 3.492188 17.222656 3.496094 17.265625 C 3.402344 17.003906 3.390625 16.675781 3.367188 16.363281 C 3.339844 15.730469 3.367188 15.152344 3.003906 15.242188 C 2.941406 15.574219 2.945312 15.90625 3 16.222656 C 3.058594 16.539062 3.148438 16.839844 3.246094 17.117188 C 3.347656 17.394531 3.449219 17.652344 3.511719 17.890625 C 3.578125 18.125 3.609375 18.339844 3.5625 18.542969 C 3.5625 18.542969 3.429688 18.382812 3.300781 18.222656 C 3.238281 18.140625 3.171875 18.0625 3.125 18 C 3.074219 17.9375 3.042969 17.894531 3.042969 17.894531 C 3.042969 17.894531 3.054688 17.9375 3.070312 17.996094 C 3.085938 18.058594 3.109375 18.136719 3.128906 18.21875 C 3.175781 18.375 3.21875 18.535156 3.21875 18.535156 L 3.25 18.347656 C 3.460938 18.476562 3.449219 18.679688 3.417969 18.914062 C 3.386719 19.148438 3.328125 19.417969 3.410156 19.664062 C 3.410156 19.664062 3.277344 19.59375 3.144531 19.519531 C 3.011719 19.445312 2.878906 19.371094 2.878906 19.371094 C 2.878906 19.371094 2.882812 19.429688 2.886719 19.519531 C 2.894531 19.609375 2.898438 19.730469 2.914062 19.851562 C 2.9375 20.09375 2.964844 20.335938 2.964844 20.335938 L 3.085938 20.195312 C 3.5 21.707031 3.746094 22.988281 3.941406 24.429688 C 3.941406 24.429688 3.9375 24.378906 3.929688 24.296875 C 3.917969 24.214844 3.902344 24.109375 3.898438 24.003906 C 3.882812 23.789062 3.867188 23.574219 3.867188 23.574219 C 3.988281 23.609375 4.148438 24.023438 4.226562 24.402344 C 4.351562 24.289062 4.289062 24.011719 4.261719 23.75 C 4.234375 23.53125 4.210938 23.332031 4.28125 23.269531 C 4.347656 23.648438 4.429688 24.027344 4.527344 24.398438 C 4.53125 24.488281 4.535156 24.574219 4.535156 24.664062 C 4.539062 24.863281 4.554688 25.0625 4.578125 25.296875 C 4.589844 25.417969 4.605469 25.542969 4.632812 25.683594 C 4.660156 25.820312 4.695312 25.96875 4.746094 26.132812 C 4.832031 26.144531 4.898438 25.996094 4.980469 25.847656 C 5.074219 26.097656 5.175781 26.34375 5.28125 26.585938 C 5.199219 26.644531 5.074219 26.640625 4.855469 26.511719 C 5.222656 26.847656 5.234375 27.046875 5.261719 27.21875 C 5.285156 27.386719 5.328125 27.519531 5.746094 27.699219 C 5.675781 27.636719 5.621094 27.503906 5.570312 27.371094 C 5.582031 27.335938 5.597656 27.308594 5.613281 27.289062 C 5.789062 27.636719 5.976562 27.976562 6.179688 28.3125 C 6.1875 28.597656 6.242188 28.882812 6.472656 29.253906 C 6.472656 29.253906 6.546875 29.316406 6.652344 29.410156 C 6.761719 29.503906 6.914062 29.621094 7.0625 29.742188 C 7.175781 29.835938 7.289062 29.921875 7.390625 30 C 7.46875 30.089844 7.546875 30.183594 7.625 30.273438 C 7.585938 30.304688 7.535156 30.3125 7.535156 30.3125 C 7.675781 30.429688 7.808594 30.546875 7.941406 30.671875 C 8.078125 30.789062 8.210938 30.914062 8.34375 31.039062 C 8.363281 31.058594 8.386719 31.078125 8.40625 31.097656 C 8.4375 31.128906 8.46875 31.160156 8.5 31.191406 C 8.511719 31.257812 8.554688 31.324219 8.648438 31.378906 C 8.6875 31.398438 8.722656 31.414062 8.753906 31.425781 C 8.757812 31.429688 8.761719 31.433594 8.765625 31.4375 C 8.886719 31.546875 9.003906 31.65625 9.121094 31.761719 C 9.378906 31.992188 9.640625 32.203125 9.894531 32.386719 C 9.984375 32.449219 10.078125 32.503906 10.167969 32.558594 C 10.535156 32.816406 10.910156 33.054688 11.292969 33.269531 C 11.292969 33.273438 11.292969 33.277344 11.292969 33.28125 C 11.328125 33.296875 11.359375 33.308594 11.390625 33.324219 C 11.554688 33.414062 11.71875 33.503906 11.886719 33.585938 C 11.75 33.617188 11.640625 33.640625 11.640625 33.640625 C 12.449219 34.042969 13.285156 34.605469 14.175781 35.03125 C 15.0625 35.457031 16.003906 35.757812 16.855469 35.683594 L 16.632812 35.273438 C 16.730469 35.28125 16.824219 35.292969 16.917969 35.304688 C 17.015625 35.316406 17.109375 35.324219 17.203125 35.335938 C 17.390625 35.363281 17.574219 35.394531 17.753906 35.429688 C 18.113281 35.488281 18.464844 35.566406 18.796875 35.625 C 19.125 35.675781 19.4375 35.734375 19.71875 35.738281 C 20 35.742188 20.253906 35.722656 20.460938 35.652344 C 19.910156 35.355469 20.113281 35.265625 20.472656 35.230469 C 20.835938 35.179688 21.371094 35.179688 21.523438 35.074219 C 21.382812 35.058594 21.238281 35.050781 21.089844 35.042969 C 20.941406 35.042969 20.785156 35.046875 20.632812 35.058594 C 20.324219 35.082031 20.011719 35.105469 19.734375 35.140625 C 19.25 35.191406 18.863281 35.230469 18.777344 35.1875 L 18.808594 35.234375 C 18.808594 35.234375 18.683594 35.246094 18.492188 35.253906 C 18.304688 35.265625 18.050781 35.277344 17.792969 35.285156 C 17.535156 35.285156 17.277344 35.28125 17.085938 35.28125 C 16.988281 35.28125 16.910156 35.277344 16.851562 35.273438 C 16.796875 35.269531 16.761719 35.269531 16.761719 35.269531 L 16.828125 35.019531 C 18.496094 35.179688 20.1875 35.039062 21.8125 34.597656 C 21.816406 34.597656 21.816406 34.601562 21.816406 34.601562 C 21.816406 34.601562 21.816406 34.597656 21.816406 34.597656 C 21.972656 34.554688 22.128906 34.507812 22.28125 34.460938 C 22.285156 34.539062 22.289062 34.625 22.289062 34.710938 C 22.296875 35.148438 22.3125 35.609375 22.925781 35.359375 C 22.558594 35.324219 22.457031 35.0625 22.5 34.8125 C 22.542969 34.554688 22.722656 34.316406 22.957031 34.277344 C 22.945312 34.269531 22.933594 34.261719 22.921875 34.246094 C 23.007812 34.214844 23.097656 34.183594 23.183594 34.148438 C 23.089844 34.34375 23.152344 34.460938 23.296875 34.503906 C 23.417969 34.539062 23.59375 34.519531 23.757812 34.445312 C 23.953125 34.5 23.890625 34.554688 23.746094 34.613281 C 23.597656 34.675781 23.359375 34.742188 23.277344 34.824219 C 24.101562 34.929688 23.773438 34.605469 23.980469 34.371094 C 24.125 34.398438 24.3125 34.386719 24.511719 34.355469 C 24.722656 34.316406 24.945312 34.265625 25.160156 34.222656 C 25.335938 34.179688 25.503906 34.148438 25.648438 34.140625 C 25.59375 34.203125 25.570312 34.316406 25.59375 34.507812 C 25.59375 34.507812 25.789062 34.453125 25.980469 34.398438 C 26.078125 34.371094 26.175781 34.34375 26.25 34.324219 C 26.320312 34.304688 26.371094 34.289062 26.371094 34.289062 C 26.476562 34.621094 26.527344 34.785156 26.027344 34.914062 C 26.191406 35.007812 26.558594 34.671875 26.773438 34.507812 L 26.582031 34.542969 C 26.652344 34.40625 26.820312 34.25 26.957031 34.109375 C 26.609375 34.222656 26.238281 34.125 25.972656 34.082031 C 25.914062 34.074219 25.859375 34.070312 25.8125 34.074219 C 25.949219 33.949219 26 33.839844 26.019531 33.738281 C 26.035156 33.617188 26.003906 33.496094 25.980469 33.324219 C 26.113281 33.421875 26.296875 33.429688 26.480469 33.425781 C 26.660156 33.417969 26.847656 33.410156 26.984375 33.503906 C 27.136719 33.265625 27.296875 33.101562 27.46875 32.976562 C 27.640625 32.855469 27.824219 32.769531 28 32.675781 C 28.175781 32.582031 28.355469 32.488281 28.515625 32.347656 C 28.5625 32.304688 28.609375 32.253906 28.652344 32.199219 C 28.652344 32.199219 28.65625 32.195312 28.660156 32.191406 C 28.757812 32.074219 28.84375 31.933594 28.914062 31.757812 C 28.988281 31.769531 29.027344 31.789062 29.050781 31.8125 C 29.078125 31.78125 29.097656 31.761719 29.097656 31.761719 L 29.011719 31.753906 C 29.066406 31.539062 29.179688 31.335938 29.332031 31.144531 C 29.386719 31.078125 29.441406 31.011719 29.5 30.945312 C 29.433594 30.988281 29.363281 31.023438 29.289062 31.054688 C 28.929688 31.199219 28.574219 31.28125 28.21875 31.324219 C 28.003906 31.351562 27.800781 31.371094 27.613281 31.398438 C 27.78125 31.242188 27.945312 31.085938 28.105469 30.921875 C 28.203125 30.988281 28.300781 31.058594 28.300781 31.058594 C 28.453125 30.878906 28.582031 30.695312 28.699219 30.507812 C 28.8125 30.324219 28.90625 30.125 29.003906 29.925781 C 29.316406 29.546875 29.605469 29.15625 29.871094 28.753906 L 29.933594 28.796875 C 29.925781 28.75 30.019531 28.628906 30.167969 28.4375 C 30.242188 28.34375 30.332031 28.234375 30.4375 28.113281 C 30.539062 27.988281 30.652344 27.847656 30.773438 27.699219 C 30.777344 27.695312 30.78125 27.6875 30.785156 27.683594 C 31.824219 26.546875 32.6875 25.234375 33.324219 23.800781 C 33.328125 23.796875 33.332031 23.792969 33.335938 23.789062 C 33.410156 23.738281 33.480469 23.683594 33.527344 23.695312 C 33.574219 23.707031 33.59375 23.785156 33.542969 23.996094 C 33.550781 24.117188 33.621094 23.804688 33.625 23.445312 C 33.632812 23.320312 33.632812 23.1875 33.621094 23.070312 C 33.664062 22.960938 33.703125 22.851562 33.742188 22.738281 C 33.8125 22.890625 33.953125 22.976562 34.226562 22.957031 C 34.242188 22.550781 34.226562 22.21875 34.117188 22.09375 L 34.214844 22.167969 C 34.214844 22.167969 34.15625 21.976562 34.054688 21.71875 C 34.117188 21.488281 34.175781 21.257812 34.226562 21.019531 C 34.34375 21.234375 34.484375 21.363281 34.6875 21.253906 C 34.6875 21.253906 34.601562 21.066406 34.515625 20.878906 C 34.472656 20.789062 34.421875 20.695312 34.386719 20.628906 C 34.351562 20.558594 34.328125 20.515625 34.328125 20.515625 C 34.742188 20.769531 34.628906 19.800781 34.9375 19.980469 C 34.9375 19.980469 34.933594 19.949219 34.921875 19.894531 C 34.910156 19.835938 34.894531 19.757812 34.875 19.664062 C 34.832031 19.476562 34.789062 19.222656 34.722656 18.972656 C 34.660156 18.738281 34.601562 18.503906 34.550781 18.324219 C 34.550781 18.203125 34.554688 18.082031 34.554688 17.960938 L 34.84375 17.882812 C 34.84375 17.882812 34.8125 18.011719 34.78125 18.136719 C 34.761719 18.203125 34.746094 18.265625 34.734375 18.3125 C 34.71875 18.359375 34.710938 18.390625 34.710938 18.390625 C 34.957031 18.507812 35.066406 18.507812 35.097656 18.425781 C 35.132812 18.347656 35.085938 18.1875 35.015625 17.996094 Z M 6.339844 11.972656 C 6.382812 11.835938 6.429688 11.707031 6.460938 11.574219 C 6.46875 11.542969 6.472656 11.515625 6.480469 11.484375 C 6.59375 11.40625 6.699219 11.441406 6.785156 11.710938 C 6.785156 11.710938 6.621094 11.867188 6.453125 12.019531 C 6.367188 12.109375 6.28125 12.199219 6.21875 12.261719 C 6.265625 12.164062 6.304688 12.070312 6.339844 11.972656 Z M 6.566406 11.089844 C 6.589844 10.996094 6.609375 10.902344 6.632812 10.8125 C 6.652344 10.742188 6.671875 10.675781 6.691406 10.609375 C 6.726562 10.832031 6.671875 10.980469 6.566406 11.089844 Z M 7.34375 11.285156 C 7.40625 11.277344 7.480469 11.292969 7.566406 11.328125 C 7.488281 11.421875 7.40625 11.515625 7.328125 11.609375 C 7.328125 11.550781 7.332031 11.492188 7.335938 11.433594 C 7.335938 11.382812 7.339844 11.335938 7.34375 11.285156 Z M 5.382812 14.519531 C 5.402344 14.347656 5.402344 14.15625 5.390625 13.957031 C 5.382812 13.703125 5.363281 13.441406 5.351562 13.203125 C 5.351562 13.175781 5.351562 13.144531 5.351562 13.117188 C 5.386719 13.039062 5.425781 12.972656 5.464844 12.921875 C 5.425781 12.933594 5.390625 12.953125 5.359375 12.972656 C 5.363281 12.835938 5.378906 12.714844 5.410156 12.625 C 5.4375 12.703125 5.546875 12.542969 5.683594 12.367188 C 5.816406 12.414062 5.953125 12.21875 6.089844 11.996094 C 6.148438 12.003906 6.179688 12.09375 6.167969 12.316406 C 6.148438 12.335938 6.136719 12.34375 6.136719 12.34375 C 6.144531 12.34375 6.15625 12.34375 6.164062 12.34375 C 6.164062 12.355469 6.164062 12.367188 6.160156 12.382812 C 6.167969 12.367188 6.171875 12.355469 6.179688 12.34375 C 6.410156 12.328125 6.5625 12.246094 6.675781 12.132812 C 6.800781 12.011719 6.875 11.855469 6.949219 11.707031 C 7.011719 11.570312 7.078125 11.449219 7.164062 11.371094 C 7.160156 11.378906 7.15625 11.386719 7.152344 11.398438 C 7.113281 11.515625 7.082031 11.640625 7.042969 11.765625 C 7.011719 11.878906 6.976562 11.992188 6.945312 12.097656 C 6.886719 12.175781 6.828125 12.253906 6.773438 12.332031 C 6.753906 12.339844 6.742188 12.34375 6.730469 12.34375 C 6.730469 12.359375 6.730469 12.375 6.734375 12.386719 C 6.234375 13.085938 5.808594 13.820312 5.449219 14.582031 C 5.421875 14.5625 5.402344 14.542969 5.382812 14.519531 Z M 34.265625 14.761719 C 34.429688 15.039062 34.527344 15.351562 34.339844 15.445312 C 34.289062 15.15625 34.230469 14.871094 34.164062 14.589844 C 34.199219 14.644531 34.234375 14.699219 34.265625 14.761719 Z M 25.722656 4.664062 C 25.714844 4.660156 25.707031 4.65625 25.699219 4.652344 C 25.703125 4.652344 25.707031 4.652344 25.710938 4.648438 C 25.714844 4.65625 25.71875 4.660156 25.722656 4.664062 Z M 25.375 4.367188 C 25.355469 4.355469 25.339844 4.34375 25.324219 4.328125 C 25.324219 4.328125 25.34375 4.347656 25.378906 4.371094 C 25.386719 4.390625 25.398438 4.40625 25.410156 4.421875 C 25.445312 4.480469 25.480469 4.539062 25.523438 4.582031 C 25.355469 4.515625 25.191406 4.457031 25.023438 4.398438 C 25.183594 4.164062 25.28125 4.238281 25.375 4.367188 Z M 18.738281 2.910156 C 18.695312 2.917969 18.671875 2.921875 18.671875 2.921875 C 18.652344 2.898438 18.648438 2.875 18.648438 2.847656 C 18.679688 2.871094 18.710938 2.890625 18.738281 2.910156 Z M 18.429688 2.703125 C 18.429688 2.703125 18.464844 2.726562 18.519531 2.761719 C 18.488281 2.765625 18.457031 2.769531 18.421875 2.769531 C 18.425781 2.75 18.425781 2.726562 18.429688 2.703125 Z M 10.867188 4.65625 C 10.835938 4.683594 10.804688 4.707031 10.773438 4.734375 C 10.765625 4.726562 10.761719 4.71875 10.753906 4.710938 C 10.792969 4.691406 10.828125 4.671875 10.867188 4.65625 Z M 9.96875 5.355469 C 10.058594 5.324219 10.148438 5.300781 10.238281 5.277344 C 10.15625 5.382812 10.105469 5.476562 10.097656 5.554688 L 10.082031 5.433594 C 10.082031 5.433594 9.984375 5.621094 9.871094 5.886719 C 9.757812 6.148438 9.652344 6.511719 9.605469 6.835938 C 9.679688 6.625 9.828125 6.429688 9.996094 6.246094 C 10.167969 6.070312 10.359375 5.910156 10.515625 5.757812 C 10.757812 5.53125 10.917969 5.316406 10.792969 5.074219 C 10.886719 5 10.914062 4.914062 10.824219 4.792969 C 10.972656 4.75 11.085938 4.6875 11.1875 4.597656 C 11.347656 4.613281 11.476562 4.691406 11.5625 4.792969 C 11.507812 4.839844 11.445312 4.894531 11.386719 4.949219 C 11.125 5.191406 10.878906 5.503906 10.9375 5.632812 C 11.058594 5.609375 11.167969 5.402344 11.3125 5.261719 C 11.453125 5.117188 11.609375 5.019531 11.78125 5.191406 C 12.160156 4.976562 12.011719 4.953125 11.839844 4.917969 C 11.851562 4.910156 11.863281 4.902344 11.875 4.890625 C 12 4.8125 12.167969 4.703125 12.332031 4.597656 C 12.5 4.488281 12.671875 4.386719 12.800781 4.3125 C 12.933594 4.238281 13.019531 4.1875 13.019531 4.1875 C 13.246094 4.335938 13.085938 4.929688 12.910156 4.949219 C 12.765625 4.992188 12.613281 5.078125 12.453125 5.171875 C 12.292969 5.269531 12.125 5.367188 11.957031 5.464844 C 11.617188 5.660156 11.261719 5.785156 10.890625 5.683594 C 10.738281 5.933594 10.902344 6.003906 10.988281 6.09375 C 11.074219 6.183594 11.082031 6.277344 10.652344 6.578125 C 10.03125 6.675781 9.449219 6.960938 8.917969 7.308594 C 8.9375 7.109375 9.050781 6.839844 9.152344 6.582031 C 9.304688 6.203125 9.429688 5.84375 9.109375 5.742188 C 9.109375 5.742188 9.039062 5.933594 8.972656 6.128906 C 8.960938 6.167969 8.945312 6.203125 8.933594 6.242188 C 8.773438 5.78125 9.390625 5.515625 9.96875 5.355469 Z M 8.472656 6.089844 C 8.539062 6.023438 8.597656 5.964844 8.640625 5.929688 C 8.683594 5.890625 8.707031 5.867188 8.707031 5.867188 L 8.929688 6.253906 C 8.914062 6.308594 8.898438 6.355469 8.886719 6.398438 C 8.863281 6.472656 8.851562 6.519531 8.851562 6.519531 C 8.742188 6.066406 8.195312 6.738281 8.0625 6.5 C 8.214844 6.351562 8.359375 6.203125 8.472656 6.089844 Z M 7.285156 7.363281 C 7.285156 7.363281 7.363281 7.261719 7.492188 7.121094 C 7.613281 6.988281 7.769531 6.8125 7.929688 6.636719 C 7.910156 6.667969 7.890625 6.695312 7.871094 6.730469 C 7.769531 6.894531 7.625 7.105469 7.5 7.328125 C 7.371094 7.550781 7.242188 7.769531 7.152344 7.9375 C 7.066406 8.105469 7.007812 8.21875 7.007812 8.21875 L 6.726562 8.054688 C 6.773438 7.996094 6.820312 7.9375 6.863281 7.882812 C 6.867188 7.882812 6.871094 7.878906 6.875 7.878906 C 6.929688 7.84375 6.988281 7.8125 7.027344 7.785156 C 7.070312 7.761719 7.101562 7.746094 7.101562 7.746094 C 7.085938 7.710938 7.074219 7.675781 7.058594 7.644531 C 7.191406 7.492188 7.289062 7.390625 7.34375 7.371094 Z M 4.558594 15.128906 C 4.8125 14.339844 4.746094 15.410156 5.046875 15.117188 C 5.117188 15.078125 5.171875 15.03125 5.214844 14.972656 C 5.21875 15.007812 5.222656 15.046875 5.222656 15.082031 C 5.113281 15.335938 5.015625 15.589844 4.925781 15.84375 C 4.828125 15.886719 4.746094 15.851562 4.679688 15.761719 C 4.636719 15.695312 4.601562 15.605469 4.578125 15.496094 C 4.554688 15.386719 4.550781 15.261719 4.558594 15.128906 Z M 14.316406 34.539062 C 14.382812 34.558594 14.445312 34.578125 14.511719 34.597656 C 14.511719 34.605469 14.511719 34.609375 14.511719 34.617188 C 14.4375 34.597656 14.371094 34.574219 14.316406 34.539062 Z M 15.800781 34.882812 C 16.109375 34.933594 16.417969 34.976562 16.726562 35.007812 C 16.511719 35.15625 16.15625 35.054688 15.800781 34.882812 Z M 23.734375 34.414062 C 23.695312 34.421875 23.65625 34.429688 23.617188 34.429688 C 23.53125 34.425781 23.457031 34.410156 23.394531 34.378906 C 23.28125 34.328125 23.21875 34.242188 23.207031 34.140625 C 23.378906 34.074219 23.546875 34.003906 23.714844 33.933594 C 23.6875 33.976562 23.671875 34.039062 23.667969 34.132812 C 23.695312 34.234375 23.757812 34.300781 23.851562 34.339844 C 23.8125 34.359375 23.769531 34.382812 23.734375 34.414062 Z M 24.078125 33.886719 C 24.011719 33.875 23.949219 33.859375 23.886719 33.855469 C 24.050781 33.78125 24.210938 33.707031 24.371094 33.628906 C 24.429688 33.945312 24.261719 33.929688 24.078125 33.886719 Z M 24.078125 33.886719 " fill-opacity="1" fill-rule="nonzero"/></g><path fill="#e2a002" d="M 21.816406 34.601562 C 21.816406 34.664062 21.816406 34.707031 21.816406 34.707031 C 21.828125 34.667969 21.824219 34.632812 21.816406 34.601562 Z M 21.816406 34.601562 " fill-opacity="1" fill-rule="nonzero"/><path fill="#006a75" d="M 11.308594 28.304688 C 11.308594 28.300781 11.308594 28.292969 11.308594 28.289062 C 11.3125 28.242188 11.3125 28.1875 11.316406 28.132812 C 11.316406 28.125 11.316406 28.117188 11.316406 28.109375 C 11.316406 28.050781 11.316406 27.992188 11.3125 27.929688 C 11.3125 27.921875 11.3125 27.914062 11.3125 27.90625 C 11.308594 27.84375 11.304688 27.777344 11.296875 27.703125 C 11.296875 27.699219 11.296875 27.695312 11.296875 27.691406 C 11.289062 27.617188 11.28125 27.542969 11.269531 27.464844 C 11.25 27.3125 11.21875 27.160156 11.179688 27.003906 C 11.15625 26.910156 11.128906 26.816406 11.097656 26.71875 C 11.019531 26.476562 10.90625 26.191406 10.738281 25.898438 C 10.738281 25.890625 10.738281 25.886719 10.738281 25.878906 C 10.746094 25.835938 10.753906 25.773438 10.761719 25.691406 C 10.785156 25.53125 10.820312 25.296875 10.875 25.019531 C 10.929688 24.742188 11.003906 24.421875 11.09375 24.078125 C 11.140625 23.90625 11.1875 23.730469 11.246094 23.550781 C 11.273438 23.460938 11.300781 23.371094 11.328125 23.28125 C 11.359375 23.195312 11.390625 23.105469 11.421875 23.015625 C 11.480469 22.835938 11.550781 22.660156 11.617188 22.484375 C 11.679688 22.308594 11.757812 22.140625 11.828125 21.976562 C 11.894531 21.8125 11.972656 21.660156 12.042969 21.511719 C 12.078125 21.4375 12.113281 21.367188 12.144531 21.296875 C 12.183594 21.230469 12.21875 21.164062 12.25 21.101562 C 12.320312 20.976562 12.378906 20.859375 12.4375 20.757812 C 12.496094 20.660156 12.546875 20.570312 12.589844 20.5 C 12.675781 20.355469 12.726562 20.273438 12.726562 20.273438 C 12.726562 20.273438 12.671875 20.355469 12.578125 20.492188 C 12.535156 20.5625 12.476562 20.648438 12.414062 20.746094 C 12.351562 20.839844 12.285156 20.957031 12.210938 21.078125 C 12.171875 21.140625 12.136719 21.203125 12.097656 21.269531 C 12.058594 21.335938 12.019531 21.410156 11.980469 21.480469 C 11.90625 21.625 11.816406 21.777344 11.742188 21.9375 C 11.664062 22.101562 11.578125 22.265625 11.503906 22.4375 C 11.429688 22.609375 11.351562 22.785156 11.28125 22.964844 C 11.246094 23.050781 11.210938 23.140625 11.175781 23.230469 C 11.144531 23.320312 11.109375 23.410156 11.078125 23.496094 C 11.011719 23.675781 10.957031 23.851562 10.898438 24.023438 C 10.792969 24.363281 10.699219 24.6875 10.632812 24.96875 C 10.578125 25.1875 10.535156 25.382812 10.503906 25.535156 C 10.316406 25.277344 10.085938 25.019531 9.792969 24.789062 C 9.75 24.753906 9.703125 24.71875 9.660156 24.6875 C 9.644531 24.675781 9.628906 24.664062 9.613281 24.65625 C 9.582031 24.632812 9.550781 24.609375 9.515625 24.589844 C 9.5 24.578125 9.480469 24.566406 9.460938 24.554688 C 9.429688 24.535156 9.402344 24.515625 9.371094 24.496094 C 9.347656 24.484375 9.328125 24.472656 9.304688 24.460938 C 9.292969 24.453125 9.277344 24.441406 9.261719 24.433594 C 9.273438 24.15625 9.308594 23.882812 9.367188 23.621094 C 9.746094 21.890625 11.039062 20.859375 11.578125 20.5 C 12.222656 20.054688 12.785156 19.867188 13.046875 19.792969 C 13.097656 20.054688 13.195312 20.652344 13.292969 21.339844 C 13.417969 22.3125 13.53125 23.441406 13.304688 24.484375 C 13.066406 25.527344 12.484375 26.5 11.957031 27.332031 C 11.679688 27.757812 11.449219 28.101562 11.308594 28.304688 " fill-opacity="1" fill-rule="nonzero"/><g clip-path="url(#34a1feb6fb)"><path fill="#006a75" d="M 12.285156 29.582031 C 11.933594 29.335938 11.585938 29.066406 11.253906 28.78125 C 11.253906 28.773438 11.257812 28.765625 11.257812 28.757812 C 11.257812 28.753906 11.257812 28.75 11.261719 28.746094 C 11.261719 28.738281 11.261719 28.730469 11.265625 28.722656 C 11.265625 28.714844 11.265625 28.703125 11.269531 28.695312 C 11.269531 28.679688 11.273438 28.660156 11.277344 28.640625 C 11.277344 28.636719 11.277344 28.632812 11.277344 28.628906 C 11.28125 28.617188 11.28125 28.601562 11.285156 28.585938 C 11.652344 28.878906 12.03125 29.152344 12.410156 29.394531 C 13.210938 29.898438 14.070312 30.3125 14.964844 30.625 C 15.878906 30.949219 16.871094 31.164062 17.917969 31.261719 C 18.019531 31.273438 18.121094 31.28125 18.21875 31.285156 L 18.6875 31.308594 L 19.300781 31.3125 L 19.886719 31.285156 C 19.976562 31.28125 20.0625 31.269531 20.148438 31.261719 C 20.195312 31.257812 20.242188 31.253906 20.289062 31.25 C 20.492188 31.234375 20.699219 31.203125 20.894531 31.171875 C 20.960938 31.164062 21.023438 31.152344 21.089844 31.144531 C 21.738281 31.027344 22.230469 30.910156 22.6875 30.765625 C 22.875 30.710938 23.0625 30.644531 23.246094 30.578125 C 23.316406 30.550781 23.390625 30.523438 23.464844 30.496094 C 23.550781 30.464844 23.632812 30.429688 23.714844 30.394531 C 23.761719 30.375 23.804688 30.355469 23.851562 30.335938 L 24.042969 30.257812 L 24.238281 30.164062 C 25.246094 29.699219 26.199219 29.078125 27.066406 28.328125 C 27.460938 27.988281 27.855469 27.59375 28.277344 27.113281 C 28.625 26.714844 28.960938 26.261719 29.308594 25.730469 C 29.59375 25.285156 29.863281 24.785156 30.132812 24.207031 C 30.347656 23.726562 30.542969 23.195312 30.722656 22.574219 C 30.863281 22.074219 30.976562 21.519531 31.066406 20.875 L 31.109375 20.445312 C 31.121094 20.371094 31.125 20.296875 31.125 20.226562 L 31.148438 19.816406 C 31.152344 19.773438 31.152344 19.71875 31.152344 19.664062 C 31.152344 19.636719 31.152344 19.613281 31.152344 19.585938 L 31.152344 19.128906 C 31.152344 19.121094 31.152344 19.117188 31.152344 19.113281 L 31.132812 18.714844 C 31.128906 18.578125 31.117188 18.441406 31.101562 18.308594 L 31.097656 18.28125 C 31.09375 18.230469 31.089844 18.179688 31.082031 18.128906 C 31.074219 18.039062 31.066406 17.941406 31.050781 17.847656 L 30.988281 17.429688 C 30.871094 16.792969 30.734375 16.246094 30.570312 15.757812 C 30.363281 15.15625 30.152344 14.640625 29.917969 14.183594 C 29.628906 13.628906 29.34375 13.152344 29.046875 12.734375 C 28.683594 12.230469 28.335938 11.808594 27.984375 11.4375 C 27.554688 10.988281 27.152344 10.625 26.761719 10.316406 C 25.898438 9.636719 24.964844 9.085938 23.980469 8.683594 L 23.800781 8.605469 L 23.609375 8.539062 C 23.5625 8.519531 23.515625 8.503906 23.472656 8.488281 C 23.394531 8.457031 23.316406 8.429688 23.242188 8.40625 C 23.160156 8.378906 23.085938 8.359375 23.015625 8.335938 C 22.84375 8.28125 22.664062 8.226562 22.484375 8.183594 C 21.941406 8.035156 21.394531 7.953125 20.976562 7.894531 C 20.910156 7.890625 20.84375 7.882812 20.78125 7.875 C 20.597656 7.855469 20.40625 7.835938 20.230469 7.832031 L 19.871094 7.816406 L 19.140625 7.8125 L 19.140625 7.820312 L 18.65625 7.847656 L 18.292969 7.882812 C 18.199219 7.894531 18.101562 7.902344 18.007812 7.917969 C 17.046875 8.054688 16.140625 8.292969 15.320312 8.625 C 14.515625 8.949219 13.75 9.363281 13.046875 9.851562 C 11.824219 10.707031 10.757812 11.828125 9.96875 13.085938 C 9.929688 13.148438 9.890625 13.210938 9.855469 13.269531 L 9.765625 13.421875 L 12.253906 14.359375 L 6.425781 18.40625 L 4.777344 11.539062 L 7.140625 12.433594 L 7.207031 12.328125 C 7.355469 12.078125 7.511719 11.832031 7.679688 11.59375 C 8.722656 10.078125 10.089844 8.757812 11.640625 7.769531 C 12.527344 7.210938 13.480469 6.746094 14.476562 6.394531 C 15.496094 6.03125 16.601562 5.789062 17.757812 5.675781 C 17.875 5.664062 17.984375 5.65625 18.101562 5.648438 L 18.328125 5.636719 C 18.429688 5.632812 18.527344 5.625 18.628906 5.621094 L 19.289062 5.617188 L 19.519531 5.628906 L 20.03125 5.652344 L 20.382812 5.683594 C 20.628906 5.703125 20.851562 5.738281 21.089844 5.773438 C 21.15625 5.78125 21.222656 5.792969 21.289062 5.800781 C 21.984375 5.921875 22.546875 6.054688 23.058594 6.21875 C 23.28125 6.277344 23.5 6.359375 23.710938 6.433594 C 23.785156 6.460938 23.863281 6.488281 23.9375 6.515625 C 24.03125 6.550781 24.125 6.59375 24.222656 6.632812 L 24.582031 6.78125 L 24.789062 6.878906 C 25.917969 7.398438 26.980469 8.085938 27.949219 8.917969 C 28.390625 9.300781 28.832031 9.742188 29.300781 10.269531 C 29.691406 10.71875 30.070312 11.222656 30.453125 11.808594 C 30.777344 12.308594 31.078125 12.863281 31.375 13.503906 C 31.621094 14.042969 31.839844 14.636719 32.039062 15.320312 C 32.203125 15.886719 32.328125 16.507812 32.425781 17.21875 L 32.476562 17.699219 C 32.492188 17.800781 32.496094 17.902344 32.5 18.007812 C 32.503906 18.066406 32.507812 18.125 32.511719 18.183594 L 32.511719 18.199219 C 32.519531 18.351562 32.53125 18.507812 32.527344 18.65625 L 32.53125 19.167969 L 32.507812 19.621094 C 32.507812 19.644531 32.507812 19.675781 32.503906 19.703125 C 32.503906 19.746094 32.5 19.792969 32.496094 19.84375 L 32.472656 20.097656 C 32.46875 20.152344 32.460938 20.207031 32.457031 20.265625 C 32.445312 20.378906 32.4375 20.484375 32.421875 20.582031 L 32.347656 21.066406 C 32.222656 21.761719 32.074219 22.371094 31.890625 22.925781 C 31.664062 23.589844 31.429688 24.167969 31.164062 24.6875 C 30.851562 25.304688 30.53125 25.835938 30.195312 26.3125 C 29.800781 26.871094 29.414062 27.34375 29.015625 27.765625 C 28.542969 28.257812 28.097656 28.671875 27.65625 29.019531 C 26.691406 29.785156 25.644531 30.402344 24.546875 30.859375 L 24.335938 30.945312 L 23.992188 31.074219 C 23.898438 31.109375 23.808594 31.140625 23.714844 31.171875 C 23.644531 31.195312 23.566406 31.21875 23.492188 31.242188 C 23.28125 31.308594 23.082031 31.371094 22.878906 31.421875 C 22.386719 31.554688 21.851562 31.660156 21.179688 31.75 C 21.117188 31.757812 21.054688 31.765625 20.988281 31.773438 C 20.765625 31.796875 20.554688 31.816406 20.339844 31.824219 C 20.289062 31.828125 20.238281 31.832031 20.1875 31.832031 C 20.097656 31.839844 20.007812 31.84375 19.917969 31.847656 L 19.316406 31.847656 L 19.082031 31.839844 L 18.679688 31.820312 L 18.183594 31.773438 C 18.074219 31.761719 17.972656 31.753906 17.871094 31.738281 C 16.789062 31.589844 15.769531 31.324219 14.84375 30.953125 C 13.9375 30.589844 13.078125 30.128906 12.285156 29.582031 " fill-opacity="1" fill-rule="nonzero"/></g><path fill="#006a75" d="M 10.242188 27.710938 C 10.3125 27.792969 10.375 27.863281 10.425781 27.917969 C 10.476562 27.976562 10.515625 28.023438 10.542969 28.054688 C 10.570312 28.085938 10.585938 28.101562 10.585938 28.101562 C 10.585938 28.101562 10.578125 28.082031 10.558594 28.046875 C 10.539062 28.007812 10.511719 27.953125 10.472656 27.886719 C 10.4375 27.816406 10.386719 27.738281 10.332031 27.644531 C 10.273438 27.554688 10.207031 27.449219 10.128906 27.34375 C 10.089844 27.289062 10.050781 27.230469 10.007812 27.171875 C 9.964844 27.117188 9.917969 27.058594 9.867188 27 C 9.773438 26.878906 9.667969 26.753906 9.558594 26.632812 C 9.503906 26.566406 9.441406 26.507812 9.382812 26.445312 C 9.320312 26.382812 9.261719 26.320312 9.199219 26.261719 C 9.066406 26.144531 8.941406 26.015625 8.800781 25.902344 C 8.660156 25.792969 8.523438 25.675781 8.375 25.578125 C 8.304688 25.527344 8.234375 25.476562 8.160156 25.429688 C 8.089844 25.378906 8.011719 25.339844 7.941406 25.292969 C 7.867188 25.25 7.800781 25.207031 7.726562 25.167969 C 7.65625 25.128906 7.585938 25.097656 7.515625 25.0625 C 7.375 24.996094 7.246094 24.929688 7.117188 24.886719 C 6.992188 24.839844 6.875 24.796875 6.773438 24.761719 C 6.667969 24.734375 6.574219 24.710938 6.5 24.691406 C 6.347656 24.65625 6.257812 24.640625 6.257812 24.640625 C 6.257812 24.640625 6.339844 24.679688 6.480469 24.746094 C 6.546875 24.78125 6.632812 24.820312 6.730469 24.867188 C 6.824219 24.917969 6.929688 24.976562 7.046875 25.039062 C 7.164062 25.097656 7.28125 25.175781 7.40625 25.253906 C 7.472656 25.292969 7.539062 25.332031 7.601562 25.375 C 7.667969 25.421875 7.734375 25.464844 7.800781 25.511719 C 7.867188 25.558594 7.9375 25.601562 8.003906 25.652344 C 8.070312 25.703125 8.136719 25.753906 8.207031 25.804688 C 8.347656 25.902344 8.476562 26.019531 8.609375 26.128906 C 8.75 26.234375 8.875 26.355469 9.003906 26.464844 C 9.125 26.585938 9.253906 26.695312 9.371094 26.808594 C 9.484375 26.925781 9.601562 27.03125 9.703125 27.140625 C 9.808594 27.25 9.90625 27.351562 9.996094 27.449219 C 10.085938 27.542969 10.167969 27.632812 10.242188 27.710938 Z M 7.761719 27.296875 C 7.140625 26.796875 6.675781 26.085938 6.289062 25.460938 C 6.027344 25.023438 5.820312 24.664062 5.71875 24.480469 C 5.921875 24.402344 6.320312 24.265625 6.863281 24.226562 C 7.308594 24.191406 8.179688 24.199219 9.042969 24.648438 C 9.246094 24.757812 9.4375 24.878906 9.609375 25.015625 C 10.308594 25.570312 10.652344 26.296875 10.816406 26.808594 C 10.84375 26.898438 10.871094 26.988281 10.890625 27.074219 C 10.929688 27.21875 10.957031 27.363281 10.976562 27.503906 C 11.054688 28.042969 11.007812 28.457031 10.972656 28.667969 C 10.769531 28.609375 10.371094 28.488281 9.886719 28.328125 C 9.1875 28.089844 8.390625 27.792969 7.761719 27.296875 " fill-opacity="1" fill-rule="nonzero"/></svg>