<svg xmlns="http://www.w3.org/2000/svg" xmlns:xlink="http://www.w3.org/1999/xlink" width="100" zoomAndPan="magnify" viewBox="0 0 75 30.000001" height="40" preserveAspectRatio="xMidYMid meet" version="1.0"><defs><g/><clipPath id="c31007a2be"><path d="M 9 2.902344 L 10 2.902344 L 10 4 L 9 4 Z M 9 2.902344 " clip-rule="nonzero"/></clipPath><clipPath id="249817af6e"><path d="M 10 20 L 11 20 L 11 20.324219 L 10 20.324219 Z M 10 20 " clip-rule="nonzero"/></clipPath><clipPath id="d5e9976bc4"><path d="M 1.691406 9 L 2 9 L 2 10 L 1.691406 10 Z M 1.691406 9 " clip-rule="nonzero"/></clipPath><clipPath id="d4ae2a444d"><path d="M 1.691406 8 L 3 8 L 3 10 L 1.691406 10 Z M 1.691406 8 " clip-rule="nonzero"/></clipPath><clipPath id="7120e6138f"><path d="M 2 3 L 18.386719 3 L 18.386719 20.324219 L 2 20.324219 Z M 2 3 " clip-rule="nonzero"/></clipPath><clipPath id="2616a893fb"><path d="M 3.484375 4.746094 L 16.9375 4.746094 L 16.9375 18.535156 L 3.484375 18.535156 Z M 3.484375 4.746094 " clip-rule="nonzero"/></clipPath><clipPath id="c7b101ef91"><path d="M 3.484375 14 L 7 14 L 7 17 L 3.484375 17 Z M 3.484375 14 " clip-rule="nonzero"/></clipPath></defs><path fill="#e2a002" d="M 8.183594 3.140625 C 8.179688 3.121094 8.175781 3.097656 8.171875 3.070312 C 8.136719 3.109375 8.148438 3.128906 8.183594 3.140625 Z M 8.183594 3.140625 " fill-opacity="1" fill-rule="nonzero"/><path fill="#e2a002" d="M 11.0625 3.0625 C 11.132812 3.0625 11.203125 3.0625 11.203125 3.0625 C 11.21875 3.066406 11.226562 3.066406 11.230469 3.070312 C 11.234375 3.070312 11.234375 3.066406 11.238281 3.066406 C 11.238281 3.058594 10.96875 2.976562 10.960938 3.0625 C 10.960938 3.0625 10.964844 3.0625 10.96875 3.0625 C 10.992188 3.0625 11.027344 3.0625 11.0625 3.0625 Z M 11.0625 3.0625 " fill-opacity="1" fill-rule="nonzero"/><path fill="#e2a002" d="M 9.710938 3.121094 C 9.679688 3.105469 9.644531 3.097656 9.605469 3.089844 C 9.636719 3.101562 9.671875 3.109375 9.710938 3.121094 Z M 9.710938 3.121094 " fill-opacity="1" fill-rule="nonzero"/><path fill="#e2a002" d="M 10.492188 3.210938 C 10.4375 3.195312 10.382812 3.183594 10.324219 3.171875 C 10.273438 3.167969 10.222656 3.164062 10.171875 3.160156 C 10.117188 3.164062 10.066406 3.167969 10.011719 3.179688 C 10.011719 3.179688 10.015625 3.179688 10.015625 3.183594 C 10.089844 3.191406 10.167969 3.203125 10.246094 3.207031 C 10.328125 3.214844 10.410156 3.214844 10.492188 3.210938 Z M 10.492188 3.210938 " fill-opacity="1" fill-rule="nonzero"/><g clip-path="url(#c31007a2be)"><path fill="#e2a002" d="M 9.363281 3.136719 C 9.425781 3.121094 9.464844 3.113281 9.464844 3.113281 C 9.464844 3.113281 9.429688 3.058594 9.394531 3.007812 C 9.355469 2.957031 9.316406 2.902344 9.316406 2.902344 C 9.003906 2.90625 9.042969 2.996094 9.074219 3.085938 C 9.09375 3.132812 9.105469 3.179688 9.074219 3.214844 C 9.09375 3.210938 9.113281 3.207031 9.132812 3.199219 C 9.21875 3.175781 9.300781 3.15625 9.363281 3.136719 Z M 9.363281 3.136719 " fill-opacity="1" fill-rule="nonzero"/></g><path fill="#e2a002" d="M 9.074219 3.21875 C 9.074219 3.21875 9.074219 3.214844 9.074219 3.214844 C 9.015625 3.234375 8.953125 3.25 8.90625 3.269531 C 8.847656 3.289062 8.804688 3.300781 8.804688 3.300781 C 8.886719 3.292969 8.949219 3.28125 8.992188 3.265625 C 9.035156 3.253906 9.058594 3.234375 9.074219 3.21875 Z M 9.074219 3.21875 " fill-opacity="1" fill-rule="nonzero"/><path fill="#e2a002" d="M 14.324219 19.382812 C 14.304688 19.410156 14.28125 19.441406 14.25 19.472656 C 14.28125 19.460938 14.3125 19.449219 14.339844 19.429688 Z M 14.324219 19.382812 " fill-opacity="1" fill-rule="nonzero"/><path fill="#e2a002" d="M 14.28125 19.261719 L 14.324219 19.382812 C 14.363281 19.324219 14.363281 19.277344 14.28125 19.261719 Z M 14.28125 19.261719 " fill-opacity="1" fill-rule="nonzero"/><path fill="#e2a002" d="M 13.222656 19.808594 C 13.136719 19.902344 13.046875 19.984375 13.046875 19.984375 C 13.125 19.96875 13.253906 19.925781 13.34375 19.867188 C 13.429688 19.808594 13.476562 19.730469 13.390625 19.632812 C 13.390625 19.632812 13.304688 19.722656 13.222656 19.808594 Z M 13.222656 19.808594 " fill-opacity="1" fill-rule="nonzero"/><path fill="#e2a002" d="M 15.832031 16.785156 L 15.753906 16.730469 C 15.761719 16.765625 15.777344 16.789062 15.832031 16.785156 Z M 15.832031 16.785156 " fill-opacity="1" fill-rule="nonzero"/><path fill="#e2a002" d="M 2.773438 8.289062 C 2.765625 8.269531 2.753906 8.25 2.742188 8.234375 C 2.742188 8.234375 2.753906 8.253906 2.773438 8.289062 Z M 2.773438 8.289062 " fill-opacity="1" fill-rule="nonzero"/><g clip-path="url(#249817af6e)"><path fill="#e2a002" d="M 10.113281 20.027344 L 10.101562 20.011719 C 10.101562 20.019531 10.105469 20.023438 10.113281 20.027344 Z M 10.113281 20.027344 " fill-opacity="1" fill-rule="nonzero"/></g><path fill="#e2a002" d="M 14.53125 4.726562 C 14.550781 4.703125 14.566406 4.6875 14.566406 4.6875 C 14.546875 4.695312 14.535156 4.710938 14.53125 4.726562 Z M 14.53125 4.726562 " fill-opacity="1" fill-rule="nonzero"/><path fill="#e2a002" d="M 17.941406 13.710938 C 17.9375 13.714844 17.933594 13.714844 17.925781 13.714844 C 17.925781 13.722656 17.925781 13.730469 17.925781 13.738281 C 17.929688 13.726562 17.9375 13.722656 17.941406 13.710938 Z M 17.941406 13.710938 " fill-opacity="1" fill-rule="nonzero"/><path fill="#e2a002" d="M 17.839844 14.445312 C 17.875 14.230469 17.910156 13.972656 17.925781 13.75 C 17.925781 13.746094 17.925781 13.742188 17.925781 13.738281 C 17.851562 13.851562 17.820312 13.945312 17.816406 14.050781 C 17.816406 14.160156 17.832031 14.285156 17.839844 14.445312 Z M 17.839844 14.445312 " fill-opacity="1" fill-rule="nonzero"/><path fill="#e2a002" d="M 17.21875 16.195312 C 17.234375 16.207031 17.253906 16.222656 17.273438 16.234375 C 17.273438 16.183594 17.25 16.179688 17.21875 16.195312 Z M 17.21875 16.195312 " fill-opacity="1" fill-rule="nonzero"/><path fill="#e2a002" d="M 16.75 16.117188 C 16.75 16.117188 16.808594 16.035156 16.863281 15.949219 C 16.914062 15.859375 16.96875 15.773438 16.96875 15.773438 C 17.035156 15.871094 16.992188 15.992188 16.941406 16.097656 C 16.890625 16.203125 16.84375 16.304688 16.914062 16.378906 C 16.996094 16.40625 17.140625 16.234375 17.21875 16.195312 C 17.078125 16.078125 17.121094 15.960938 17.148438 15.867188 C 17.175781 15.761719 17.1875 15.6875 16.90625 15.675781 C 16.890625 15.699219 16.878906 15.726562 16.867188 15.753906 C 16.828125 15.851562 16.789062 15.964844 16.75 16.117188 Z M 16.75 16.117188 " fill-opacity="1" fill-rule="nonzero"/><path fill="#e2a002" d="M 17.191406 14.863281 C 17.175781 15.019531 17.152344 15.140625 17.117188 15.242188 C 17.09375 15.308594 17.0625 15.371094 17.035156 15.425781 C 17.066406 15.40625 17.097656 15.402344 17.132812 15.398438 C 17.222656 15.382812 17.320312 15.371094 17.390625 15.09375 C 17.390625 15.09375 17.339844 15.035156 17.292969 14.976562 C 17.242188 14.921875 17.191406 14.863281 17.191406 14.863281 Z M 17.191406 14.863281 " fill-opacity="1" fill-rule="nonzero"/><path fill="#e2a002" d="M 16.898438 15.675781 C 16.898438 15.675781 16.902344 15.675781 16.90625 15.675781 C 16.9375 15.613281 16.96875 15.558594 16.996094 15.5 C 17.007812 15.476562 17.023438 15.449219 17.035156 15.425781 C 17.023438 15.429688 17.015625 15.4375 17.007812 15.445312 C 16.964844 15.480469 16.933594 15.550781 16.898438 15.675781 Z M 16.898438 15.675781 " fill-opacity="1" fill-rule="nonzero"/><path fill="#e2a002" d="M 15.796875 17.636719 C 15.832031 17.597656 15.867188 17.554688 15.898438 17.511719 C 15.898438 17.511719 15.898438 17.511719 15.894531 17.507812 C 15.835938 17.554688 15.773438 17.605469 15.714844 17.660156 C 15.652344 17.714844 15.59375 17.777344 15.535156 17.839844 C 15.585938 17.808594 15.636719 17.777344 15.683594 17.742188 C 15.722656 17.710938 15.761719 17.675781 15.796875 17.636719 Z M 15.796875 17.636719 " fill-opacity="1" fill-rule="nonzero"/><path fill="#e2a002" d="M 16.152344 17.332031 C 16.183594 17.316406 16.214844 17.296875 16.246094 17.277344 C 16.21875 17.289062 16.1875 17.308594 16.152344 17.332031 Z M 16.152344 17.332031 " fill-opacity="1" fill-rule="nonzero"/><path fill="#e2a002" d="M 15.996094 17.355469 C 15.929688 17.339844 15.898438 17.285156 15.933594 17.171875 C 15.933594 17.171875 16.011719 17.167969 16.085938 17.167969 C 16.164062 17.164062 16.242188 17.160156 16.242188 17.160156 C 16.242188 17.160156 16.242188 17.121094 16.238281 17.0625 C 16.238281 17.003906 16.234375 16.925781 16.230469 16.847656 C 16.21875 16.691406 16.203125 16.539062 16.203125 16.539062 C 16.207031 16.652344 16.167969 16.742188 16.117188 16.820312 C 16.066406 16.898438 15.992188 16.957031 15.9375 17.015625 C 15.820312 17.132812 15.742188 17.226562 15.898438 17.394531 C 15.898438 17.394531 15.835938 17.410156 15.777344 17.421875 C 15.71875 17.433594 15.660156 17.445312 15.660156 17.445312 C 15.660156 17.445312 15.71875 17.464844 15.777344 17.480469 C 15.828125 17.492188 15.878906 17.503906 15.894531 17.507812 C 15.984375 17.4375 16.074219 17.375 16.152344 17.332031 C 16.09375 17.355469 16.039062 17.363281 15.996094 17.355469 Z M 15.996094 17.355469 " fill-opacity="1" fill-rule="nonzero"/><path fill="#e2a002" d="M 15.234375 18.363281 C 15.183594 18.414062 15.132812 18.464844 15.132812 18.464844 C 15.121094 18.472656 15.117188 18.476562 15.113281 18.480469 C 15.109375 18.480469 15.109375 18.484375 15.109375 18.484375 C 15.113281 18.492188 15.359375 18.351562 15.308594 18.285156 C 15.304688 18.289062 15.304688 18.289062 15.304688 18.292969 C 15.285156 18.308594 15.257812 18.335938 15.234375 18.363281 Z M 15.234375 18.363281 " fill-opacity="1" fill-rule="nonzero"/><path fill="#e2a002" d="M 16.667969 16.539062 C 16.617188 16.605469 16.582031 16.65625 16.5625 16.699219 C 16.539062 16.742188 16.53125 16.773438 16.535156 16.796875 C 16.566406 16.738281 16.597656 16.683594 16.617188 16.636719 C 16.648438 16.578125 16.667969 16.539062 16.667969 16.539062 Z M 16.667969 16.539062 " fill-opacity="1" fill-rule="nonzero"/><path fill="#e2a002" d="M 16.625 16.886719 C 16.582031 16.867188 16.539062 16.84375 16.535156 16.796875 C 16.523438 16.816406 16.515625 16.832031 16.503906 16.851562 C 16.460938 16.929688 16.417969 17.003906 16.386719 17.0625 C 16.351562 17.117188 16.328125 17.15625 16.328125 17.15625 C 16.328125 17.15625 16.390625 17.167969 16.453125 17.175781 C 16.515625 17.1875 16.578125 17.195312 16.578125 17.195312 C 16.796875 16.964844 16.707031 16.929688 16.625 16.886719 Z M 16.625 16.886719 " fill-opacity="1" fill-rule="nonzero"/><g clip-path="url(#d5e9976bc4)"><path fill="#e2a002" d="M 1.789062 9.210938 C 1.78125 9.179688 1.78125 9.136719 1.78125 9.09375 C 1.765625 9.121094 1.753906 9.15625 1.742188 9.1875 Z M 1.789062 9.210938 " fill-opacity="1" fill-rule="nonzero"/><path fill="#e2a002" d="M 1.902344 9.265625 L 1.789062 9.210938 C 1.800781 9.28125 1.832031 9.3125 1.902344 9.265625 Z M 1.902344 9.265625 " fill-opacity="1" fill-rule="nonzero"/></g><g clip-path="url(#d4ae2a444d)"><path fill="#e2a002" d="M 2.144531 8.738281 C 2.25 8.652344 2.292969 8.578125 2.128906 8.441406 C 2.128906 8.441406 2.078125 8.535156 2.027344 8.625 C 2.003906 8.671875 1.976562 8.71875 1.957031 8.753906 C 1.941406 8.785156 1.929688 8.808594 1.929688 8.808594 C 1.773438 8.726562 1.695312 8.6875 1.828125 8.457031 C 1.738281 8.480469 1.726562 8.742188 1.707031 8.878906 L 1.761719 8.796875 C 1.785156 8.871094 1.78125 8.992188 1.78125 9.09375 C 1.867188 8.925781 2.03125 8.820312 2.144531 8.738281 Z M 2.144531 8.738281 " fill-opacity="1" fill-rule="nonzero"/></g><path fill="#e2a002" d="M 2.277344 8.347656 C 2.277344 8.347656 2.277344 8.222656 2.277344 8.101562 C 2.273438 7.972656 2.28125 7.847656 2.28125 7.847656 C 2.238281 7.917969 2.175781 8.042969 2.152344 8.148438 C 2.128906 8.253906 2.152344 8.34375 2.277344 8.347656 Z M 2.277344 8.347656 " fill-opacity="1" fill-rule="nonzero"/><path fill="#e2a002" d="M 2.738281 7.984375 C 2.78125 7.917969 2.828125 7.855469 2.828125 7.773438 C 2.71875 7.84375 2.71875 7.800781 2.75 7.71875 C 2.785156 7.640625 2.84375 7.53125 2.84375 7.46875 C 2.460938 7.777344 2.832031 7.722656 2.738281 7.984375 Z M 2.738281 7.984375 " fill-opacity="1" fill-rule="nonzero"/><path fill="#e2a002" d="M 2.738281 7.984375 C 2.71875 8.019531 2.699219 8.054688 2.6875 8.09375 C 2.714844 8.050781 2.726562 8.015625 2.738281 7.984375 Z M 2.738281 7.984375 " fill-opacity="1" fill-rule="nonzero"/><path fill="#e2a002" d="M 4.328125 5.667969 L 4.34375 5.671875 C 4.339844 5.667969 4.335938 5.667969 4.328125 5.667969 Z M 4.328125 5.667969 " fill-opacity="1" fill-rule="nonzero"/><g clip-path="url(#7120e6138f)"><path fill="#e2a002" d="M 18.328125 11.152344 C 18.292969 11.054688 18.25 10.9375 18.222656 10.824219 C 18.195312 10.710938 18.191406 10.597656 18.238281 10.507812 L 18.070312 10.539062 C 18.070312 10.527344 18.066406 10.515625 18.066406 10.503906 C 18.050781 10.292969 18.042969 10.160156 18.042969 10.070312 C 18.042969 9.976562 18.046875 9.929688 18.054688 9.890625 C 18.0625 9.847656 18.074219 9.808594 18.074219 9.734375 C 18.074219 9.695312 18.074219 9.648438 18.070312 9.585938 C 18.0625 9.523438 18.054688 9.445312 18.035156 9.34375 C 18.035156 9.34375 17.972656 9.308594 17.910156 9.269531 C 17.890625 9.257812 17.875 9.246094 17.855469 9.238281 C 17.847656 9.195312 17.835938 9.152344 17.824219 9.109375 C 17.824219 9.109375 17.824219 9.105469 17.828125 9.105469 C 17.820312 9.085938 17.8125 9.0625 17.804688 9.042969 C 17.691406 8.644531 17.546875 8.257812 17.375 7.890625 C 17.347656 7.796875 17.304688 7.703125 17.242188 7.617188 C 17.242188 7.617188 17.242188 7.621094 17.246094 7.628906 C 17.15625 7.464844 17.066406 7.300781 16.96875 7.140625 C 16.976562 7.132812 16.988281 7.121094 16.996094 7.105469 C 16.933594 7.007812 16.855469 6.921875 16.773438 6.847656 C 16.183594 5.984375 15.414062 5.257812 14.527344 4.726562 C 14.527344 4.726562 14.527344 4.726562 14.53125 4.726562 C 14.527344 4.726562 14.527344 4.726562 14.527344 4.726562 C 14.457031 4.683594 14.386719 4.644531 14.3125 4.605469 C 14.339844 4.574219 14.367188 4.542969 14.398438 4.511719 C 14.550781 4.347656 14.707031 4.171875 14.398438 4.039062 C 14.515625 4.1875 14.460938 4.320312 14.359375 4.394531 C 14.253906 4.472656 14.105469 4.492188 14.007812 4.421875 C 14.007812 4.425781 14.007812 4.4375 14.007812 4.445312 C 13.964844 4.425781 13.921875 4.402344 13.878906 4.382812 C 13.984375 4.347656 14 4.28125 13.964844 4.210938 C 13.925781 4.140625 13.824219 4.0625 13.703125 4.039062 C 13.753906 4.0625 13.792969 4.089844 13.824219 4.121094 C 13.851562 4.152344 13.875 4.1875 13.886719 4.222656 C 13.910156 4.28125 13.898438 4.339844 13.867188 4.378906 C 13.804688 4.347656 13.738281 4.320312 13.671875 4.292969 C 13.660156 4.28125 13.644531 4.269531 13.632812 4.261719 C 13.652344 4.25 13.675781 4.234375 13.703125 4.210938 C 13.773438 4.085938 13.652344 3.949219 13.476562 3.816406 C 13.390625 3.753906 13.292969 3.6875 13.199219 3.625 C 13.105469 3.5625 13.019531 3.503906 12.964844 3.441406 C 12.839844 3.425781 12.769531 3.445312 12.722656 3.484375 C 12.671875 3.519531 12.644531 3.578125 12.589844 3.648438 C 12.578125 3.5625 12.511719 3.492188 12.445312 3.425781 C 12.378906 3.363281 12.3125 3.296875 12.292969 3.210938 C 12.15625 3.242188 12.039062 3.242188 11.933594 3.222656 C 11.832031 3.207031 11.734375 3.167969 11.636719 3.136719 C 11.542969 3.105469 11.445312 3.074219 11.339844 3.066406 C 11.304688 3.0625 11.273438 3.066406 11.238281 3.066406 C 11.238281 3.070312 11.234375 3.070312 11.230469 3.070312 C 11.15625 3.074219 11.074219 3.09375 10.988281 3.132812 C 10.964844 3.101562 10.957031 3.078125 10.960938 3.0625 C 10.9375 3.0625 10.921875 3.0625 10.921875 3.0625 L 10.953125 3.097656 C 10.859375 3.15625 10.746094 3.1875 10.621094 3.203125 C 10.582031 3.207031 10.535156 3.210938 10.492188 3.210938 C 10.53125 3.222656 10.570312 3.234375 10.605469 3.25 C 10.632812 3.261719 10.65625 3.277344 10.679688 3.289062 C 10.613281 3.292969 10.523438 3.304688 10.4375 3.316406 C 10.3125 3.332031 10.1875 3.351562 10.117188 3.363281 C 10.105469 3.339844 10.09375 3.316406 10.078125 3.289062 C 10.050781 3.242188 10.023438 3.195312 10.015625 3.183594 C 9.902344 3.164062 9.796875 3.144531 9.710938 3.121094 C 9.769531 3.144531 9.8125 3.179688 9.835938 3.214844 C 9.855469 3.246094 9.859375 3.273438 9.851562 3.300781 C 9.832031 3.300781 9.8125 3.300781 9.792969 3.304688 C 9.753906 3.304688 9.714844 3.308594 9.671875 3.308594 C 9.664062 3.300781 9.65625 3.292969 9.644531 3.28125 C 9.589844 3.230469 9.53125 3.175781 9.53125 3.175781 C 9.53125 3.175781 9.503906 3.203125 9.464844 3.246094 C 9.445312 3.265625 9.421875 3.292969 9.398438 3.320312 C 9.257812 3.328125 9.121094 3.335938 8.988281 3.339844 C 8.816406 3.355469 8.648438 3.371094 8.492188 3.398438 C 8.363281 3.429688 8.242188 3.460938 8.136719 3.503906 C 8.183594 3.460938 8.246094 3.433594 8.3125 3.410156 C 8.417969 3.375 8.519531 3.339844 8.523438 3.234375 C 8.480469 3.15625 8.265625 3.171875 8.183594 3.140625 C 8.199219 3.324219 8.089844 3.378906 8.007812 3.425781 C 7.921875 3.472656 7.871094 3.515625 8.003906 3.683594 C 7.992188 3.710938 7.996094 3.734375 8.015625 3.75 C 7.960938 3.765625 7.914062 3.78125 7.863281 3.796875 C 7.839844 3.804688 7.8125 3.8125 7.785156 3.820312 C 7.796875 3.824219 7.808594 3.824219 7.820312 3.828125 C 7.871094 3.832031 7.933594 3.808594 8.03125 3.757812 C 8.0625 3.769531 8.125 3.765625 8.230469 3.742188 C 8.105469 3.867188 7.941406 3.914062 7.765625 3.914062 C 7.695312 3.917969 7.625 3.917969 7.558594 3.914062 C 7.570312 3.90625 7.585938 3.898438 7.601562 3.890625 C 7.667969 3.859375 7.726562 3.839844 7.785156 3.820312 C 7.753906 3.808594 7.726562 3.789062 7.699219 3.769531 C 7.625 3.714844 7.546875 3.652344 7.308594 3.792969 C 7.308594 3.792969 7.304688 3.84375 7.300781 3.90625 C 7.277344 3.90625 7.257812 3.902344 7.234375 3.902344 C 7.234375 3.902344 7.246094 3.882812 7.261719 3.855469 C 7.28125 3.824219 7.304688 3.785156 7.328125 3.746094 C 7.375 3.667969 7.425781 3.589844 7.425781 3.589844 C 6.992188 3.742188 6.5 3.847656 6.027344 4.023438 C 5.558594 4.195312 5.121094 4.433594 4.839844 4.777344 L 5.0625 4.84375 C 5.027344 4.875 4.988281 4.90625 4.949219 4.9375 C 4.914062 4.96875 4.875 5 4.839844 5.03125 C 4.761719 5.089844 4.683594 5.148438 4.609375 5.199219 C 4.457031 5.3125 4.304688 5.414062 4.167969 5.515625 C 4.03125 5.621094 3.898438 5.714844 3.796875 5.816406 C 3.695312 5.921875 3.609375 6.019531 3.5625 6.125 C 3.863281 6.027344 3.824219 6.136719 3.707031 6.28125 C 3.679688 6.320312 3.644531 6.359375 3.613281 6.402344 C 3.601562 6.40625 3.589844 6.410156 3.578125 6.414062 L 3.59375 6.425781 C 3.496094 6.542969 3.398438 6.660156 3.386719 6.726562 C 3.441406 6.683594 3.496094 6.632812 3.550781 6.578125 C 3.585938 6.542969 3.621094 6.507812 3.652344 6.46875 L 3.71875 6.515625 C 3.574219 6.691406 3.484375 6.800781 3.417969 6.867188 C 3.355469 6.933594 3.320312 6.964844 3.285156 6.988281 C 3.25 7.011719 3.21875 7.03125 3.164062 7.082031 C 3.140625 7.109375 3.105469 7.144531 3.066406 7.191406 C 3.027344 7.242188 2.984375 7.304688 2.925781 7.386719 C 2.925781 7.386719 2.945312 7.460938 2.964844 7.535156 C 2.976562 7.570312 2.984375 7.605469 2.992188 7.632812 C 3 7.660156 3.003906 7.679688 3.003906 7.679688 C 3.019531 7.707031 3.039062 7.527344 3.085938 7.355469 C 3.128906 7.179688 3.210938 7.019531 3.320312 7.085938 C 3.3125 7.152344 3.300781 7.21875 3.285156 7.28125 C 3.269531 7.347656 3.257812 7.417969 3.238281 7.484375 C 3.222656 7.554688 3.203125 7.621094 3.183594 7.691406 C 3.164062 7.761719 3.148438 7.832031 3.128906 7.902344 C 3.113281 7.972656 3.097656 8.042969 3.082031 8.117188 C 3.066406 8.1875 3.058594 8.261719 3.050781 8.332031 C 3.042969 8.402344 3.035156 8.472656 3.035156 8.542969 C 3.035156 8.613281 3.039062 8.683594 3.046875 8.753906 C 3.046875 8.753906 2.964844 8.628906 2.890625 8.496094 C 2.84375 8.417969 2.800781 8.339844 2.773438 8.289062 C 2.808594 8.390625 2.726562 8.480469 2.625 8.601562 C 2.5625 8.671875 2.492188 8.75 2.429688 8.847656 C 2.375 8.945312 2.328125 9.058594 2.308594 9.191406 C 2.308594 9.191406 2.371094 9.089844 2.429688 8.984375 C 2.460938 8.933594 2.488281 8.882812 2.511719 8.847656 C 2.535156 8.808594 2.550781 8.785156 2.550781 8.785156 C 2.621094 8.902344 2.644531 9.035156 2.636719 9.183594 C 2.625 9.328125 2.597656 9.488281 2.558594 9.652344 C 2.550781 9.695312 2.542969 9.734375 2.53125 9.777344 C 2.523438 9.820312 2.515625 9.863281 2.511719 9.90625 C 2.496094 9.988281 2.484375 10.074219 2.472656 10.160156 C 2.460938 10.332031 2.472656 10.496094 2.519531 10.644531 C 2.53125 10.488281 2.546875 10.328125 2.667969 10.316406 C 2.679688 10.328125 2.6875 10.347656 2.695312 10.363281 C 2.695312 10.421875 2.699219 10.433594 2.710938 10.425781 C 2.722656 10.492188 2.714844 10.566406 2.703125 10.644531 C 2.683594 10.777344 2.644531 10.921875 2.605469 11.03125 C 2.589844 11.027344 2.574219 11.023438 2.5625 11.015625 C 2.542969 10.910156 2.550781 10.804688 2.621094 10.660156 C 2.621094 10.660156 2.5625 10.671875 2.5 10.683594 C 2.4375 10.695312 2.378906 10.703125 2.378906 10.703125 C 2.378906 10.730469 2.382812 10.753906 2.382812 10.777344 C 2.335938 10.640625 2.328125 10.472656 2.316406 10.308594 C 2.304688 9.984375 2.316406 9.683594 2.132812 9.730469 C 2.101562 9.902344 2.105469 10.074219 2.128906 10.238281 C 2.160156 10.402344 2.207031 10.554688 2.257812 10.699219 C 2.308594 10.84375 2.359375 10.976562 2.390625 11.097656 C 2.425781 11.21875 2.441406 11.332031 2.414062 11.433594 C 2.414062 11.433594 2.351562 11.351562 2.285156 11.269531 C 2.25 11.230469 2.21875 11.1875 2.195312 11.15625 C 2.167969 11.125 2.15625 11.101562 2.15625 11.101562 C 2.15625 11.101562 2.160156 11.121094 2.167969 11.152344 C 2.175781 11.183594 2.1875 11.226562 2.199219 11.265625 C 2.21875 11.351562 2.242188 11.433594 2.242188 11.433594 L 2.257812 11.335938 C 2.363281 11.402344 2.359375 11.503906 2.34375 11.628906 C 2.328125 11.746094 2.296875 11.886719 2.339844 12.015625 C 2.339844 12.015625 2.273438 11.976562 2.203125 11.941406 C 2.136719 11.902344 2.070312 11.863281 2.070312 11.863281 C 2.070312 11.863281 2.070312 11.894531 2.074219 11.941406 C 2.078125 11.988281 2.082031 12.050781 2.085938 12.113281 C 2.101562 12.234375 2.113281 12.359375 2.113281 12.359375 L 2.175781 12.289062 C 2.382812 13.070312 2.507812 13.730469 2.609375 14.472656 C 2.609375 14.472656 2.605469 14.445312 2.601562 14.40625 C 2.597656 14.363281 2.589844 14.308594 2.585938 14.253906 C 2.578125 14.144531 2.570312 14.03125 2.570312 14.03125 C 2.632812 14.050781 2.714844 14.265625 2.75 14.460938 C 2.816406 14.402344 2.785156 14.257812 2.769531 14.121094 C 2.753906 14.011719 2.742188 13.90625 2.78125 13.875 C 2.8125 14.070312 2.855469 14.265625 2.902344 14.457031 C 2.90625 14.503906 2.910156 14.550781 2.910156 14.59375 C 2.910156 14.699219 2.917969 14.800781 2.929688 14.921875 C 2.9375 14.984375 2.945312 15.046875 2.957031 15.121094 C 2.972656 15.191406 2.988281 15.269531 3.015625 15.351562 C 3.058594 15.359375 3.09375 15.28125 3.132812 15.207031 C 3.179688 15.335938 3.230469 15.460938 3.285156 15.585938 C 3.246094 15.617188 3.179688 15.613281 3.070312 15.546875 C 3.257812 15.722656 3.261719 15.824219 3.273438 15.914062 C 3.289062 16 3.308594 16.070312 3.519531 16.160156 C 3.484375 16.128906 3.457031 16.0625 3.433594 15.992188 C 3.4375 15.972656 3.445312 15.960938 3.453125 15.949219 C 3.542969 16.128906 3.636719 16.304688 3.742188 16.476562 C 3.742188 16.625 3.769531 16.773438 3.890625 16.964844 C 3.890625 16.964844 3.925781 16.996094 3.980469 17.042969 C 4.035156 17.09375 4.113281 17.152344 4.1875 17.214844 C 4.242188 17.261719 4.300781 17.308594 4.351562 17.347656 C 4.390625 17.394531 4.429688 17.441406 4.472656 17.488281 C 4.453125 17.507812 4.425781 17.511719 4.425781 17.511719 C 4.496094 17.570312 4.566406 17.632812 4.632812 17.695312 C 4.699219 17.757812 4.769531 17.820312 4.835938 17.882812 C 4.84375 17.894531 4.855469 17.90625 4.867188 17.914062 C 4.882812 17.933594 4.898438 17.949219 4.914062 17.964844 C 4.917969 18 4.941406 18.03125 4.988281 18.058594 C 5.007812 18.070312 5.027344 18.078125 5.042969 18.085938 C 5.042969 18.085938 5.046875 18.089844 5.046875 18.089844 C 5.109375 18.148438 5.167969 18.203125 5.226562 18.257812 C 5.359375 18.375 5.488281 18.488281 5.617188 18.582031 C 5.664062 18.613281 5.710938 18.640625 5.757812 18.667969 C 5.941406 18.800781 6.132812 18.925781 6.328125 19.039062 C 6.328125 19.039062 6.328125 19.039062 6.328125 19.042969 C 6.34375 19.050781 6.359375 19.058594 6.375 19.066406 C 6.460938 19.113281 6.542969 19.15625 6.625 19.199219 C 6.558594 19.214844 6.5 19.226562 6.5 19.226562 C 6.910156 19.433594 7.332031 19.726562 7.785156 19.945312 C 8.234375 20.164062 8.707031 20.320312 9.140625 20.28125 L 9.027344 20.070312 C 9.078125 20.074219 9.125 20.082031 9.171875 20.085938 C 9.21875 20.09375 9.269531 20.097656 9.316406 20.105469 C 9.410156 20.117188 9.503906 20.132812 9.59375 20.152344 C 9.777344 20.183594 9.953125 20.222656 10.121094 20.253906 C 10.289062 20.277344 10.445312 20.308594 10.589844 20.308594 C 10.730469 20.3125 10.859375 20.300781 10.964844 20.265625 C 10.6875 20.113281 10.789062 20.066406 10.96875 20.046875 C 11.152344 20.019531 11.425781 20.023438 11.5 19.96875 C 11.429688 19.960938 11.359375 19.953125 11.28125 19.953125 C 11.207031 19.949219 11.128906 19.953125 11.050781 19.960938 C 10.894531 19.972656 10.738281 19.984375 10.597656 20.003906 C 10.351562 20.027344 10.15625 20.046875 10.113281 20.027344 L 10.128906 20.050781 C 10.128906 20.050781 10.066406 20.058594 9.96875 20.0625 C 9.871094 20.066406 9.742188 20.074219 9.613281 20.078125 C 9.484375 20.074219 9.355469 20.074219 9.257812 20.074219 C 9.207031 20.074219 9.167969 20.074219 9.136719 20.070312 C 9.109375 20.070312 9.09375 20.070312 9.09375 20.070312 L 9.125 19.9375 C 9.96875 20.023438 10.824219 19.949219 11.648438 19.722656 C 11.726562 19.699219 11.808594 19.675781 11.886719 19.652344 C 11.886719 19.691406 11.886719 19.734375 11.890625 19.78125 C 11.890625 20.007812 11.898438 20.246094 12.210938 20.113281 C 12.023438 20.097656 11.972656 19.960938 11.996094 19.832031 C 12.015625 19.699219 12.109375 19.578125 12.226562 19.558594 C 12.222656 19.554688 12.214844 19.546875 12.207031 19.539062 C 12.253906 19.523438 12.296875 19.507812 12.339844 19.492188 C 12.292969 19.589844 12.324219 19.652344 12.398438 19.671875 C 12.460938 19.691406 12.546875 19.683594 12.632812 19.644531 C 12.730469 19.671875 12.699219 19.699219 12.625 19.730469 C 12.550781 19.761719 12.429688 19.796875 12.390625 19.839844 C 12.804688 19.894531 12.640625 19.726562 12.742188 19.605469 C 12.816406 19.617188 12.910156 19.613281 13.011719 19.597656 C 13.117188 19.578125 13.234375 19.550781 13.339844 19.527344 C 13.429688 19.507812 13.515625 19.492188 13.589844 19.484375 C 13.558594 19.519531 13.550781 19.574219 13.5625 19.675781 C 13.5625 19.675781 13.660156 19.648438 13.757812 19.621094 C 13.804688 19.605469 13.855469 19.589844 13.890625 19.582031 C 13.929688 19.570312 13.953125 19.5625 13.953125 19.5625 C 14.007812 19.734375 14.03125 19.820312 13.78125 19.886719 C 13.863281 19.933594 14.050781 19.757812 14.15625 19.675781 L 14.0625 19.691406 C 14.09375 19.621094 14.179688 19.542969 14.25 19.46875 C 14.074219 19.527344 13.886719 19.476562 13.75 19.457031 C 13.722656 19.453125 13.695312 19.449219 13.671875 19.453125 C 13.742188 19.386719 13.765625 19.332031 13.773438 19.277344 C 13.785156 19.214844 13.765625 19.152344 13.757812 19.066406 C 13.824219 19.113281 13.917969 19.117188 14.007812 19.117188 C 14.101562 19.113281 14.195312 19.109375 14.265625 19.15625 C 14.339844 19.035156 14.421875 18.949219 14.507812 18.886719 C 14.59375 18.820312 14.6875 18.777344 14.777344 18.730469 C 14.867188 18.679688 14.957031 18.632812 15.039062 18.558594 C 15.0625 18.539062 15.085938 18.511719 15.109375 18.484375 C 15.105469 18.484375 15.109375 18.484375 15.113281 18.480469 C 15.160156 18.417969 15.203125 18.347656 15.238281 18.257812 C 15.277344 18.261719 15.296875 18.273438 15.308594 18.285156 C 15.324219 18.269531 15.332031 18.257812 15.332031 18.257812 L 15.289062 18.253906 C 15.316406 18.144531 15.375 18.039062 15.453125 17.941406 C 15.476562 17.90625 15.507812 17.871094 15.535156 17.835938 C 15.5 17.859375 15.464844 17.875 15.429688 17.894531 C 15.25 17.96875 15.066406 18.011719 14.886719 18.03125 C 14.777344 18.046875 14.675781 18.058594 14.582031 18.070312 C 14.667969 17.992188 14.75 17.910156 14.832031 17.824219 C 14.882812 17.859375 14.929688 17.894531 14.929688 17.894531 C 15.007812 17.800781 15.070312 17.707031 15.132812 17.609375 C 15.1875 17.515625 15.238281 17.414062 15.285156 17.3125 C 15.441406 17.117188 15.589844 16.914062 15.722656 16.707031 L 15.753906 16.730469 C 15.753906 16.703125 15.796875 16.640625 15.875 16.542969 C 15.910156 16.496094 15.957031 16.4375 16.011719 16.375 C 16.0625 16.3125 16.117188 16.238281 16.179688 16.160156 C 16.183594 16.160156 16.183594 16.15625 16.1875 16.152344 C 16.710938 15.566406 17.148438 14.890625 17.46875 14.148438 C 17.472656 14.148438 17.472656 14.144531 17.476562 14.144531 C 17.511719 14.117188 17.550781 14.089844 17.574219 14.09375 C 17.597656 14.101562 17.605469 14.140625 17.582031 14.25 C 17.585938 14.3125 17.621094 14.152344 17.625 13.964844 C 17.628906 13.902344 17.625 13.832031 17.621094 13.773438 C 17.640625 13.714844 17.660156 13.660156 17.679688 13.601562 C 17.71875 13.679688 17.789062 13.722656 17.925781 13.714844 C 17.933594 13.503906 17.925781 13.332031 17.871094 13.269531 L 17.921875 13.304688 C 17.921875 13.304688 17.890625 13.207031 17.839844 13.074219 C 17.871094 12.957031 17.902344 12.835938 17.925781 12.714844 C 17.984375 12.824219 18.058594 12.890625 18.160156 12.835938 C 18.160156 12.835938 18.117188 12.738281 18.070312 12.640625 C 18.050781 12.59375 18.027344 12.546875 18.007812 12.511719 C 17.992188 12.476562 17.976562 12.453125 17.976562 12.453125 C 18.1875 12.585938 18.128906 12.082031 18.285156 12.175781 C 18.285156 12.175781 18.285156 12.160156 18.277344 12.132812 C 18.273438 12.105469 18.265625 12.0625 18.253906 12.015625 C 18.234375 11.917969 18.210938 11.785156 18.175781 11.660156 C 18.144531 11.535156 18.117188 11.414062 18.089844 11.324219 C 18.089844 11.261719 18.09375 11.199219 18.09375 11.136719 L 18.238281 11.09375 C 18.238281 11.09375 18.222656 11.160156 18.207031 11.226562 C 18.199219 11.257812 18.191406 11.292969 18.183594 11.316406 C 18.175781 11.339844 18.171875 11.355469 18.171875 11.355469 C 18.296875 11.417969 18.351562 11.417969 18.367188 11.375 C 18.386719 11.335938 18.363281 11.253906 18.328125 11.152344 Z M 3.820312 8.042969 C 3.84375 7.972656 3.867188 7.90625 3.882812 7.839844 C 3.886719 7.824219 3.890625 7.808594 3.890625 7.792969 C 3.949219 7.753906 4.003906 7.769531 4.046875 7.910156 C 4.046875 7.910156 3.960938 7.988281 3.878906 8.070312 C 3.835938 8.113281 3.792969 8.160156 3.761719 8.191406 C 3.785156 8.144531 3.804688 8.09375 3.820312 8.042969 Z M 3.9375 7.589844 C 3.949219 7.539062 3.957031 7.492188 3.96875 7.445312 C 3.980469 7.410156 3.988281 7.375 4 7.339844 C 4.015625 7.457031 3.988281 7.53125 3.9375 7.589844 Z M 4.328125 7.691406 C 4.359375 7.6875 4.398438 7.691406 4.441406 7.710938 C 4.402344 7.761719 4.359375 7.808594 4.320312 7.859375 C 4.320312 7.828125 4.324219 7.796875 4.324219 7.765625 C 4.324219 7.742188 4.328125 7.714844 4.328125 7.691406 Z M 3.335938 9.359375 C 3.347656 9.269531 3.347656 9.171875 3.339844 9.070312 C 3.339844 8.9375 3.328125 8.800781 3.320312 8.679688 C 3.320312 8.664062 3.320312 8.648438 3.320312 8.636719 C 3.339844 8.59375 3.359375 8.558594 3.378906 8.535156 C 3.359375 8.542969 3.339844 8.550781 3.324219 8.558594 C 3.328125 8.488281 3.335938 8.425781 3.351562 8.378906 C 3.363281 8.421875 3.421875 8.339844 3.488281 8.25 C 3.554688 8.273438 3.625 8.171875 3.695312 8.054688 C 3.726562 8.0625 3.742188 8.105469 3.734375 8.222656 C 3.722656 8.230469 3.71875 8.238281 3.71875 8.238281 C 3.722656 8.238281 3.726562 8.234375 3.730469 8.234375 C 3.730469 8.242188 3.730469 8.25 3.730469 8.253906 C 3.734375 8.25 3.738281 8.242188 3.742188 8.234375 C 3.859375 8.230469 3.933594 8.183594 3.992188 8.125 C 4.054688 8.066406 4.09375 7.984375 4.128906 7.90625 C 4.160156 7.835938 4.195312 7.773438 4.238281 7.734375 C 4.234375 7.738281 4.234375 7.742188 4.234375 7.746094 C 4.214844 7.808594 4.195312 7.871094 4.175781 7.9375 C 4.160156 7.996094 4.144531 8.054688 4.128906 8.109375 C 4.097656 8.148438 4.066406 8.191406 4.039062 8.230469 C 4.03125 8.234375 4.023438 8.234375 4.019531 8.234375 C 4.019531 8.246094 4.019531 8.25 4.019531 8.257812 C 3.769531 8.617188 3.550781 8.996094 3.371094 9.390625 C 3.359375 9.382812 3.347656 9.371094 3.335938 9.359375 Z M 17.945312 9.484375 C 18.03125 9.628906 18.078125 9.789062 17.984375 9.835938 C 17.957031 9.6875 17.929688 9.539062 17.894531 9.394531 C 17.914062 9.421875 17.929688 9.453125 17.945312 9.484375 Z M 13.625 4.273438 C 13.621094 4.269531 13.617188 4.269531 13.613281 4.265625 C 13.613281 4.265625 13.617188 4.265625 13.617188 4.265625 C 13.621094 4.265625 13.625 4.269531 13.625 4.273438 Z M 13.449219 4.121094 C 13.441406 4.113281 13.433594 4.105469 13.421875 4.097656 C 13.421875 4.097656 13.433594 4.109375 13.449219 4.121094 C 13.457031 4.128906 13.460938 4.140625 13.46875 4.148438 C 13.484375 4.175781 13.503906 4.207031 13.523438 4.230469 C 13.441406 4.195312 13.355469 4.164062 13.269531 4.132812 C 13.351562 4.011719 13.402344 4.050781 13.449219 4.121094 Z M 10.09375 3.367188 C 10.070312 3.371094 10.058594 3.371094 10.058594 3.371094 C 10.050781 3.359375 10.046875 3.347656 10.046875 3.335938 C 10.0625 3.347656 10.078125 3.355469 10.09375 3.367188 Z M 9.9375 3.257812 C 9.9375 3.257812 9.953125 3.273438 9.980469 3.289062 C 9.964844 3.292969 9.949219 3.292969 9.933594 3.296875 C 9.933594 3.285156 9.933594 3.273438 9.9375 3.257812 Z M 6.109375 4.269531 C 6.09375 4.28125 6.078125 4.296875 6.0625 4.308594 C 6.058594 4.304688 6.058594 4.300781 6.054688 4.296875 C 6.074219 4.285156 6.09375 4.277344 6.109375 4.269531 Z M 5.65625 4.628906 C 5.703125 4.613281 5.75 4.601562 5.792969 4.589844 C 5.75 4.644531 5.726562 4.691406 5.722656 4.730469 L 5.714844 4.667969 C 5.714844 4.667969 5.664062 4.765625 5.609375 4.902344 C 5.550781 5.039062 5.496094 5.226562 5.472656 5.394531 C 5.507812 5.285156 5.585938 5.183594 5.667969 5.089844 C 5.757812 5 5.855469 4.914062 5.933594 4.835938 C 6.054688 4.71875 6.136719 4.609375 6.074219 4.484375 C 6.121094 4.445312 6.132812 4.402344 6.089844 4.339844 C 6.164062 4.316406 6.222656 4.285156 6.273438 4.238281 C 6.355469 4.246094 6.417969 4.285156 6.464844 4.339844 C 6.433594 4.363281 6.40625 4.390625 6.375 4.421875 C 6.242188 4.542969 6.117188 4.707031 6.148438 4.773438 C 6.207031 4.761719 6.265625 4.652344 6.335938 4.582031 C 6.40625 4.503906 6.484375 4.453125 6.574219 4.542969 C 6.765625 4.433594 6.691406 4.421875 6.601562 4.402344 C 6.609375 4.398438 6.613281 4.394531 6.621094 4.390625 C 6.683594 4.347656 6.769531 4.292969 6.851562 4.238281 C 6.9375 4.179688 7.023438 4.128906 7.089844 4.089844 C 7.15625 4.054688 7.199219 4.027344 7.199219 4.027344 C 7.316406 4.101562 7.234375 4.410156 7.144531 4.417969 C 7.074219 4.441406 6.996094 4.484375 6.914062 4.535156 C 6.832031 4.585938 6.746094 4.636719 6.660156 4.683594 C 6.492188 4.785156 6.3125 4.851562 6.125 4.800781 C 6.046875 4.925781 6.128906 4.964844 6.171875 5.011719 C 6.21875 5.058594 6.21875 5.105469 6 5.261719 C 5.6875 5.3125 5.394531 5.457031 5.125 5.636719 C 5.132812 5.535156 5.191406 5.394531 5.242188 5.261719 C 5.320312 5.066406 5.382812 4.878906 5.222656 4.828125 C 5.222656 4.828125 5.1875 4.929688 5.152344 5.027344 C 5.144531 5.046875 5.140625 5.066406 5.132812 5.085938 C 5.050781 4.847656 5.363281 4.710938 5.65625 4.628906 Z M 4.898438 5.007812 C 4.933594 4.972656 4.964844 4.945312 4.984375 4.925781 C 5.007812 4.90625 5.019531 4.894531 5.019531 4.894531 L 5.132812 5.09375 C 5.125 5.121094 5.117188 5.144531 5.109375 5.167969 C 5.097656 5.207031 5.089844 5.230469 5.089844 5.230469 C 5.035156 4.996094 4.757812 5.34375 4.691406 5.21875 C 4.769531 5.140625 4.84375 5.066406 4.898438 5.007812 Z M 4.300781 5.664062 C 4.300781 5.664062 4.339844 5.613281 4.40625 5.539062 C 4.464844 5.472656 4.542969 5.382812 4.625 5.289062 C 4.617188 5.304688 4.605469 5.320312 4.59375 5.339844 C 4.542969 5.421875 4.46875 5.53125 4.40625 5.648438 C 4.34375 5.761719 4.277344 5.875 4.234375 5.960938 C 4.1875 6.050781 4.160156 6.109375 4.160156 6.109375 L 4.015625 6.023438 C 4.039062 5.992188 4.0625 5.960938 4.085938 5.933594 C 4.085938 5.933594 4.089844 5.933594 4.09375 5.929688 C 4.121094 5.914062 4.148438 5.898438 4.167969 5.882812 C 4.191406 5.871094 4.207031 5.863281 4.207031 5.863281 C 4.199219 5.84375 4.191406 5.828125 4.183594 5.8125 C 4.25 5.730469 4.300781 5.679688 4.328125 5.667969 Z M 2.917969 9.671875 C 3.046875 9.265625 3.015625 9.820312 3.167969 9.667969 C 3.203125 9.648438 3.230469 9.621094 3.253906 9.59375 C 3.253906 9.613281 3.253906 9.628906 3.253906 9.648438 C 3.203125 9.78125 3.152344 9.910156 3.105469 10.042969 C 3.058594 10.066406 3.015625 10.046875 2.980469 10 C 2.960938 9.964844 2.941406 9.917969 2.929688 9.863281 C 2.917969 9.808594 2.914062 9.742188 2.917969 9.671875 Z M 7.855469 19.691406 C 7.890625 19.703125 7.921875 19.710938 7.957031 19.722656 C 7.957031 19.726562 7.953125 19.730469 7.953125 19.734375 C 7.917969 19.722656 7.882812 19.707031 7.855469 19.691406 Z M 8.605469 19.867188 C 8.761719 19.894531 8.917969 19.917969 9.074219 19.933594 C 8.964844 20.011719 8.785156 19.957031 8.605469 19.867188 Z M 12.621094 19.628906 C 12.597656 19.632812 12.578125 19.632812 12.558594 19.632812 C 12.515625 19.632812 12.480469 19.625 12.449219 19.609375 C 12.390625 19.582031 12.359375 19.539062 12.355469 19.484375 C 12.441406 19.453125 12.527344 19.414062 12.609375 19.378906 C 12.597656 19.402344 12.585938 19.433594 12.585938 19.484375 C 12.597656 19.535156 12.632812 19.570312 12.679688 19.589844 C 12.660156 19.597656 12.636719 19.609375 12.621094 19.628906 Z M 12.792969 19.355469 C 12.761719 19.347656 12.726562 19.339844 12.699219 19.339844 C 12.78125 19.300781 12.859375 19.261719 12.941406 19.222656 C 12.972656 19.386719 12.886719 19.375 12.792969 19.355469 Z M 12.792969 19.355469 " fill-opacity="1" fill-rule="nonzero"/></g><path fill="#e2a002" d="M 11.648438 19.726562 C 11.648438 19.757812 11.648438 19.777344 11.648438 19.777344 C 11.65625 19.757812 11.65625 19.742188 11.648438 19.726562 Z M 11.648438 19.726562 " fill-opacity="1" fill-rule="nonzero"/><path fill="#006a75" d="M 6.730469 16.671875 C 6.730469 16.667969 6.730469 16.667969 6.730469 16.664062 C 6.734375 16.636719 6.734375 16.609375 6.734375 16.582031 C 6.734375 16.578125 6.734375 16.574219 6.734375 16.570312 C 6.734375 16.539062 6.734375 16.507812 6.730469 16.472656 C 6.730469 16.472656 6.730469 16.46875 6.730469 16.464844 C 6.730469 16.429688 6.726562 16.394531 6.726562 16.355469 C 6.726562 16.355469 6.726562 16.351562 6.722656 16.351562 C 6.722656 16.3125 6.714844 16.273438 6.710938 16.230469 C 6.699219 16.152344 6.683594 16.070312 6.664062 15.988281 C 6.65625 15.941406 6.640625 15.890625 6.625 15.839844 C 6.585938 15.710938 6.53125 15.5625 6.445312 15.40625 C 6.445312 15.40625 6.449219 15.402344 6.449219 15.398438 C 6.449219 15.375 6.453125 15.34375 6.460938 15.300781 C 6.472656 15.214844 6.488281 15.09375 6.515625 14.945312 C 6.542969 14.800781 6.578125 14.632812 6.625 14.449219 C 6.648438 14.359375 6.671875 14.269531 6.699219 14.175781 C 6.710938 14.128906 6.726562 14.082031 6.742188 14.035156 C 6.753906 13.988281 6.769531 13.941406 6.785156 13.890625 C 6.816406 13.796875 6.851562 13.707031 6.882812 13.613281 C 6.914062 13.519531 6.953125 13.433594 6.988281 13.347656 C 7.023438 13.261719 7.0625 13.179688 7.09375 13.101562 C 7.113281 13.0625 7.128906 13.027344 7.148438 12.988281 C 7.164062 12.953125 7.183594 12.917969 7.199219 12.886719 C 7.234375 12.820312 7.261719 12.757812 7.292969 12.707031 C 7.320312 12.65625 7.347656 12.609375 7.367188 12.570312 C 7.410156 12.496094 7.433594 12.453125 7.433594 12.453125 C 7.433594 12.453125 7.40625 12.496094 7.363281 12.566406 C 7.339844 12.605469 7.3125 12.648438 7.28125 12.699219 C 7.246094 12.75 7.214844 12.8125 7.179688 12.875 C 7.160156 12.90625 7.140625 12.941406 7.121094 12.976562 C 7.101562 13.011719 7.085938 13.046875 7.066406 13.085938 C 7.027344 13.164062 6.984375 13.242188 6.945312 13.328125 C 6.90625 13.410156 6.863281 13.5 6.828125 13.589844 C 6.792969 13.679688 6.75 13.773438 6.71875 13.867188 C 6.699219 13.914062 6.683594 13.957031 6.664062 14.003906 C 6.648438 14.050781 6.632812 14.097656 6.617188 14.144531 C 6.582031 14.238281 6.554688 14.332031 6.527344 14.421875 C 6.472656 14.601562 6.429688 14.773438 6.394531 14.917969 C 6.367188 15.035156 6.347656 15.136719 6.332031 15.21875 C 6.238281 15.082031 6.121094 14.945312 5.976562 14.824219 C 5.957031 14.804688 5.933594 14.789062 5.910156 14.769531 C 5.902344 14.765625 5.894531 14.761719 5.890625 14.753906 C 5.871094 14.742188 5.855469 14.730469 5.839844 14.71875 C 5.832031 14.714844 5.820312 14.707031 5.8125 14.699219 C 5.796875 14.691406 5.78125 14.679688 5.765625 14.671875 C 5.757812 14.664062 5.746094 14.660156 5.734375 14.652344 C 5.726562 14.648438 5.722656 14.644531 5.714844 14.636719 C 5.71875 14.492188 5.738281 14.347656 5.765625 14.210938 C 5.953125 13.300781 6.597656 12.761719 6.863281 12.570312 C 7.183594 12.335938 7.464844 12.238281 7.59375 12.199219 C 7.621094 12.335938 7.667969 12.652344 7.714844 13.011719 C 7.777344 13.523438 7.835938 14.117188 7.722656 14.664062 C 7.605469 15.210938 7.316406 15.722656 7.054688 16.160156 C 6.914062 16.382812 6.800781 16.5625 6.730469 16.671875 " fill-opacity="1" fill-rule="nonzero"/><g clip-path="url(#2616a893fb)"><path fill="#006a75" d="M 7.214844 17.34375 C 7.039062 17.214844 6.867188 17.074219 6.703125 16.921875 C 6.703125 16.917969 6.703125 16.914062 6.707031 16.910156 C 6.707031 16.90625 6.707031 16.90625 6.707031 16.902344 C 6.707031 16.898438 6.707031 16.894531 6.707031 16.890625 C 6.710938 16.886719 6.710938 16.882812 6.710938 16.878906 C 6.710938 16.867188 6.714844 16.859375 6.714844 16.847656 C 6.714844 16.847656 6.714844 16.84375 6.714844 16.84375 C 6.714844 16.835938 6.71875 16.828125 6.71875 16.820312 C 6.902344 16.972656 7.089844 17.117188 7.277344 17.246094 C 7.675781 17.507812 8.101562 17.726562 8.546875 17.890625 C 9 18.0625 9.496094 18.175781 10.015625 18.226562 C 10.066406 18.234375 10.117188 18.234375 10.164062 18.238281 L 10.398438 18.25 L 10.703125 18.253906 L 10.996094 18.238281 C 11.039062 18.234375 11.082031 18.230469 11.125 18.226562 C 11.148438 18.222656 11.171875 18.222656 11.195312 18.21875 C 11.292969 18.210938 11.398438 18.195312 11.496094 18.179688 C 11.527344 18.175781 11.558594 18.167969 11.589844 18.164062 C 11.914062 18.101562 12.160156 18.042969 12.386719 17.964844 C 12.476562 17.9375 12.570312 17.902344 12.664062 17.867188 C 12.699219 17.851562 12.734375 17.835938 12.773438 17.824219 C 12.816406 17.804688 12.855469 17.789062 12.894531 17.769531 C 12.917969 17.761719 12.941406 17.75 12.964844 17.738281 L 13.058594 17.699219 L 13.15625 17.648438 C 13.65625 17.402344 14.132812 17.078125 14.5625 16.683594 C 14.757812 16.507812 14.953125 16.296875 15.164062 16.046875 C 15.335938 15.835938 15.503906 15.597656 15.675781 15.320312 C 15.816406 15.085938 15.953125 14.824219 16.085938 14.519531 C 16.191406 14.265625 16.289062 13.988281 16.378906 13.660156 C 16.449219 13.398438 16.503906 13.105469 16.546875 12.769531 L 16.570312 12.542969 C 16.574219 12.503906 16.578125 12.464844 16.578125 12.429688 L 16.589844 12.210938 C 16.59375 12.1875 16.59375 12.160156 16.589844 12.132812 C 16.589844 12.117188 16.589844 12.105469 16.59375 12.089844 L 16.59375 11.851562 C 16.59375 11.847656 16.59375 11.84375 16.589844 11.84375 L 16.59375 11.84375 L 16.582031 11.632812 C 16.582031 11.5625 16.574219 11.488281 16.566406 11.417969 L 16.566406 11.40625 C 16.5625 11.378906 16.558594 11.351562 16.558594 11.324219 C 16.554688 11.277344 16.550781 11.226562 16.542969 11.175781 L 16.511719 10.957031 C 16.453125 10.621094 16.382812 10.335938 16.304688 10.078125 C 16.199219 9.761719 16.09375 9.492188 15.976562 9.253906 C 15.835938 8.960938 15.695312 8.710938 15.546875 8.488281 C 15.367188 8.226562 15.191406 8.003906 15.019531 7.808594 C 14.804688 7.574219 14.605469 7.382812 14.410156 7.222656 C 13.980469 6.863281 13.515625 6.574219 13.027344 6.363281 L 12.9375 6.320312 L 12.84375 6.285156 C 12.820312 6.277344 12.796875 6.269531 12.773438 6.257812 C 12.738281 6.242188 12.699219 6.230469 12.660156 6.214844 C 12.621094 6.203125 12.585938 6.191406 12.546875 6.179688 C 12.460938 6.148438 12.375 6.121094 12.285156 6.097656 C 12.015625 6.019531 11.742188 5.976562 11.535156 5.949219 C 11.5 5.945312 11.46875 5.941406 11.4375 5.9375 C 11.347656 5.925781 11.25 5.917969 11.164062 5.914062 L 10.984375 5.90625 L 10.621094 5.902344 L 10.621094 5.910156 L 10.382812 5.921875 L 10.203125 5.941406 C 10.15625 5.945312 10.105469 5.953125 10.058594 5.960938 C 9.582031 6.03125 9.132812 6.15625 8.722656 6.332031 C 8.324219 6.503906 7.945312 6.71875 7.59375 6.976562 C 6.984375 7.425781 6.457031 8.011719 6.066406 8.675781 C 6.046875 8.707031 6.027344 8.742188 6.007812 8.773438 L 5.964844 8.851562 L 7.199219 9.34375 L 4.304688 11.46875 L 3.484375 7.863281 L 4.660156 8.332031 L 4.691406 8.277344 C 4.765625 8.144531 4.84375 8.015625 4.925781 7.890625 C 5.445312 7.097656 6.125 6.402344 6.894531 5.882812 C 7.335938 5.585938 7.808594 5.34375 8.304688 5.160156 C 8.8125 4.96875 9.359375 4.839844 9.9375 4.78125 C 9.992188 4.773438 10.046875 4.773438 10.105469 4.769531 L 10.21875 4.761719 C 10.269531 4.757812 10.316406 4.753906 10.367188 4.753906 L 10.695312 4.75 L 10.808594 4.757812 L 11.0625 4.769531 L 11.238281 4.785156 C 11.363281 4.796875 11.472656 4.8125 11.589844 4.832031 C 11.625 4.835938 11.65625 4.84375 11.691406 4.847656 C 12.035156 4.910156 12.316406 4.980469 12.570312 5.066406 C 12.679688 5.097656 12.789062 5.140625 12.894531 5.179688 C 12.929688 5.195312 12.96875 5.210938 13.007812 5.222656 C 13.050781 5.242188 13.101562 5.261719 13.148438 5.285156 L 13.328125 5.363281 L 13.429688 5.414062 C 13.992188 5.6875 14.519531 6.046875 15 6.484375 C 15.21875 6.6875 15.441406 6.917969 15.671875 7.195312 C 15.867188 7.429688 16.054688 7.695312 16.246094 8.003906 C 16.40625 8.265625 16.554688 8.558594 16.703125 8.894531 C 16.824219 9.179688 16.933594 9.492188 17.03125 9.851562 C 17.113281 10.148438 17.175781 10.472656 17.226562 10.847656 L 17.25 11.101562 C 17.257812 11.152344 17.257812 11.207031 17.261719 11.261719 C 17.265625 11.292969 17.265625 11.324219 17.265625 11.351562 L 17.269531 11.363281 C 17.273438 11.441406 17.277344 11.523438 17.277344 11.601562 L 17.277344 11.871094 L 17.265625 12.109375 C 17.265625 12.121094 17.265625 12.136719 17.265625 12.152344 C 17.261719 12.175781 17.261719 12.199219 17.261719 12.226562 L 17.25 12.359375 C 17.246094 12.386719 17.242188 12.417969 17.238281 12.449219 C 17.234375 12.507812 17.230469 12.5625 17.222656 12.613281 L 17.1875 12.867188 C 17.125 13.234375 17.050781 13.554688 16.957031 13.84375 C 16.847656 14.195312 16.730469 14.5 16.597656 14.773438 C 16.441406 15.09375 16.285156 15.375 16.117188 15.625 C 15.917969 15.917969 15.726562 16.167969 15.53125 16.386719 C 15.292969 16.648438 15.074219 16.863281 14.855469 17.046875 C 14.375 17.449219 13.855469 17.773438 13.308594 18.015625 L 13.207031 18.058594 L 13.03125 18.128906 C 12.988281 18.144531 12.941406 18.164062 12.894531 18.179688 C 12.859375 18.191406 12.824219 18.203125 12.785156 18.214844 C 12.679688 18.25 12.582031 18.285156 12.480469 18.308594 C 12.238281 18.378906 11.96875 18.433594 11.636719 18.484375 C 11.605469 18.484375 11.574219 18.488281 11.539062 18.492188 C 11.429688 18.507812 11.324219 18.519531 11.21875 18.523438 C 11.191406 18.523438 11.167969 18.523438 11.144531 18.527344 C 11.097656 18.527344 11.054688 18.53125 11.007812 18.53125 L 10.710938 18.535156 L 10.59375 18.527344 L 10.394531 18.519531 L 10.148438 18.496094 C 10.09375 18.488281 10.042969 18.484375 9.992188 18.476562 C 9.453125 18.398438 8.949219 18.257812 8.488281 18.0625 C 8.039062 17.871094 7.609375 17.628906 7.214844 17.34375 " fill-opacity="1" fill-rule="nonzero"/></g><g clip-path="url(#c7b101ef91)"><path fill="#006a75" d="M 6.199219 16.359375 C 6.234375 16.402344 6.265625 16.4375 6.292969 16.46875 C 6.316406 16.5 6.335938 16.523438 6.351562 16.539062 C 6.363281 16.558594 6.371094 16.566406 6.371094 16.566406 C 6.371094 16.566406 6.367188 16.554688 6.359375 16.535156 C 6.347656 16.515625 6.335938 16.488281 6.316406 16.453125 C 6.296875 16.417969 6.273438 16.375 6.246094 16.324219 C 6.214844 16.277344 6.183594 16.222656 6.144531 16.167969 C 6.125 16.136719 6.105469 16.109375 6.082031 16.078125 C 6.0625 16.046875 6.039062 16.019531 6.015625 15.984375 C 5.96875 15.921875 5.914062 15.859375 5.859375 15.792969 C 5.832031 15.757812 5.800781 15.726562 5.773438 15.695312 C 5.742188 15.664062 5.714844 15.628906 5.683594 15.597656 C 5.617188 15.535156 5.554688 15.46875 5.484375 15.410156 C 5.414062 15.351562 5.347656 15.292969 5.273438 15.238281 C 5.238281 15.210938 5.203125 15.1875 5.167969 15.160156 C 5.128906 15.136719 5.09375 15.113281 5.058594 15.089844 C 5.019531 15.066406 4.988281 15.042969 4.953125 15.023438 C 4.914062 15.003906 4.878906 14.988281 4.84375 14.96875 C 4.777344 14.933594 4.710938 14.898438 4.648438 14.875 C 4.585938 14.851562 4.527344 14.828125 4.476562 14.8125 C 4.425781 14.796875 4.378906 14.785156 4.339844 14.773438 C 4.265625 14.753906 4.222656 14.746094 4.222656 14.746094 C 4.222656 14.746094 4.261719 14.769531 4.332031 14.804688 C 4.363281 14.820312 4.40625 14.839844 4.457031 14.863281 C 4.503906 14.894531 4.554688 14.921875 4.613281 14.957031 C 4.671875 14.984375 4.726562 15.027344 4.792969 15.070312 C 4.824219 15.089844 4.855469 15.109375 4.890625 15.132812 C 4.921875 15.15625 4.953125 15.179688 4.988281 15.203125 C 5.019531 15.226562 5.054688 15.25 5.089844 15.277344 C 5.121094 15.304688 5.15625 15.332031 5.1875 15.359375 C 5.257812 15.410156 5.324219 15.46875 5.390625 15.527344 C 5.457031 15.582031 5.519531 15.648438 5.585938 15.707031 C 5.644531 15.769531 5.710938 15.828125 5.765625 15.886719 C 5.824219 15.949219 5.882812 16.003906 5.933594 16.0625 C 5.984375 16.117188 6.035156 16.171875 6.078125 16.222656 C 6.125 16.273438 6.164062 16.320312 6.199219 16.359375 Z M 4.96875 16.144531 C 4.660156 15.878906 4.429688 15.507812 4.234375 15.179688 C 4.105469 14.949219 4.003906 14.757812 3.953125 14.664062 C 4.054688 14.621094 4.25 14.550781 4.523438 14.53125 C 4.742188 14.511719 5.175781 14.515625 5.605469 14.75 C 5.707031 14.808594 5.800781 14.871094 5.886719 14.945312 C 6.234375 15.234375 6.402344 15.617188 6.484375 15.886719 C 6.5 15.933594 6.511719 15.980469 6.523438 16.023438 C 6.542969 16.101562 6.554688 16.179688 6.566406 16.25 C 6.605469 16.535156 6.582031 16.753906 6.5625 16.863281 C 6.464844 16.832031 6.265625 16.769531 6.023438 16.683594 C 5.675781 16.558594 5.28125 16.402344 4.96875 16.144531 " fill-opacity="1" fill-rule="nonzero"/></g><g fill="#006a75" fill-opacity="1"><g transform="translate(20.224278, 17.795135)"><g><path d="M 2.328125 -8.546875 L 2.328125 0 L 0.65625 0 L 0.65625 -11.796875 L 2.984375 -11.796875 L 4.890625 -4.734375 L 4.890625 -11.796875 L 6.546875 -11.796875 L 6.546875 0 L 4.640625 0 Z M 2.328125 -8.546875 "/></g></g></g><g fill="#006a75" fill-opacity="1"><g transform="translate(28.500663, 17.795135)"><g><path d="M 6.671875 0 L 4.8125 0 L 4.484375 -2.140625 L 2.203125 -2.140625 L 1.890625 0 L 0.1875 0 L 2.078125 -11.796875 L 4.78125 -11.796875 Z M 2.4375 -3.75 L 4.234375 -3.75 L 3.34375 -9.71875 Z M 2.4375 -3.75 "/></g></g></g><g fill="#006a75" fill-opacity="1"><g transform="translate(36.439929, 17.795135)"><g><path d="M 4.546875 0 C 4.523438 -0.0820312 4.503906 -0.15625 4.484375 -0.21875 C 4.460938 -0.289062 4.441406 -0.375 4.421875 -0.46875 C 4.410156 -0.570312 4.398438 -0.703125 4.390625 -0.859375 C 4.390625 -1.015625 4.390625 -1.210938 4.390625 -1.453125 L 4.390625 -3.296875 C 4.390625 -3.847656 4.289062 -4.238281 4.09375 -4.46875 C 3.90625 -4.695312 3.597656 -4.8125 3.171875 -4.8125 L 2.53125 -4.8125 L 2.53125 0 L 0.671875 0 L 0.671875 -11.796875 L 3.46875 -11.796875 C 4.4375 -11.796875 5.132812 -11.570312 5.5625 -11.125 C 6 -10.675781 6.21875 -10 6.21875 -9.09375 L 6.21875 -8.15625 C 6.21875 -6.945312 5.8125 -6.148438 5 -5.765625 C 5.476562 -5.578125 5.800781 -5.265625 5.96875 -4.828125 C 6.144531 -4.398438 6.234375 -3.875 6.234375 -3.25 L 6.234375 -1.4375 C 6.234375 -1.144531 6.242188 -0.890625 6.265625 -0.671875 C 6.296875 -0.453125 6.351562 -0.226562 6.4375 0 Z M 2.53125 -10.109375 L 2.53125 -6.484375 L 3.25 -6.484375 C 3.601562 -6.484375 3.875 -6.570312 4.0625 -6.75 C 4.257812 -6.9375 4.359375 -7.265625 4.359375 -7.734375 L 4.359375 -8.90625 C 4.359375 -9.332031 4.28125 -9.640625 4.125 -9.828125 C 3.976562 -10.015625 3.742188 -10.109375 3.421875 -10.109375 Z M 2.53125 -10.109375 "/></g></g></g><g fill="#006a75" fill-opacity="1"><g transform="translate(44.294914, 17.795135)"><g><path d="M 6.671875 0 L 4.8125 0 L 4.484375 -2.140625 L 2.203125 -2.140625 L 1.890625 0 L 0.1875 0 L 2.078125 -11.796875 L 4.78125 -11.796875 Z M 2.4375 -3.75 L 4.234375 -3.75 L 3.34375 -9.71875 Z M 2.4375 -3.75 "/></g></g></g><g fill="#006a75" fill-opacity="1"><g transform="translate(52.234179, 17.795135)"><g><path d="M 2.328125 -8.546875 L 2.328125 0 L 0.65625 0 L 0.65625 -11.796875 L 2.984375 -11.796875 L 4.890625 -4.734375 L 4.890625 -11.796875 L 6.546875 -11.796875 L 6.546875 0 L 4.640625 0 Z M 2.328125 -8.546875 "/></g></g></g><g fill="#006a75" fill-opacity="1"><g transform="translate(60.510562, 17.795135)"><g><path d="M 0.171875 -1.6875 C 0.273438 -1.675781 0.378906 -1.671875 0.484375 -1.671875 C 0.597656 -1.671875 0.707031 -1.671875 0.8125 -1.671875 C 1.101562 -1.671875 1.351562 -1.742188 1.5625 -1.890625 C 1.769531 -2.035156 1.875 -2.335938 1.875 -2.796875 L 1.875 -11.796875 L 3.71875 -11.796875 L 3.71875 -2.9375 C 3.71875 -2.34375 3.644531 -1.851562 3.5 -1.46875 C 3.351562 -1.082031 3.15625 -0.78125 2.90625 -0.5625 C 2.664062 -0.34375 2.382812 -0.1875 2.0625 -0.09375 C 1.738281 -0.0078125 1.40625 0.03125 1.0625 0.03125 C 0.894531 0.03125 0.742188 0.03125 0.609375 0.03125 C 0.472656 0.03125 0.328125 0.0195312 0.171875 0 Z M 0.171875 -1.6875 "/></g></g></g><g fill="#006a75" fill-opacity="1"><g transform="translate(65.904577, 17.795135)"><g><path d="M 6.671875 0 L 4.8125 0 L 4.484375 -2.140625 L 2.203125 -2.140625 L 1.890625 0 L 0.1875 0 L 2.078125 -11.796875 L 4.78125 -11.796875 Z M 2.4375 -3.75 L 4.234375 -3.75 L 3.34375 -9.71875 Z M 2.4375 -3.75 "/></g></g></g></svg>