<svg xmlns="http://www.w3.org/2000/svg" xmlns:xlink="http://www.w3.org/1999/xlink" width="150" zoomAndPan="magnify" viewBox="0 0 112.5 37.5" height="50" preserveAspectRatio="xMidYMid meet" version="1.0"><defs><g/><clipPath id="d5d71bc27c"><path d="M 10 2.160156 L 11 2.160156 L 11 3 L 10 3 Z M 10 2.160156 " clip-rule="nonzero"/></clipPath><clipPath id="2a76caef21"><path d="M 15 2.160156 L 16 2.160156 L 16 3 L 15 3 Z M 15 2.160156 " clip-rule="nonzero"/></clipPath><clipPath id="e4d95f00cd"><path d="M 13 2.160156 L 14 2.160156 L 14 3 L 13 3 Z M 13 2.160156 " clip-rule="nonzero"/></clipPath><clipPath id="bb033e89f8"><path d="M 13 2.160156 L 15 2.160156 L 15 3 L 13 3 Z M 13 2.160156 " clip-rule="nonzero"/></clipPath><clipPath id="458e6c7806"><path d="M 12 2.160156 L 13 2.160156 L 13 3 L 12 3 Z M 12 2.160156 " clip-rule="nonzero"/></clipPath><clipPath id="decc81230b"><path d="M 11 2.160156 L 13 2.160156 L 13 3 L 11 3 Z M 11 2.160156 " clip-rule="nonzero"/></clipPath><clipPath id="7f13fa8e38"><path d="M 18 27 L 20 27 L 20 28.925781 L 18 28.925781 Z M 18 27 " clip-rule="nonzero"/></clipPath><clipPath id="874a101594"><path d="M 13 28 L 14 28 L 14 28.925781 L 13 28.925781 Z M 13 28 " clip-rule="nonzero"/></clipPath><clipPath id="4cf724321c"><path d="M 0.492188 11 L 1 11 L 1 12 L 0.492188 12 Z M 0.492188 11 " clip-rule="nonzero"/></clipPath><clipPath id="028a7844e3"><path d="M 0.492188 10 L 2 10 L 2 12 L 0.492188 12 Z M 0.492188 10 " clip-rule="nonzero"/></clipPath><clipPath id="9ff77ac41f"><path d="M 1 2.160156 L 27.257812 2.160156 L 27.257812 28.925781 L 1 28.925781 Z M 1 2.160156 " clip-rule="nonzero"/></clipPath><clipPath id="e8d30a2cf7"><path d="M 16 28 L 17 28 L 17 28.925781 L 16 28.925781 Z M 16 28 " clip-rule="nonzero"/></clipPath><clipPath id="ef191a8777"><path d="M 2.753906 5.03125 L 24.753906 5.03125 L 24.753906 25.84375 L 2.753906 25.84375 Z M 2.753906 5.03125 " clip-rule="nonzero"/></clipPath></defs><g clip-path="url(#d5d71bc27c)"><path fill="#e2a002" d="M 10.894531 2.527344 C 10.894531 2.496094 10.886719 2.460938 10.878906 2.417969 C 10.824219 2.476562 10.84375 2.507812 10.894531 2.527344 Z M 10.894531 2.527344 " fill-opacity="1" fill-rule="nonzero"/></g><g clip-path="url(#2a76caef21)"><path fill="#e2a002" d="M 15.515625 2.40625 C 15.628906 2.40625 15.742188 2.410156 15.742188 2.410156 C 15.765625 2.414062 15.777344 2.414062 15.785156 2.414062 C 15.789062 2.414062 15.792969 2.414062 15.796875 2.414062 C 15.796875 2.398438 15.363281 2.273438 15.351562 2.40625 C 15.355469 2.40625 15.359375 2.40625 15.363281 2.40625 C 15.402344 2.40625 15.460938 2.40625 15.515625 2.40625 Z M 15.515625 2.40625 " fill-opacity="1" fill-rule="nonzero"/></g><g clip-path="url(#e4d95f00cd)"><path fill="#e2a002" d="M 13.351562 2.496094 C 13.296875 2.476562 13.242188 2.457031 13.179688 2.449219 C 13.230469 2.464844 13.285156 2.480469 13.351562 2.496094 Z M 13.351562 2.496094 " fill-opacity="1" fill-rule="nonzero"/></g><g clip-path="url(#bb033e89f8)"><path fill="#e2a002" d="M 14.601562 2.636719 C 14.511719 2.609375 14.421875 2.589844 14.328125 2.578125 C 14.25 2.566406 14.167969 2.558594 14.085938 2.558594 C 14.003906 2.5625 13.917969 2.570312 13.832031 2.585938 C 13.832031 2.585938 13.832031 2.585938 13.835938 2.589844 C 13.953125 2.605469 14.078125 2.621094 14.203125 2.628906 C 14.335938 2.640625 14.46875 2.640625 14.601562 2.636719 Z M 14.601562 2.636719 " fill-opacity="1" fill-rule="nonzero"/></g><g clip-path="url(#458e6c7806)"><path fill="#e2a002" d="M 12.789062 2.519531 C 12.890625 2.5 12.957031 2.484375 12.957031 2.484375 C 12.957031 2.484375 12.898438 2.402344 12.835938 2.324219 C 12.777344 2.242188 12.71875 2.160156 12.71875 2.160156 C 12.214844 2.167969 12.277344 2.304688 12.328125 2.445312 C 12.355469 2.515625 12.378906 2.585938 12.332031 2.644531 C 12.359375 2.632812 12.390625 2.625 12.421875 2.617188 C 12.554688 2.582031 12.6875 2.546875 12.789062 2.519531 Z M 12.789062 2.519531 " fill-opacity="1" fill-rule="nonzero"/></g><g clip-path="url(#decc81230b)"><path fill="#e2a002" d="M 12.328125 2.644531 C 12.328125 2.644531 12.328125 2.644531 12.332031 2.644531 C 12.230469 2.667969 12.136719 2.695312 12.0625 2.722656 C 11.964844 2.753906 11.898438 2.773438 11.898438 2.773438 C 12.027344 2.761719 12.125 2.742188 12.191406 2.71875 C 12.261719 2.699219 12.304688 2.671875 12.328125 2.644531 Z M 12.328125 2.644531 " fill-opacity="1" fill-rule="nonzero"/></g><path fill="#e2a002" d="M 20.746094 27.480469 C 20.714844 27.523438 20.671875 27.570312 20.625 27.617188 C 20.675781 27.601562 20.726562 27.582031 20.773438 27.554688 Z M 20.746094 27.480469 " fill-opacity="1" fill-rule="nonzero"/><path fill="#e2a002" d="M 20.675781 27.296875 L 20.746094 27.480469 C 20.804688 27.390625 20.808594 27.320312 20.675781 27.296875 Z M 20.675781 27.296875 " fill-opacity="1" fill-rule="nonzero"/><g clip-path="url(#7f13fa8e38)"><path fill="#e2a002" d="M 18.976562 28.136719 C 18.839844 28.277344 18.695312 28.402344 18.695312 28.402344 C 18.820312 28.378906 19.027344 28.316406 19.171875 28.226562 C 19.3125 28.132812 19.386719 28.015625 19.246094 27.867188 C 19.246094 27.867188 19.109375 28.003906 18.976562 28.136719 Z M 18.976562 28.136719 " fill-opacity="1" fill-rule="nonzero"/></g><path fill="#e2a002" d="M 23.164062 23.488281 L 23.039062 23.402344 C 23.046875 23.457031 23.078125 23.496094 23.164062 23.488281 Z M 23.164062 23.488281 " fill-opacity="1" fill-rule="nonzero"/><path fill="#e2a002" d="M 2.222656 10.433594 C 2.210938 10.40625 2.195312 10.378906 2.171875 10.351562 C 2.171875 10.347656 2.191406 10.382812 2.222656 10.433594 Z M 2.222656 10.433594 " fill-opacity="1" fill-rule="nonzero"/><g clip-path="url(#874a101594)"><path fill="#e2a002" d="M 13.992188 28.46875 L 13.976562 28.449219 C 13.976562 28.457031 13.980469 28.464844 13.992188 28.46875 Z M 13.992188 28.46875 " fill-opacity="1" fill-rule="nonzero"/></g><path fill="#e2a002" d="M 21.074219 4.960938 C 21.109375 4.925781 21.132812 4.902344 21.132812 4.902344 C 21.101562 4.917969 21.085938 4.9375 21.074219 4.960938 Z M 21.074219 4.960938 " fill-opacity="1" fill-rule="nonzero"/><path fill="#e2a002" d="M 26.542969 18.769531 C 26.535156 18.769531 26.527344 18.769531 26.519531 18.769531 C 26.519531 18.78125 26.519531 18.792969 26.519531 18.804688 C 26.527344 18.792969 26.535156 18.78125 26.542969 18.769531 Z M 26.542969 18.769531 " fill-opacity="1" fill-rule="nonzero"/><path fill="#e2a002" d="M 26.382812 19.894531 C 26.4375 19.566406 26.496094 19.167969 26.519531 18.824219 C 26.519531 18.816406 26.519531 18.8125 26.519531 18.804688 C 26.402344 18.980469 26.351562 19.125 26.347656 19.289062 C 26.339844 19.460938 26.371094 19.648438 26.382812 19.894531 Z M 26.382812 19.894531 " fill-opacity="1" fill-rule="nonzero"/><path fill="#e2a002" d="M 25.386719 22.582031 C 25.410156 22.605469 25.441406 22.625 25.476562 22.648438 C 25.472656 22.566406 25.4375 22.558594 25.386719 22.582031 Z M 25.386719 22.582031 " fill-opacity="1" fill-rule="nonzero"/><path fill="#e2a002" d="M 24.636719 22.464844 C 24.636719 22.464844 24.726562 22.335938 24.816406 22.203125 C 24.898438 22.070312 24.984375 21.933594 24.984375 21.933594 C 25.09375 22.089844 25.027344 22.273438 24.941406 22.433594 C 24.863281 22.597656 24.785156 22.75 24.894531 22.867188 C 25.03125 22.90625 25.257812 22.640625 25.386719 22.582031 C 25.164062 22.402344 25.230469 22.226562 25.273438 22.078125 C 25.320312 21.917969 25.332031 21.800781 24.882812 21.785156 C 24.863281 21.824219 24.84375 21.863281 24.824219 21.90625 C 24.757812 22.054688 24.699219 22.230469 24.636719 22.464844 Z M 24.636719 22.464844 " fill-opacity="1" fill-rule="nonzero"/><path fill="#e2a002" d="M 25.34375 20.539062 C 25.320312 20.777344 25.277344 20.960938 25.222656 21.117188 C 25.183594 21.222656 25.136719 21.3125 25.089844 21.402344 C 25.140625 21.375 25.195312 21.367188 25.25 21.359375 C 25.390625 21.335938 25.550781 21.316406 25.660156 20.890625 C 25.660156 20.890625 25.582031 20.800781 25.503906 20.714844 C 25.421875 20.625 25.34375 20.539062 25.34375 20.539062 Z M 25.34375 20.539062 " fill-opacity="1" fill-rule="nonzero"/><path fill="#e2a002" d="M 24.871094 21.785156 C 24.875 21.785156 24.878906 21.785156 24.882812 21.785156 C 24.933594 21.6875 24.984375 21.601562 25.03125 21.515625 C 25.050781 21.476562 25.070312 21.441406 25.089844 21.402344 C 25.074219 21.410156 25.0625 21.421875 25.046875 21.433594 C 24.980469 21.488281 24.929688 21.589844 24.871094 21.785156 Z M 24.871094 21.785156 " fill-opacity="1" fill-rule="nonzero"/><path fill="#e2a002" d="M 23.109375 24.800781 C 23.164062 24.738281 23.21875 24.675781 23.269531 24.605469 C 23.269531 24.605469 23.265625 24.601562 23.261719 24.601562 C 23.167969 24.671875 23.070312 24.75 22.976562 24.832031 C 22.871094 24.917969 22.777344 25.011719 22.691406 25.109375 C 22.769531 25.0625 22.847656 25.015625 22.921875 24.957031 C 22.988281 24.910156 23.050781 24.859375 23.109375 24.800781 Z M 23.109375 24.800781 " fill-opacity="1" fill-rule="nonzero"/><path fill="#e2a002" d="M 23.671875 24.328125 C 23.726562 24.304688 23.777344 24.277344 23.828125 24.242188 C 23.78125 24.265625 23.730469 24.292969 23.671875 24.328125 Z M 23.671875 24.328125 " fill-opacity="1" fill-rule="nonzero"/><path fill="#e2a002" d="M 23.425781 24.363281 C 23.316406 24.34375 23.269531 24.257812 23.328125 24.082031 C 23.328125 24.082031 23.449219 24.078125 23.574219 24.078125 C 23.695312 24.070312 23.820312 24.066406 23.820312 24.066406 C 23.820312 24.066406 23.816406 24.007812 23.816406 23.917969 C 23.816406 23.828125 23.808594 23.707031 23.800781 23.585938 C 23.78125 23.347656 23.761719 23.113281 23.761719 23.113281 C 23.765625 23.285156 23.703125 23.425781 23.621094 23.542969 C 23.539062 23.664062 23.421875 23.757812 23.328125 23.84375 C 23.144531 24.023438 23.019531 24.167969 23.269531 24.429688 C 23.269531 24.429688 23.171875 24.449219 23.074219 24.46875 C 22.980469 24.488281 22.886719 24.507812 22.886719 24.507812 C 22.886719 24.507812 22.980469 24.53125 23.078125 24.554688 C 23.160156 24.578125 23.238281 24.597656 23.261719 24.601562 C 23.410156 24.492188 23.550781 24.398438 23.671875 24.328125 C 23.582031 24.363281 23.496094 24.378906 23.425781 24.363281 Z M 23.425781 24.363281 " fill-opacity="1" fill-rule="nonzero"/><path fill="#e2a002" d="M 22.203125 25.910156 C 22.125 25.992188 22.042969 26.070312 22.042969 26.070312 C 22.023438 26.082031 22.015625 26.089844 22.007812 26.09375 C 22.003906 26.097656 22.003906 26.101562 22 26.101562 C 22.011719 26.113281 22.40625 25.898438 22.324219 25.796875 C 22.320312 25.796875 22.316406 25.800781 22.3125 25.804688 C 22.285156 25.832031 22.246094 25.871094 22.203125 25.910156 Z M 22.203125 25.910156 " fill-opacity="1" fill-rule="nonzero"/><path fill="#e2a002" d="M 24.5 23.113281 C 24.417969 23.214844 24.363281 23.292969 24.332031 23.359375 C 24.300781 23.421875 24.285156 23.46875 24.289062 23.507812 C 24.339844 23.417969 24.390625 23.332031 24.421875 23.261719 C 24.46875 23.171875 24.5 23.113281 24.5 23.113281 Z M 24.5 23.113281 " fill-opacity="1" fill-rule="nonzero"/><path fill="#e2a002" d="M 24.429688 23.648438 C 24.363281 23.617188 24.296875 23.582031 24.289062 23.507812 C 24.273438 23.535156 24.257812 23.5625 24.242188 23.589844 C 24.171875 23.710938 24.105469 23.828125 24.050781 23.917969 C 23.996094 24.003906 23.960938 24.058594 23.960938 24.058594 C 23.960938 24.058594 24.058594 24.074219 24.160156 24.089844 C 24.257812 24.105469 24.359375 24.121094 24.359375 24.121094 C 24.707031 23.761719 24.566406 23.710938 24.429688 23.648438 Z M 24.429688 23.648438 " fill-opacity="1" fill-rule="nonzero"/><g clip-path="url(#4cf724321c)"><path fill="#e2a002" d="M 0.644531 11.851562 C 0.636719 11.800781 0.632812 11.738281 0.632812 11.671875 C 0.609375 11.71875 0.585938 11.765625 0.574219 11.820312 Z M 0.644531 11.851562 " fill-opacity="1" fill-rule="nonzero"/><path fill="#e2a002" d="M 0.824219 11.933594 L 0.644531 11.851562 C 0.667969 11.957031 0.714844 12.007812 0.824219 11.933594 Z M 0.824219 11.933594 " fill-opacity="1" fill-rule="nonzero"/></g><g clip-path="url(#028a7844e3)"><path fill="#e2a002" d="M 1.214844 11.125 C 1.386719 10.996094 1.453125 10.878906 1.191406 10.671875 C 1.191406 10.671875 1.109375 10.8125 1.027344 10.953125 C 0.988281 11.023438 0.949219 11.097656 0.917969 11.148438 C 0.886719 11.203125 0.867188 11.238281 0.867188 11.238281 C 0.621094 11.109375 0.5 11.046875 0.710938 10.691406 C 0.566406 10.730469 0.542969 11.132812 0.515625 11.34375 L 0.601562 11.21875 C 0.640625 11.332031 0.632812 11.515625 0.632812 11.671875 C 0.769531 11.410156 1.039062 11.253906 1.214844 11.125 Z M 1.214844 11.125 " fill-opacity="1" fill-rule="nonzero"/></g><path fill="#e2a002" d="M 1.429688 10.527344 C 1.429688 10.527344 1.429688 10.335938 1.429688 10.144531 C 1.425781 9.953125 1.4375 9.761719 1.4375 9.761719 C 1.367188 9.867188 1.261719 10.054688 1.230469 10.222656 C 1.191406 10.386719 1.226562 10.519531 1.429688 10.527344 Z M 1.429688 10.527344 " fill-opacity="1" fill-rule="nonzero"/><path fill="#e2a002" d="M 2.167969 9.96875 C 2.238281 9.863281 2.3125 9.769531 2.3125 9.644531 C 2.132812 9.753906 2.136719 9.683594 2.191406 9.5625 C 2.242188 9.441406 2.339844 9.269531 2.339844 9.175781 C 1.722656 9.652344 2.320312 9.566406 2.167969 9.96875 Z M 2.167969 9.96875 " fill-opacity="1" fill-rule="nonzero"/><path fill="#e2a002" d="M 2.167969 9.96875 C 2.136719 10.019531 2.105469 10.074219 2.085938 10.132812 C 2.128906 10.070312 2.148438 10.019531 2.167969 9.96875 Z M 2.167969 9.96875 " fill-opacity="1" fill-rule="nonzero"/><path fill="#e2a002" d="M 4.71875 6.410156 L 4.742188 6.417969 C 4.738281 6.410156 4.726562 6.40625 4.71875 6.410156 Z M 4.71875 6.410156 " fill-opacity="1" fill-rule="nonzero"/><g clip-path="url(#9ff77ac41f)"><path fill="#e2a002" d="M 27.164062 14.835938 C 27.105469 14.683594 27.042969 14.503906 26.996094 14.328125 C 26.953125 14.15625 26.945312 13.984375 27.023438 13.84375 L 26.75 13.894531 C 26.75 13.878906 26.746094 13.859375 26.746094 13.839844 C 26.722656 13.519531 26.707031 13.3125 26.710938 13.175781 C 26.707031 13.03125 26.714844 12.960938 26.730469 12.894531 C 26.742188 12.832031 26.757812 12.773438 26.757812 12.65625 C 26.761719 12.597656 26.757812 12.523438 26.75 12.425781 C 26.742188 12.332031 26.722656 12.210938 26.699219 12.058594 C 26.699219 12.058594 26.59375 12 26.492188 11.941406 C 26.464844 11.925781 26.4375 11.910156 26.410156 11.894531 C 26.390625 11.828125 26.375 11.761719 26.355469 11.695312 C 26.355469 11.695312 26.359375 11.695312 26.359375 11.691406 C 26.347656 11.660156 26.335938 11.625 26.324219 11.59375 C 26.144531 10.980469 25.914062 10.390625 25.636719 9.828125 C 25.589844 9.683594 25.527344 9.539062 25.421875 9.402344 C 25.421875 9.402344 25.425781 9.410156 25.425781 9.421875 C 25.289062 9.167969 25.140625 8.917969 24.980469 8.671875 C 25 8.660156 25.015625 8.640625 25.027344 8.617188 C 24.925781 8.46875 24.804688 8.335938 24.675781 8.21875 C 23.722656 6.894531 22.496094 5.78125 21.070312 4.964844 C 21.074219 4.964844 21.074219 4.960938 21.074219 4.960938 C 21.074219 4.960938 21.070312 4.964844 21.070312 4.964844 C 20.957031 4.898438 20.84375 4.835938 20.726562 4.773438 C 20.769531 4.726562 20.816406 4.679688 20.863281 4.628906 C 21.109375 4.378906 21.359375 4.113281 20.867188 3.90625 C 21.054688 4.132812 20.964844 4.335938 20.800781 4.453125 C 20.628906 4.574219 20.390625 4.605469 20.238281 4.492188 C 20.238281 4.503906 20.238281 4.515625 20.238281 4.53125 C 20.171875 4.5 20.101562 4.46875 20.035156 4.4375 C 20.195312 4.382812 20.226562 4.277344 20.167969 4.171875 C 20.105469 4.058594 19.941406 3.945312 19.75 3.90625 C 19.828125 3.941406 19.894531 3.984375 19.941406 4.035156 C 19.988281 4.082031 20.023438 4.136719 20.042969 4.1875 C 20.078125 4.28125 20.066406 4.367188 20.011719 4.425781 C 19.910156 4.382812 19.804688 4.335938 19.703125 4.292969 C 19.679688 4.277344 19.65625 4.261719 19.632812 4.246094 C 19.667969 4.234375 19.703125 4.207031 19.746094 4.167969 C 19.859375 3.980469 19.667969 3.765625 19.386719 3.5625 C 19.246094 3.464844 19.089844 3.367188 18.941406 3.269531 C 18.792969 3.175781 18.65625 3.085938 18.5625 2.988281 C 18.363281 2.964844 18.253906 2.996094 18.175781 3.050781 C 18.097656 3.109375 18.046875 3.199219 17.964844 3.304688 C 17.945312 3.175781 17.839844 3.066406 17.734375 2.964844 C 17.625 2.867188 17.515625 2.765625 17.488281 2.632812 C 17.265625 2.679688 17.082031 2.679688 16.914062 2.652344 C 16.746094 2.625 16.59375 2.566406 16.4375 2.523438 C 16.285156 2.472656 16.128906 2.421875 15.957031 2.410156 C 15.90625 2.410156 15.851562 2.410156 15.796875 2.414062 C 15.796875 2.417969 15.792969 2.417969 15.785156 2.417969 C 15.664062 2.425781 15.535156 2.457031 15.398438 2.515625 C 15.359375 2.46875 15.347656 2.433594 15.351562 2.40625 C 15.316406 2.40625 15.292969 2.410156 15.292969 2.410156 L 15.339844 2.460938 C 15.1875 2.550781 15.003906 2.601562 14.808594 2.621094 C 14.742188 2.625 14.671875 2.632812 14.601562 2.636719 C 14.664062 2.652344 14.722656 2.671875 14.785156 2.695312 C 14.824219 2.714844 14.863281 2.734375 14.902344 2.753906 C 14.792969 2.761719 14.652344 2.78125 14.511719 2.796875 C 14.3125 2.816406 14.113281 2.847656 14 2.867188 C 13.984375 2.835938 13.960938 2.792969 13.933594 2.753906 C 13.890625 2.683594 13.847656 2.609375 13.835938 2.589844 C 13.652344 2.566406 13.484375 2.53125 13.351562 2.496094 C 13.441406 2.535156 13.511719 2.585938 13.550781 2.644531 C 13.578125 2.6875 13.585938 2.730469 13.574219 2.769531 C 13.542969 2.773438 13.511719 2.773438 13.480469 2.777344 C 13.417969 2.78125 13.351562 2.78125 13.285156 2.785156 C 13.273438 2.773438 13.257812 2.757812 13.242188 2.746094 C 13.152344 2.660156 13.0625 2.578125 13.0625 2.578125 C 13.0625 2.578125 13.019531 2.621094 12.957031 2.6875 C 12.921875 2.71875 12.886719 2.761719 12.84375 2.804688 C 12.625 2.8125 12.402344 2.828125 12.1875 2.835938 C 11.910156 2.855469 11.640625 2.882812 11.394531 2.925781 C 11.1875 2.96875 10.996094 3.019531 10.824219 3.085938 C 10.898438 3.019531 11 2.976562 11.101562 2.945312 C 11.277344 2.882812 11.441406 2.832031 11.445312 2.671875 C 11.378906 2.546875 11.027344 2.574219 10.894531 2.527344 C 10.925781 2.808594 10.75 2.890625 10.617188 2.964844 C 10.484375 3.039062 10.394531 3.105469 10.609375 3.359375 C 10.59375 3.40625 10.59375 3.441406 10.628906 3.464844 C 10.546875 3.488281 10.464844 3.507812 10.386719 3.535156 C 10.34375 3.546875 10.304688 3.558594 10.261719 3.570312 C 10.28125 3.574219 10.296875 3.578125 10.316406 3.578125 C 10.394531 3.585938 10.496094 3.554688 10.652344 3.476562 C 10.707031 3.492188 10.804688 3.488281 10.976562 3.449219 C 10.773438 3.644531 10.511719 3.714844 10.226562 3.71875 C 10.117188 3.722656 10.007812 3.722656 9.894531 3.714844 C 9.917969 3.703125 9.941406 3.691406 9.964844 3.679688 C 10.070312 3.632812 10.167969 3.597656 10.261719 3.570312 C 10.207031 3.554688 10.164062 3.523438 10.121094 3.492188 C 10.007812 3.40625 9.875 3.308594 9.496094 3.53125 C 9.496094 3.53125 9.492188 3.609375 9.484375 3.699219 C 9.449219 3.699219 9.410156 3.699219 9.378906 3.699219 C 9.378906 3.699219 9.394531 3.667969 9.421875 3.621094 C 9.449219 3.574219 9.488281 3.515625 9.527344 3.457031 C 9.605469 3.335938 9.683594 3.214844 9.683594 3.214844 C 8.992188 3.453125 8.195312 3.613281 7.445312 3.882812 C 6.691406 4.148438 5.988281 4.511719 5.539062 5.039062 L 5.898438 5.144531 C 5.835938 5.195312 5.777344 5.242188 5.714844 5.289062 C 5.65625 5.335938 5.597656 5.386719 5.535156 5.429688 C 5.414062 5.523438 5.289062 5.609375 5.167969 5.691406 C 4.925781 5.867188 4.679688 6.019531 4.457031 6.175781 C 4.242188 6.335938 4.03125 6.480469 3.867188 6.640625 C 3.699219 6.796875 3.566406 6.953125 3.488281 7.109375 C 3.972656 6.964844 3.90625 7.128906 3.71875 7.351562 C 3.675781 7.410156 3.625 7.472656 3.570312 7.535156 C 3.550781 7.546875 3.53125 7.550781 3.515625 7.558594 L 3.539062 7.574219 C 3.382812 7.753906 3.226562 7.933594 3.207031 8.039062 C 3.292969 7.96875 3.382812 7.890625 3.472656 7.808594 C 3.527344 7.753906 3.582031 7.699219 3.636719 7.640625 L 3.742188 7.714844 C 3.507812 7.984375 3.363281 8.148438 3.257812 8.25 C 3.15625 8.355469 3.101562 8.398438 3.042969 8.4375 C 2.988281 8.472656 2.9375 8.503906 2.851562 8.582031 C 2.808594 8.625 2.757812 8.679688 2.695312 8.75 C 2.632812 8.828125 2.5625 8.921875 2.472656 9.046875 C 2.472656 9.046875 2.5 9.164062 2.53125 9.277344 C 2.546875 9.332031 2.5625 9.386719 2.574219 9.429688 C 2.589844 9.472656 2.597656 9.5 2.597656 9.5 C 2.621094 9.539062 2.652344 9.265625 2.722656 9 C 2.792969 8.730469 2.925781 8.488281 3.101562 8.589844 C 3.089844 8.6875 3.070312 8.789062 3.046875 8.890625 C 3.023438 8.992188 3 9.097656 2.972656 9.199219 C 2.941406 9.304688 2.914062 9.410156 2.882812 9.515625 C 2.851562 9.625 2.824219 9.734375 2.796875 9.84375 C 2.769531 9.953125 2.742188 10.0625 2.71875 10.171875 C 2.695312 10.28125 2.679688 10.390625 2.667969 10.5 C 2.652344 10.613281 2.644531 10.722656 2.644531 10.828125 C 2.640625 10.9375 2.652344 11.042969 2.664062 11.148438 C 2.664062 11.148438 2.535156 10.957031 2.410156 10.753906 C 2.339844 10.636719 2.265625 10.515625 2.222656 10.433594 C 2.277344 10.589844 2.148438 10.726562 1.984375 10.914062 C 1.886719 11.023438 1.773438 11.148438 1.675781 11.296875 C 1.582031 11.445312 1.507812 11.621094 1.480469 11.824219 C 1.480469 11.824219 1.578125 11.664062 1.671875 11.507812 C 1.722656 11.429688 1.765625 11.351562 1.804688 11.292969 C 1.84375 11.238281 1.871094 11.199219 1.871094 11.199219 C 1.980469 11.378906 2.019531 11.585938 2.003906 11.808594 C 1.988281 12.03125 1.941406 12.277344 1.882812 12.53125 C 1.867188 12.59375 1.851562 12.660156 1.839844 12.722656 C 1.824219 12.789062 1.8125 12.851562 1.800781 12.917969 C 1.777344 13.050781 1.757812 13.183594 1.746094 13.3125 C 1.722656 13.574219 1.742188 13.828125 1.816406 14.058594 C 1.835938 13.8125 1.859375 13.570312 2.058594 13.550781 C 2.074219 13.570312 2.089844 13.597656 2.097656 13.625 C 2.097656 13.714844 2.105469 13.734375 2.125 13.722656 C 2.140625 13.820312 2.132812 13.933594 2.113281 14.054688 C 2.082031 14.261719 2.019531 14.484375 1.957031 14.648438 C 1.929688 14.644531 1.90625 14.636719 1.882812 14.625 C 1.859375 14.460938 1.871094 14.300781 1.980469 14.082031 C 1.980469 14.082031 1.882812 14.097656 1.785156 14.113281 C 1.6875 14.128906 1.589844 14.148438 1.589844 14.148438 C 1.589844 14.183594 1.59375 14.222656 1.597656 14.257812 C 1.523438 14.050781 1.511719 13.792969 1.496094 13.542969 C 1.472656 13.042969 1.492188 12.582031 1.199219 12.652344 C 1.148438 12.917969 1.152344 13.179688 1.195312 13.429688 C 1.242188 13.679688 1.316406 13.917969 1.394531 14.140625 C 1.480469 14.363281 1.5625 14.566406 1.609375 14.753906 C 1.664062 14.941406 1.691406 15.109375 1.652344 15.269531 C 1.652344 15.269531 1.546875 15.144531 1.441406 15.015625 C 1.386719 14.953125 1.335938 14.886719 1.296875 14.839844 C 1.257812 14.789062 1.230469 14.757812 1.230469 14.757812 C 1.230469 14.757812 1.238281 14.789062 1.253906 14.835938 C 1.265625 14.886719 1.285156 14.949219 1.300781 15.011719 C 1.335938 15.140625 1.375 15.265625 1.375 15.265625 L 1.398438 15.117188 C 1.570312 15.21875 1.558594 15.378906 1.535156 15.566406 C 1.507812 15.75 1.460938 15.964844 1.527344 16.160156 C 1.527344 16.160156 1.421875 16.101562 1.3125 16.046875 C 1.203125 15.984375 1.097656 15.925781 1.097656 15.925781 C 1.097656 15.925781 1.101562 15.972656 1.105469 16.046875 C 1.109375 16.117188 1.113281 16.214844 1.125 16.308594 C 1.144531 16.5 1.167969 16.691406 1.167969 16.691406 L 1.265625 16.582031 C 1.601562 17.78125 1.800781 18.796875 1.960938 19.941406 C 1.960938 19.941406 1.957031 19.898438 1.949219 19.832031 C 1.941406 19.769531 1.929688 19.6875 1.925781 19.601562 C 1.914062 19.429688 1.902344 19.261719 1.902344 19.261719 C 1.996094 19.289062 2.128906 19.617188 2.1875 19.917969 C 2.292969 19.828125 2.242188 19.605469 2.21875 19.398438 C 2.195312 19.226562 2.175781 19.070312 2.238281 19.019531 C 2.289062 19.320312 2.355469 19.617188 2.433594 19.914062 C 2.4375 19.984375 2.441406 20.054688 2.441406 20.125 C 2.445312 20.28125 2.457031 20.441406 2.476562 20.628906 C 2.484375 20.722656 2.5 20.820312 2.519531 20.933594 C 2.542969 21.039062 2.570312 21.160156 2.609375 21.289062 C 2.683594 21.296875 2.734375 21.179688 2.800781 21.0625 C 2.878906 21.261719 2.960938 21.457031 3.046875 21.648438 C 2.980469 21.695312 2.878906 21.691406 2.699219 21.589844 C 3 21.859375 3.007812 22.015625 3.027344 22.148438 C 3.046875 22.28125 3.085938 22.390625 3.421875 22.53125 C 3.363281 22.480469 3.324219 22.375 3.28125 22.273438 C 3.289062 22.242188 3.300781 22.222656 3.316406 22.207031 C 3.457031 22.484375 3.609375 22.753906 3.777344 23.019531 C 3.78125 23.242188 3.824219 23.46875 4.011719 23.761719 C 4.011719 23.761719 4.070312 23.8125 4.160156 23.886719 C 4.246094 23.964844 4.371094 24.054688 4.492188 24.152344 C 4.582031 24.226562 4.675781 24.296875 4.757812 24.355469 C 4.820312 24.429688 4.882812 24.5 4.945312 24.574219 C 4.914062 24.597656 4.875 24.605469 4.875 24.605469 C 4.988281 24.695312 5.097656 24.792969 5.203125 24.886719 C 5.316406 24.984375 5.421875 25.078125 5.527344 25.179688 C 5.546875 25.195312 5.5625 25.210938 5.582031 25.226562 C 5.605469 25.25 5.632812 25.277344 5.65625 25.300781 C 5.664062 25.355469 5.699219 25.40625 5.777344 25.449219 C 5.808594 25.464844 5.835938 25.476562 5.863281 25.488281 C 5.867188 25.488281 5.867188 25.492188 5.871094 25.496094 C 5.96875 25.582031 6.066406 25.667969 6.160156 25.753906 C 6.371094 25.933594 6.582031 26.105469 6.785156 26.25 C 6.863281 26.296875 6.933594 26.34375 7.007812 26.386719 C 7.304688 26.589844 7.609375 26.777344 7.921875 26.949219 C 7.921875 26.953125 7.921875 26.953125 7.921875 26.957031 C 7.949219 26.96875 7.976562 26.980469 8.003906 26.992188 C 8.132812 27.066406 8.265625 27.132812 8.402344 27.199219 C 8.292969 27.222656 8.203125 27.242188 8.203125 27.242188 C 8.859375 27.5625 9.535156 28.007812 10.261719 28.34375 C 10.980469 28.683594 11.742188 28.921875 12.433594 28.863281 L 12.253906 28.539062 C 12.332031 28.542969 12.40625 28.550781 12.484375 28.5625 C 12.5625 28.570312 12.636719 28.578125 12.714844 28.589844 C 12.867188 28.609375 13.015625 28.632812 13.160156 28.664062 C 13.453125 28.710938 13.738281 28.769531 14.007812 28.816406 C 14.273438 28.855469 14.527344 28.902344 14.757812 28.90625 C 14.984375 28.910156 15.1875 28.894531 15.355469 28.835938 C 14.910156 28.601562 15.074219 28.53125 15.367188 28.503906 C 15.660156 28.460938 16.09375 28.464844 16.21875 28.378906 C 16.105469 28.367188 15.988281 28.359375 15.867188 28.355469 C 15.746094 28.355469 15.621094 28.359375 15.496094 28.367188 C 15.246094 28.386719 14.992188 28.402344 14.765625 28.433594 C 14.375 28.472656 14.0625 28.503906 13.992188 28.46875 L 14.019531 28.507812 C 14.019531 28.507812 13.917969 28.515625 13.761719 28.523438 C 13.609375 28.53125 13.402344 28.539062 13.191406 28.546875 C 12.984375 28.546875 12.777344 28.542969 12.621094 28.542969 C 12.542969 28.542969 12.476562 28.542969 12.429688 28.539062 C 12.382812 28.535156 12.359375 28.535156 12.359375 28.535156 L 12.410156 28.335938 C 13.761719 28.460938 15.132812 28.351562 16.453125 28 C 16.457031 28.003906 16.457031 28.003906 16.457031 28.003906 C 16.457031 28.003906 16.457031 28.003906 16.457031 28 C 16.582031 27.96875 16.707031 27.933594 16.835938 27.894531 C 16.839844 27.957031 16.839844 28.023438 16.839844 28.089844 C 16.84375 28.4375 16.859375 28.804688 17.355469 28.605469 C 17.058594 28.578125 16.976562 28.371094 17.011719 28.171875 C 17.046875 27.96875 17.191406 27.777344 17.382812 27.75 C 17.371094 27.742188 17.363281 27.734375 17.351562 27.722656 C 17.425781 27.699219 17.496094 27.671875 17.566406 27.644531 C 17.488281 27.800781 17.539062 27.894531 17.65625 27.925781 C 17.753906 27.953125 17.898438 27.941406 18.03125 27.882812 C 18.1875 27.925781 18.136719 27.96875 18.023438 28.015625 C 17.898438 28.0625 17.707031 28.113281 17.640625 28.183594 C 18.308594 28.265625 18.042969 28.007812 18.210938 27.824219 C 18.328125 27.84375 18.480469 27.835938 18.644531 27.808594 C 18.8125 27.78125 18.996094 27.738281 19.167969 27.703125 C 19.3125 27.671875 19.445312 27.644531 19.566406 27.640625 C 19.519531 27.6875 19.5 27.777344 19.519531 27.929688 C 19.519531 27.929688 19.679688 27.886719 19.835938 27.84375 C 19.914062 27.824219 19.992188 27.800781 20.050781 27.785156 C 20.109375 27.769531 20.148438 27.757812 20.148438 27.757812 C 20.234375 28.019531 20.277344 28.152344 19.875 28.253906 C 20.003906 28.328125 20.304688 28.058594 20.476562 27.929688 L 20.324219 27.957031 C 20.378906 27.851562 20.515625 27.726562 20.625 27.617188 C 20.34375 27.703125 20.042969 27.625 19.828125 27.59375 C 19.777344 27.585938 19.734375 27.585938 19.695312 27.585938 C 19.808594 27.488281 19.851562 27.402344 19.863281 27.320312 C 19.878906 27.226562 19.851562 27.128906 19.832031 26.992188 C 19.941406 27.070312 20.089844 27.074219 20.238281 27.070312 C 20.386719 27.066406 20.535156 27.0625 20.648438 27.132812 C 20.773438 26.945312 20.902344 26.816406 21.039062 26.71875 C 21.179688 26.617188 21.328125 26.554688 21.472656 26.476562 C 21.613281 26.402344 21.761719 26.328125 21.890625 26.21875 C 21.929688 26.183594 21.964844 26.144531 22 26.101562 C 22 26.101562 22.003906 26.097656 22.007812 26.09375 C 22.085938 26 22.15625 25.890625 22.210938 25.75 C 22.273438 25.757812 22.304688 25.773438 22.324219 25.792969 C 22.347656 25.769531 22.363281 25.75 22.363281 25.75 L 22.289062 25.746094 C 22.335938 25.578125 22.429688 25.414062 22.554688 25.265625 C 22.597656 25.210938 22.640625 25.160156 22.691406 25.105469 C 22.632812 25.136719 22.574219 25.167969 22.515625 25.191406 C 22.226562 25.308594 21.9375 25.375 21.648438 25.40625 C 21.472656 25.425781 21.308594 25.445312 21.15625 25.464844 C 21.292969 25.34375 21.425781 25.214844 21.558594 25.085938 C 21.636719 25.140625 21.714844 25.195312 21.714844 25.195312 C 21.839844 25.054688 21.945312 24.90625 22.039062 24.757812 C 22.132812 24.613281 22.207031 24.453125 22.285156 24.296875 C 22.539062 23.996094 22.773438 23.6875 22.988281 23.367188 L 23.039062 23.402344 C 23.035156 23.367188 23.109375 23.269531 23.230469 23.117188 C 23.289062 23.042969 23.363281 22.957031 23.449219 22.859375 C 23.53125 22.761719 23.621094 22.652344 23.71875 22.53125 C 23.722656 22.527344 23.726562 22.523438 23.730469 22.519531 C 24.574219 21.617188 25.273438 20.578125 25.789062 19.4375 C 25.792969 19.4375 25.796875 19.433594 25.800781 19.429688 C 25.859375 19.390625 25.917969 19.347656 25.953125 19.355469 C 25.992188 19.367188 26.007812 19.429688 25.96875 19.59375 C 25.972656 19.691406 26.027344 19.445312 26.035156 19.160156 C 26.039062 19.058594 26.039062 18.953125 26.03125 18.859375 C 26.0625 18.773438 26.097656 18.6875 26.128906 18.597656 C 26.183594 18.71875 26.300781 18.785156 26.523438 18.769531 C 26.535156 18.449219 26.519531 18.1875 26.433594 18.085938 L 26.511719 18.144531 C 26.511719 18.144531 26.464844 17.992188 26.382812 17.789062 C 26.433594 17.605469 26.480469 17.421875 26.519531 17.234375 C 26.617188 17.40625 26.730469 17.507812 26.894531 17.417969 C 26.894531 17.417969 26.824219 17.273438 26.753906 17.125 C 26.71875 17.050781 26.679688 16.976562 26.652344 16.925781 C 26.625 16.871094 26.605469 16.835938 26.605469 16.835938 C 26.9375 17.035156 26.847656 16.265625 27.097656 16.410156 C 27.097656 16.410156 27.09375 16.386719 27.085938 16.339844 C 27.078125 16.296875 27.0625 16.234375 27.046875 16.160156 C 27.011719 16.007812 26.976562 15.808594 26.921875 15.613281 C 26.871094 15.425781 26.824219 15.238281 26.78125 15.097656 C 26.785156 15 26.785156 14.90625 26.785156 14.808594 L 27.023438 14.746094 C 27.023438 14.746094 26.996094 14.847656 26.96875 14.949219 C 26.957031 15 26.945312 15.050781 26.933594 15.085938 C 26.921875 15.125 26.914062 15.148438 26.914062 15.148438 C 27.113281 15.242188 27.203125 15.242188 27.230469 15.179688 C 27.257812 15.113281 27.21875 14.988281 27.164062 14.835938 Z M 3.902344 10.0625 C 3.941406 9.953125 3.976562 9.847656 4.003906 9.742188 C 4.007812 9.71875 4.011719 9.695312 4.019531 9.671875 C 4.109375 9.613281 4.195312 9.640625 4.265625 9.851562 C 4.265625 9.851562 4.132812 9.976562 3.996094 10.097656 C 3.925781 10.167969 3.855469 10.238281 3.808594 10.289062 C 3.84375 10.210938 3.878906 10.136719 3.902344 10.0625 Z M 4.089844 9.359375 C 4.105469 9.285156 4.125 9.210938 4.144531 9.140625 C 4.15625 9.085938 4.171875 9.03125 4.191406 8.980469 C 4.21875 9.15625 4.171875 9.273438 4.089844 9.359375 Z M 4.71875 9.515625 C 4.769531 9.511719 4.828125 9.519531 4.898438 9.550781 C 4.835938 9.625 4.769531 9.699219 4.707031 9.773438 C 4.707031 9.726562 4.707031 9.679688 4.710938 9.632812 C 4.714844 9.59375 4.714844 9.554688 4.71875 9.515625 Z M 3.125 12.082031 C 3.144531 11.945312 3.144531 11.792969 3.136719 11.632812 C 3.128906 11.433594 3.113281 11.226562 3.105469 11.035156 C 3.105469 11.011719 3.105469 10.992188 3.105469 10.96875 C 3.132812 10.90625 3.164062 10.851562 3.195312 10.816406 C 3.164062 10.824219 3.136719 10.835938 3.109375 10.851562 C 3.113281 10.742188 3.125 10.648438 3.152344 10.578125 C 3.171875 10.640625 3.261719 10.511719 3.371094 10.375 C 3.480469 10.410156 3.589844 10.257812 3.703125 10.078125 C 3.75 10.085938 3.773438 10.15625 3.765625 10.332031 C 3.75 10.347656 3.738281 10.355469 3.738281 10.355469 C 3.746094 10.355469 3.753906 10.355469 3.761719 10.355469 C 3.761719 10.363281 3.761719 10.375 3.757812 10.382812 C 3.765625 10.375 3.769531 10.363281 3.773438 10.355469 C 3.964844 10.34375 4.085938 10.277344 4.175781 10.1875 C 4.277344 10.09375 4.339844 9.96875 4.398438 9.847656 C 4.449219 9.742188 4.503906 9.644531 4.574219 9.582031 C 4.570312 9.589844 4.566406 9.597656 4.566406 9.605469 C 4.535156 9.695312 4.503906 9.796875 4.476562 9.894531 C 4.449219 9.984375 4.421875 10.074219 4.394531 10.160156 C 4.347656 10.222656 4.300781 10.285156 4.253906 10.347656 C 4.242188 10.351562 4.230469 10.355469 4.21875 10.355469 C 4.21875 10.367188 4.222656 10.378906 4.222656 10.390625 C 3.820312 10.941406 3.472656 11.527344 3.179688 12.128906 C 3.160156 12.113281 3.144531 12.097656 3.125 12.082031 Z M 26.554688 12.269531 C 26.6875 12.492188 26.765625 12.738281 26.613281 12.8125 C 26.570312 12.585938 26.523438 12.359375 26.46875 12.136719 C 26.5 12.179688 26.527344 12.222656 26.554688 12.269531 Z M 19.625 4.265625 C 19.617188 4.261719 19.613281 4.257812 19.605469 4.253906 C 19.609375 4.253906 19.609375 4.253906 19.613281 4.253906 C 19.617188 4.257812 19.621094 4.261719 19.625 4.265625 Z M 19.339844 4.03125 C 19.328125 4.019531 19.3125 4.007812 19.300781 4 C 19.300781 4 19.316406 4.011719 19.34375 4.035156 C 19.355469 4.046875 19.363281 4.0625 19.371094 4.074219 C 19.402344 4.121094 19.429688 4.164062 19.460938 4.199219 C 19.328125 4.148438 19.191406 4.101562 19.054688 4.054688 C 19.1875 3.867188 19.269531 3.925781 19.339844 4.03125 Z M 13.960938 2.875 C 13.925781 2.878906 13.90625 2.882812 13.90625 2.882812 C 13.890625 2.863281 13.886719 2.84375 13.886719 2.824219 C 13.914062 2.84375 13.9375 2.859375 13.960938 2.875 Z M 13.707031 2.710938 C 13.707031 2.710938 13.738281 2.730469 13.78125 2.757812 C 13.757812 2.757812 13.730469 2.761719 13.703125 2.761719 C 13.707031 2.746094 13.707031 2.726562 13.707031 2.710938 Z M 7.574219 4.257812 C 7.550781 4.28125 7.523438 4.300781 7.5 4.320312 C 7.496094 4.316406 7.488281 4.308594 7.484375 4.304688 C 7.515625 4.285156 7.546875 4.269531 7.574219 4.257812 Z M 6.847656 4.8125 C 6.921875 4.789062 6.996094 4.769531 7.066406 4.75 C 7 4.835938 6.957031 4.910156 6.953125 4.972656 L 6.9375 4.875 C 6.9375 4.875 6.859375 5.023438 6.769531 5.234375 C 6.675781 5.441406 6.589844 5.730469 6.550781 5.988281 C 6.613281 5.820312 6.734375 5.664062 6.867188 5.519531 C 7.007812 5.382812 7.164062 5.253906 7.289062 5.132812 C 7.488281 4.953125 7.617188 4.78125 7.515625 4.589844 C 7.59375 4.53125 7.613281 4.460938 7.542969 4.367188 C 7.660156 4.332031 7.753906 4.28125 7.835938 4.214844 C 7.964844 4.222656 8.070312 4.285156 8.140625 4.367188 C 8.09375 4.40625 8.046875 4.445312 8 4.492188 C 7.785156 4.683594 7.585938 4.933594 7.632812 5.035156 C 7.730469 5.015625 7.820312 4.851562 7.9375 4.738281 C 8.050781 4.625 8.179688 4.546875 8.316406 4.683594 C 8.625 4.511719 8.503906 4.492188 8.363281 4.464844 C 8.375 4.460938 8.382812 4.453125 8.394531 4.445312 C 8.496094 4.382812 8.628906 4.296875 8.765625 4.210938 C 8.902344 4.125 9.039062 4.046875 9.144531 3.988281 C 9.25 3.929688 9.320312 3.886719 9.320312 3.886719 C 9.507812 4.003906 9.375 4.476562 9.234375 4.492188 C 9.117188 4.523438 8.992188 4.59375 8.863281 4.667969 C 8.734375 4.746094 8.597656 4.824219 8.460938 4.898438 C 8.183594 5.054688 7.894531 5.15625 7.597656 5.074219 C 7.472656 5.269531 7.605469 5.328125 7.675781 5.398438 C 7.746094 5.472656 7.75 5.542969 7.402344 5.78125 C 6.898438 5.859375 6.425781 6.085938 5.996094 6.363281 C 6.011719 6.203125 6.105469 5.992188 6.183594 5.785156 C 6.308594 5.484375 6.410156 5.199219 6.152344 5.117188 C 6.152344 5.117188 6.09375 5.273438 6.039062 5.425781 C 6.027344 5.457031 6.019531 5.488281 6.007812 5.515625 C 5.878906 5.152344 6.378906 4.941406 6.847656 4.8125 Z M 5.632812 5.398438 C 5.6875 5.339844 5.738281 5.296875 5.769531 5.265625 C 5.804688 5.238281 5.824219 5.21875 5.824219 5.21875 L 6.003906 5.527344 C 5.992188 5.566406 5.980469 5.605469 5.96875 5.640625 C 5.953125 5.699219 5.941406 5.738281 5.941406 5.738281 C 5.851562 5.378906 5.410156 5.910156 5.300781 5.722656 C 5.425781 5.601562 5.542969 5.488281 5.632812 5.398438 Z M 4.671875 6.402344 C 4.671875 6.402344 4.734375 6.324219 4.839844 6.210938 C 4.9375 6.109375 5.0625 5.96875 5.195312 5.828125 C 5.179688 5.851562 5.164062 5.875 5.144531 5.902344 C 5.0625 6.035156 4.945312 6.199219 4.84375 6.378906 C 4.742188 6.554688 4.636719 6.726562 4.566406 6.859375 C 4.492188 6.996094 4.445312 7.085938 4.445312 7.085938 L 4.21875 6.953125 C 4.253906 6.90625 4.292969 6.863281 4.328125 6.820312 C 4.332031 6.816406 4.335938 6.816406 4.339844 6.8125 C 4.382812 6.785156 4.429688 6.761719 4.464844 6.742188 C 4.496094 6.722656 4.519531 6.710938 4.519531 6.710938 C 4.507812 6.679688 4.5 6.652344 4.488281 6.628906 C 4.59375 6.507812 4.675781 6.425781 4.71875 6.410156 Z M 2.457031 12.5625 C 2.664062 11.9375 2.613281 12.785156 2.855469 12.554688 C 2.914062 12.523438 2.957031 12.484375 2.992188 12.441406 C 2.996094 12.46875 2.996094 12.496094 2.996094 12.527344 C 2.910156 12.726562 2.832031 12.929688 2.757812 13.128906 C 2.679688 13.164062 2.613281 13.136719 2.558594 13.0625 C 2.523438 13.011719 2.492188 12.941406 2.472656 12.855469 C 2.457031 12.769531 2.453125 12.667969 2.457031 12.5625 Z M 10.375 27.957031 C 10.425781 27.972656 10.480469 27.988281 10.53125 28 C 10.53125 28.007812 10.53125 28.011719 10.53125 28.019531 C 10.472656 28.003906 10.417969 27.980469 10.375 27.957031 Z M 11.578125 28.226562 C 11.828125 28.269531 12.078125 28.300781 12.328125 28.328125 C 12.152344 28.445312 11.863281 28.363281 11.578125 28.226562 Z M 18.011719 27.859375 C 17.980469 27.863281 17.949219 27.867188 17.917969 27.867188 C 17.847656 27.867188 17.785156 27.851562 17.734375 27.828125 C 17.644531 27.789062 17.59375 27.71875 17.585938 27.640625 C 17.722656 27.585938 17.859375 27.53125 17.996094 27.472656 C 17.976562 27.507812 17.960938 27.558594 17.957031 27.632812 C 17.980469 27.714844 18.03125 27.765625 18.109375 27.796875 C 18.074219 27.8125 18.042969 27.832031 18.011719 27.859375 Z M 18.289062 27.4375 C 18.238281 27.425781 18.183594 27.414062 18.136719 27.414062 C 18.269531 27.355469 18.398438 27.296875 18.527344 27.230469 C 18.574219 27.484375 18.441406 27.472656 18.289062 27.4375 Z M 18.289062 27.4375 " fill-opacity="1" fill-rule="nonzero"/></g><g clip-path="url(#e8d30a2cf7)"><path fill="#e2a002" d="M 16.457031 28.007812 C 16.457031 28.054688 16.457031 28.089844 16.457031 28.089844 C 16.464844 28.058594 16.464844 28.03125 16.457031 28.007812 Z M 16.457031 28.007812 " fill-opacity="1" fill-rule="nonzero"/></g><path fill="#006a75" d="M 7.703125 23.027344 C 7.703125 23.023438 7.703125 23.019531 7.703125 23.015625 C 7.703125 22.976562 7.707031 22.933594 7.707031 22.890625 C 7.707031 22.886719 7.707031 22.878906 7.707031 22.871094 C 7.707031 22.828125 7.707031 22.78125 7.703125 22.730469 C 7.703125 22.722656 7.703125 22.71875 7.703125 22.714844 C 7.703125 22.660156 7.699219 22.609375 7.691406 22.550781 C 7.691406 22.550781 7.691406 22.546875 7.691406 22.542969 C 7.6875 22.484375 7.679688 22.425781 7.667969 22.363281 C 7.667969 22.363281 7.667969 22.363281 7.667969 22.359375 C 7.652344 22.242188 7.628906 22.121094 7.597656 21.996094 C 7.578125 21.925781 7.554688 21.847656 7.53125 21.769531 C 7.46875 21.578125 7.378906 21.355469 7.242188 21.121094 C 7.242188 21.117188 7.242188 21.113281 7.242188 21.105469 C 7.25 21.070312 7.253906 21.023438 7.261719 20.957031 C 7.28125 20.828125 7.308594 20.644531 7.355469 20.425781 C 7.394531 20.203125 7.457031 19.949219 7.527344 19.675781 C 7.566406 19.542969 7.605469 19.402344 7.648438 19.261719 C 7.671875 19.191406 7.695312 19.117188 7.71875 19.046875 C 7.742188 18.976562 7.765625 18.90625 7.792969 18.835938 C 7.839844 18.691406 7.894531 18.550781 7.949219 18.414062 C 8 18.273438 8.0625 18.144531 8.117188 18.011719 C 8.171875 17.882812 8.234375 17.761719 8.292969 17.644531 C 8.320312 17.585938 8.347656 17.527344 8.375 17.472656 C 8.402344 17.417969 8.429688 17.367188 8.457031 17.316406 C 8.511719 17.21875 8.5625 17.125 8.609375 17.046875 C 8.65625 16.96875 8.699219 16.898438 8.730469 16.839844 C 8.800781 16.726562 8.839844 16.664062 8.839844 16.664062 C 8.839844 16.664062 8.796875 16.726562 8.722656 16.835938 C 8.6875 16.890625 8.640625 16.957031 8.589844 17.035156 C 8.539062 17.113281 8.484375 17.203125 8.425781 17.300781 C 8.398438 17.347656 8.367188 17.398438 8.335938 17.453125 C 8.304688 17.503906 8.273438 17.5625 8.242188 17.617188 C 8.179688 17.734375 8.109375 17.851562 8.050781 17.980469 C 7.988281 18.109375 7.917969 18.242188 7.859375 18.378906 C 7.800781 18.515625 7.734375 18.652344 7.679688 18.792969 C 7.652344 18.863281 7.625 18.933594 7.59375 19.003906 C 7.570312 19.078125 7.542969 19.148438 7.515625 19.21875 C 7.460938 19.359375 7.417969 19.496094 7.371094 19.632812 C 7.285156 19.90625 7.210938 20.160156 7.15625 20.382812 C 7.113281 20.558594 7.082031 20.710938 7.054688 20.835938 C 6.90625 20.628906 6.71875 20.421875 6.484375 20.242188 C 6.449219 20.214844 6.414062 20.1875 6.375 20.160156 C 6.363281 20.152344 6.351562 20.144531 6.339844 20.136719 C 6.3125 20.117188 6.289062 20.101562 6.261719 20.082031 C 6.246094 20.074219 6.230469 20.0625 6.21875 20.054688 C 6.191406 20.039062 6.167969 20.023438 6.144531 20.011719 C 6.125 20 6.109375 19.992188 6.09375 19.980469 C 6.082031 19.972656 6.066406 19.96875 6.054688 19.960938 C 6.066406 19.738281 6.09375 19.523438 6.140625 19.316406 C 6.445312 17.945312 7.484375 17.128906 7.917969 16.839844 C 8.4375 16.488281 8.890625 16.339844 9.101562 16.28125 C 9.140625 16.488281 9.21875 16.960938 9.296875 17.507812 C 9.398438 18.277344 9.488281 19.171875 9.304688 20 C 9.117188 20.824219 8.648438 21.597656 8.222656 22.257812 C 8 22.59375 7.8125 22.867188 7.703125 23.027344 " fill-opacity="1" fill-rule="nonzero"/><g clip-path="url(#ef191a8777)"><path fill="#006a75" d="M 8.484375 24.039062 C 8.203125 23.847656 7.925781 23.632812 7.65625 23.40625 C 7.660156 23.398438 7.660156 23.394531 7.660156 23.386719 C 7.660156 23.382812 7.660156 23.378906 7.664062 23.375 C 7.664062 23.371094 7.664062 23.363281 7.664062 23.359375 C 7.667969 23.351562 7.667969 23.34375 7.667969 23.335938 C 7.671875 23.324219 7.671875 23.308594 7.675781 23.296875 C 7.675781 23.292969 7.675781 23.289062 7.675781 23.285156 C 7.679688 23.273438 7.679688 23.261719 7.683594 23.25 C 7.976562 23.484375 8.28125 23.699219 8.585938 23.890625 C 9.230469 24.289062 9.921875 24.617188 10.640625 24.867188 C 11.375 25.125 12.171875 25.292969 13.011719 25.371094 C 13.09375 25.382812 13.175781 25.386719 13.257812 25.390625 L 13.632812 25.410156 L 14.125 25.410156 L 14.597656 25.390625 C 14.667969 25.386719 14.734375 25.378906 14.804688 25.371094 C 14.84375 25.367188 14.882812 25.363281 14.917969 25.363281 C 15.082031 25.347656 15.246094 25.324219 15.40625 25.300781 C 15.457031 25.292969 15.511719 25.285156 15.5625 25.277344 C 16.085938 25.1875 16.480469 25.09375 16.84375 24.976562 C 16.996094 24.9375 17.148438 24.882812 17.292969 24.828125 C 17.351562 24.808594 17.414062 24.785156 17.472656 24.765625 C 17.542969 24.738281 17.605469 24.710938 17.671875 24.683594 C 17.710938 24.667969 17.746094 24.65625 17.78125 24.640625 L 17.9375 24.574219 L 18.089844 24.503906 C 18.902344 24.132812 19.667969 23.640625 20.367188 23.046875 C 20.679688 22.777344 21 22.464844 21.339844 22.082031 C 21.617188 21.765625 21.890625 21.410156 22.167969 20.984375 C 22.398438 20.632812 22.613281 20.238281 22.828125 19.777344 C 23.003906 19.402344 23.160156 18.976562 23.304688 18.488281 C 23.417969 18.089844 23.507812 17.648438 23.578125 17.140625 L 23.617188 16.796875 C 23.625 16.738281 23.625 16.679688 23.628906 16.625 L 23.648438 16.300781 C 23.648438 16.265625 23.648438 16.222656 23.648438 16.179688 C 23.648438 16.160156 23.648438 16.136719 23.648438 16.117188 L 23.652344 15.753906 L 23.648438 15.753906 C 23.648438 15.75 23.648438 15.746094 23.648438 15.742188 L 23.632812 15.425781 C 23.632812 15.320312 23.621094 15.210938 23.609375 15.105469 L 23.605469 15.082031 C 23.601562 15.042969 23.597656 15 23.59375 14.960938 C 23.585938 14.890625 23.582031 14.8125 23.566406 14.738281 L 23.515625 14.40625 C 23.421875 13.902344 23.3125 13.472656 23.183594 13.085938 C 23.015625 12.605469 22.84375 12.199219 22.65625 11.835938 C 22.425781 11.394531 22.195312 11.019531 21.957031 10.6875 C 21.667969 10.289062 21.386719 9.949219 21.105469 9.65625 C 20.757812 9.304688 20.4375 9.015625 20.121094 8.769531 C 19.429688 8.230469 18.675781 7.792969 17.886719 7.476562 L 17.742188 7.414062 L 17.589844 7.359375 C 17.550781 7.347656 17.511719 7.332031 17.476562 7.320312 C 17.414062 7.296875 17.351562 7.273438 17.292969 7.253906 C 17.226562 7.234375 17.167969 7.21875 17.109375 7.199219 C 16.972656 7.15625 16.828125 7.113281 16.683594 7.078125 C 16.246094 6.960938 15.804688 6.894531 15.472656 6.851562 C 15.417969 6.847656 15.367188 6.839844 15.3125 6.835938 C 15.167969 6.820312 15.011719 6.804688 14.871094 6.800781 L 14.582031 6.785156 L 13.996094 6.785156 L 13.996094 6.792969 L 13.605469 6.8125 L 13.316406 6.839844 C 13.238281 6.847656 13.164062 6.855469 13.085938 6.871094 C 12.3125 6.976562 11.585938 7.164062 10.925781 7.429688 C 10.277344 7.6875 9.664062 8.015625 9.097656 8.402344 C 8.113281 9.082031 7.257812 9.964844 6.625 10.964844 C 6.59375 11.015625 6.5625 11.0625 6.53125 11.113281 L 6.460938 11.230469 L 8.460938 11.976562 L 3.777344 15.179688 L 2.453125 9.742188 L 4.351562 10.445312 L 4.402344 10.363281 C 4.523438 10.167969 4.652344 9.972656 4.785156 9.78125 C 5.621094 8.582031 6.722656 7.535156 7.96875 6.753906 C 8.679688 6.308594 9.445312 5.9375 10.246094 5.660156 C 11.066406 5.371094 11.953125 5.179688 12.886719 5.09375 C 12.976562 5.082031 13.066406 5.078125 13.160156 5.070312 L 13.34375 5.0625 C 13.421875 5.058594 13.503906 5.050781 13.585938 5.050781 L 14.113281 5.046875 L 14.300781 5.054688 L 14.710938 5.074219 L 14.992188 5.097656 C 15.191406 5.113281 15.371094 5.140625 15.5625 5.167969 C 15.613281 5.175781 15.667969 5.183594 15.722656 5.191406 C 16.28125 5.285156 16.734375 5.390625 17.144531 5.519531 C 17.324219 5.570312 17.5 5.632812 17.667969 5.691406 C 17.730469 5.714844 17.789062 5.734375 17.851562 5.757812 C 17.925781 5.785156 18.003906 5.816406 18.082031 5.851562 L 18.367188 5.96875 L 18.535156 6.046875 C 19.445312 6.457031 20.296875 7 21.074219 7.664062 C 21.429688 7.964844 21.785156 8.3125 22.160156 8.734375 C 22.476562 9.089844 22.78125 9.488281 23.089844 9.953125 C 23.347656 10.347656 23.589844 10.789062 23.828125 11.296875 C 24.027344 11.722656 24.199219 12.195312 24.363281 12.738281 C 24.492188 13.183594 24.59375 13.675781 24.671875 14.238281 L 24.714844 14.621094 C 24.726562 14.703125 24.730469 14.785156 24.734375 14.867188 C 24.734375 14.914062 24.738281 14.960938 24.742188 15.003906 L 24.742188 15.019531 C 24.75 15.136719 24.757812 15.261719 24.753906 15.382812 L 24.757812 15.785156 L 24.738281 16.144531 C 24.738281 16.164062 24.738281 16.1875 24.738281 16.210938 C 24.734375 16.246094 24.734375 16.28125 24.730469 16.324219 L 24.710938 16.523438 C 24.707031 16.566406 24.703125 16.609375 24.699219 16.65625 C 24.691406 16.746094 24.683594 16.828125 24.667969 16.90625 L 24.613281 17.289062 C 24.511719 17.839844 24.390625 18.324219 24.242188 18.765625 C 24.0625 19.292969 23.871094 19.75 23.660156 20.160156 C 23.40625 20.648438 23.152344 21.070312 22.882812 21.449219 C 22.5625 21.890625 22.25 22.265625 21.933594 22.601562 C 21.550781 22.992188 21.191406 23.316406 20.839844 23.59375 C 20.066406 24.199219 19.226562 24.691406 18.339844 25.050781 L 18.171875 25.121094 L 17.894531 25.222656 C 17.820312 25.25 17.746094 25.277344 17.671875 25.300781 C 17.613281 25.320312 17.554688 25.339844 17.492188 25.359375 C 17.324219 25.410156 17.164062 25.460938 17 25.5 C 16.605469 25.605469 16.171875 25.6875 15.636719 25.757812 C 15.585938 25.765625 15.53125 25.769531 15.480469 25.777344 C 15.300781 25.796875 15.132812 25.8125 14.960938 25.820312 C 14.917969 25.820312 14.878906 25.824219 14.839844 25.824219 C 14.765625 25.828125 14.695312 25.832031 14.621094 25.835938 L 14.136719 25.835938 L 13.949219 25.828125 L 13.625 25.8125 L 13.226562 25.777344 C 13.140625 25.769531 13.054688 25.761719 12.976562 25.75 C 12.105469 25.628906 11.289062 25.421875 10.542969 25.125 C 9.816406 24.839844 9.125 24.472656 8.484375 24.039062 " fill-opacity="1" fill-rule="nonzero"/></g><path fill="#006a75" d="M 6.84375 22.558594 C 6.902344 22.621094 6.949219 22.675781 6.992188 22.722656 C 7.03125 22.769531 7.066406 22.804688 7.085938 22.828125 C 7.109375 22.855469 7.121094 22.867188 7.121094 22.867188 C 7.121094 22.867188 7.113281 22.851562 7.097656 22.824219 C 7.082031 22.792969 7.0625 22.75 7.03125 22.695312 C 7 22.640625 6.960938 22.578125 6.914062 22.503906 C 6.867188 22.433594 6.816406 22.351562 6.753906 22.265625 C 6.722656 22.222656 6.6875 22.179688 6.65625 22.132812 C 6.621094 22.085938 6.582031 22.039062 6.542969 21.992188 C 6.46875 21.898438 6.382812 21.800781 6.292969 21.703125 C 6.25 21.652344 6.199219 21.605469 6.152344 21.554688 C 6.105469 21.507812 6.058594 21.457031 6.003906 21.40625 C 5.898438 21.316406 5.796875 21.214844 5.6875 21.125 C 5.574219 21.035156 5.460938 20.945312 5.34375 20.867188 C 5.285156 20.824219 5.230469 20.785156 5.171875 20.746094 C 5.113281 20.710938 5.054688 20.675781 4.996094 20.640625 C 4.9375 20.609375 4.878906 20.574219 4.824219 20.542969 C 4.765625 20.511719 4.707031 20.484375 4.652344 20.457031 C 4.539062 20.40625 4.4375 20.351562 4.332031 20.320312 C 4.230469 20.28125 4.136719 20.25 4.054688 20.21875 C 3.972656 20.195312 3.898438 20.179688 3.835938 20.164062 C 3.714844 20.136719 3.644531 20.121094 3.644531 20.121094 C 3.644531 20.121094 3.707031 20.15625 3.820312 20.207031 C 3.875 20.234375 3.945312 20.265625 4.023438 20.300781 C 4.097656 20.34375 4.183594 20.390625 4.273438 20.4375 C 4.367188 20.484375 4.464844 20.550781 4.566406 20.609375 C 4.617188 20.640625 4.671875 20.671875 4.722656 20.707031 C 4.773438 20.742188 4.828125 20.777344 4.882812 20.8125 C 4.9375 20.851562 4.992188 20.886719 5.046875 20.925781 C 5.097656 20.964844 5.152344 21.007812 5.207031 21.046875 C 5.320312 21.125 5.425781 21.214844 5.53125 21.300781 C 5.644531 21.386719 5.742188 21.484375 5.847656 21.570312 C 5.949219 21.664062 6.050781 21.753906 6.144531 21.84375 C 6.234375 21.933594 6.328125 22.019531 6.410156 22.105469 C 6.496094 22.191406 6.574219 22.273438 6.648438 22.347656 C 6.71875 22.425781 6.785156 22.496094 6.84375 22.558594 Z M 4.851562 22.230469 C 4.351562 21.832031 3.976562 21.269531 3.667969 20.773438 C 3.457031 20.429688 3.292969 20.144531 3.210938 19.996094 C 3.371094 19.933594 3.691406 19.828125 4.128906 19.796875 C 4.484375 19.769531 5.1875 19.773438 5.878906 20.132812 C 6.042969 20.214844 6.199219 20.3125 6.335938 20.421875 C 6.898438 20.859375 7.171875 21.433594 7.304688 21.839844 C 7.328125 21.914062 7.351562 21.984375 7.367188 22.050781 C 7.394531 22.167969 7.417969 22.285156 7.433594 22.394531 C 7.5 22.820312 7.460938 23.148438 7.433594 23.316406 C 7.269531 23.269531 6.949219 23.175781 6.558594 23.046875 C 5.996094 22.859375 5.355469 22.621094 4.851562 22.230469 " fill-opacity="1" fill-rule="nonzero"/><g fill="#006a75" fill-opacity="1"><g transform="translate(29.349406, 25.350388)"><g><path d="M 3.625 -13.3125 L 3.625 0 L 1.03125 0 L 1.03125 -18.375 L 4.640625 -18.375 L 7.609375 -7.375 L 7.609375 -18.375 L 10.1875 -18.375 L 10.1875 0 L 7.21875 0 Z M 3.625 -13.3125 "/></g></g></g><g fill="#006a75" fill-opacity="1"><g transform="translate(42.236836, 25.350388)"><g><path d="M 10.390625 0 L 7.484375 0 L 6.984375 -3.328125 L 3.4375 -3.328125 L 2.9375 0 L 0.28125 0 L 3.234375 -18.375 L 7.453125 -18.375 Z M 3.8125 -5.828125 L 6.59375 -5.828125 L 5.203125 -15.125 Z M 3.8125 -5.828125 "/></g></g></g><g fill="#006a75" fill-opacity="1"><g transform="translate(54.599327, 25.350388)"><g><path d="M 7.09375 0 C 7.050781 -0.125 7.015625 -0.238281 6.984375 -0.34375 C 6.953125 -0.445312 6.921875 -0.578125 6.890625 -0.734375 C 6.859375 -0.890625 6.835938 -1.085938 6.828125 -1.328125 C 6.828125 -1.578125 6.828125 -1.882812 6.828125 -2.25 L 6.828125 -5.140625 C 6.828125 -6.003906 6.675781 -6.609375 6.375 -6.953125 C 6.082031 -7.304688 5.601562 -7.484375 4.9375 -7.484375 L 3.9375 -7.484375 L 3.9375 0 L 1.046875 0 L 1.046875 -18.375 L 5.40625 -18.375 C 6.914062 -18.375 8.003906 -18.023438 8.671875 -17.328125 C 9.347656 -16.628906 9.6875 -15.570312 9.6875 -14.15625 L 9.6875 -12.703125 C 9.6875 -10.816406 9.054688 -9.578125 7.796875 -8.984375 C 8.535156 -8.679688 9.039062 -8.191406 9.3125 -7.515625 C 9.582031 -6.847656 9.71875 -6.03125 9.71875 -5.0625 L 9.71875 -2.234375 C 9.71875 -1.773438 9.734375 -1.375 9.765625 -1.03125 C 9.796875 -0.695312 9.882812 -0.351562 10.03125 0 Z M 3.9375 -15.75 L 3.9375 -10.109375 L 5.0625 -10.109375 C 5.601562 -10.109375 6.023438 -10.25 6.328125 -10.53125 C 6.640625 -10.8125 6.796875 -11.316406 6.796875 -12.046875 L 6.796875 -13.859375 C 6.796875 -14.523438 6.675781 -15.003906 6.4375 -15.296875 C 6.207031 -15.597656 5.835938 -15.75 5.328125 -15.75 Z M 3.9375 -15.75 "/></g></g></g><g fill="#006a75" fill-opacity="1"><g transform="translate(66.830583, 25.350388)"><g><path d="M 10.390625 0 L 7.484375 0 L 6.984375 -3.328125 L 3.4375 -3.328125 L 2.9375 0 L 0.28125 0 L 3.234375 -18.375 L 7.453125 -18.375 Z M 3.8125 -5.828125 L 6.59375 -5.828125 L 5.203125 -15.125 Z M 3.8125 -5.828125 "/></g></g></g><g fill="#006a75" fill-opacity="1"><g transform="translate(79.193071, 25.350388)"><g><path d="M 3.625 -13.3125 L 3.625 0 L 1.03125 0 L 1.03125 -18.375 L 4.640625 -18.375 L 7.609375 -7.375 L 7.609375 -18.375 L 10.1875 -18.375 L 10.1875 0 L 7.21875 0 Z M 3.625 -13.3125 "/></g></g></g><g fill="#006a75" fill-opacity="1"><g transform="translate(92.080499, 25.350388)"><g><path d="M 0.265625 -2.625 C 0.421875 -2.601562 0.585938 -2.59375 0.765625 -2.59375 C 0.941406 -2.59375 1.109375 -2.59375 1.265625 -2.59375 C 1.710938 -2.59375 2.097656 -2.707031 2.421875 -2.9375 C 2.742188 -3.164062 2.90625 -3.640625 2.90625 -4.359375 L 2.90625 -18.375 L 5.796875 -18.375 L 5.796875 -4.5625 C 5.796875 -3.632812 5.679688 -2.875 5.453125 -2.28125 C 5.234375 -1.6875 4.929688 -1.21875 4.546875 -0.875 C 4.160156 -0.539062 3.71875 -0.300781 3.21875 -0.15625 C 2.71875 -0.0195312 2.195312 0.046875 1.65625 0.046875 C 1.394531 0.046875 1.15625 0.046875 0.9375 0.046875 C 0.726562 0.046875 0.503906 0.03125 0.265625 0 Z M 0.265625 -2.625 "/></g></g></g><g fill="#006a75" fill-opacity="1"><g transform="translate(100.479697, 25.350388)"><g><path d="M 10.390625 0 L 7.484375 0 L 6.984375 -3.328125 L 3.4375 -3.328125 L 2.9375 0 L 0.28125 0 L 3.234375 -18.375 L 7.453125 -18.375 Z M 3.8125 -5.828125 L 6.59375 -5.828125 L 5.203125 -15.125 Z M 3.8125 -5.828125 "/></g></g></g></svg>