<svg xmlns="http://www.w3.org/2000/svg" xmlns:xlink="http://www.w3.org/1999/xlink" width="500" zoomAndPan="magnify" viewBox="0 0 375 374.999991" height="500" preserveAspectRatio="xMidYMid meet" version="1.0"><defs><g/><clipPath id="37dc2b1fa8"><path d="M 47 125.234375 L 48 125.234375 L 48 127 L 47 127 Z M 47 125.234375 " clip-rule="nonzero"/></clipPath><clipPath id="290583046b"><path d="M 58 125.234375 L 61 125.234375 L 61 126 L 58 126 Z M 58 125.234375 " clip-rule="nonzero"/></clipPath><clipPath id="4b9b318d96"><path d="M 53 125.234375 L 54 125.234375 L 54 127 L 53 127 Z M 53 125.234375 " clip-rule="nonzero"/></clipPath><clipPath id="6bcd8a1bf9"><path d="M 50 125.234375 L 53 125.234375 L 53 127 L 50 127 Z M 50 125.234375 " clip-rule="nonzero"/></clipPath><clipPath id="9782ffba79"><path d="M 19.773438 150 L 21 150 L 21 152 L 19.773438 152 Z M 19.773438 150 " clip-rule="nonzero"/></clipPath><clipPath id="73a45c7260"><path d="M 19.773438 147 L 23 147 L 23 151 L 19.773438 151 Z M 19.773438 147 " clip-rule="nonzero"/></clipPath><clipPath id="5f877f11a3"><path d="M 21 125.234375 L 90.273438 125.234375 L 90.273438 196.484375 L 21 196.484375 Z M 21 125.234375 " clip-rule="nonzero"/></clipPath><clipPath id="52d6e9b395"><path d="M 25.976562 132.878906 L 84.300781 132.878906 L 84.300781 189.128906 L 25.976562 189.128906 Z M 25.976562 132.878906 " clip-rule="nonzero"/></clipPath></defs><g clip-path="url(#37dc2b1fa8)"><path fill="#e2a002" d="M 47.175781 126.210938 C 47.167969 126.121094 47.152344 126.027344 47.125 125.921875 C 46.988281 126.078125 47.035156 126.160156 47.175781 126.210938 Z M 47.175781 126.210938 " fill-opacity="1" fill-rule="nonzero"/></g><g clip-path="url(#290583046b)"><path fill="#e2a002" d="M 59.347656 125.886719 C 59.644531 125.890625 59.941406 125.890625 59.941406 125.890625 C 59.996094 125.902344 60.035156 125.910156 60.054688 125.910156 C 60.0625 125.910156 60.074219 125.90625 60.082031 125.90625 C 60.082031 125.867188 58.941406 125.535156 58.90625 125.886719 C 58.917969 125.882812 58.925781 125.882812 58.9375 125.882812 C 59.050781 125.882812 59.199219 125.886719 59.347656 125.886719 Z M 59.347656 125.886719 " fill-opacity="1" fill-rule="nonzero"/></g><g clip-path="url(#4b9b318d96)"><path fill="#e2a002" d="M 53.636719 126.125 C 53.503906 126.066406 53.351562 126.023438 53.195312 125.996094 C 53.320312 126.039062 53.472656 126.082031 53.636719 126.125 Z M 53.636719 126.125 " fill-opacity="1" fill-rule="nonzero"/></g><path fill="#e2a002" d="M 56.933594 126.492188 C 56.703125 126.425781 56.464844 126.375 56.21875 126.339844 C 56.011719 126.308594 55.796875 126.292969 55.578125 126.289062 C 55.359375 126.296875 55.136719 126.320312 54.910156 126.359375 C 54.910156 126.359375 54.914062 126.367188 54.917969 126.375 C 55.230469 126.417969 55.558594 126.457031 55.886719 126.476562 C 56.238281 126.507812 56.589844 126.507812 56.933594 126.492188 Z M 56.933594 126.492188 " fill-opacity="1" fill-rule="nonzero"/><g clip-path="url(#6bcd8a1bf9)"><path fill="#e2a002" d="M 52.160156 126.191406 C 52.425781 126.132812 52.601562 126.09375 52.601562 126.09375 C 52.601562 126.09375 52.445312 125.875 52.289062 125.660156 C 52.128906 125.445312 51.972656 125.234375 51.972656 125.234375 C 50.652344 125.253906 50.8125 125.613281 50.953125 125.988281 C 51.019531 126.171875 51.078125 126.359375 50.953125 126.515625 C 51.035156 126.492188 51.117188 126.46875 51.199219 126.449219 C 51.546875 126.355469 51.898438 126.261719 52.160156 126.191406 Z M 52.160156 126.191406 " fill-opacity="1" fill-rule="nonzero"/></g><path fill="#e2a002" d="M 50.949219 126.515625 C 50.953125 126.515625 50.953125 126.515625 50.953125 126.515625 C 50.691406 126.585938 50.441406 126.65625 50.242188 126.726562 C 49.984375 126.808594 49.8125 126.863281 49.8125 126.863281 C 50.160156 126.828125 50.410156 126.777344 50.589844 126.714844 C 50.773438 126.660156 50.886719 126.59375 50.949219 126.515625 Z M 50.949219 126.515625 " fill-opacity="1" fill-rule="nonzero"/><path fill="#e2a002" d="M 73.117188 192.636719 C 73.039062 192.75 72.925781 192.871094 72.796875 193 C 72.933594 192.960938 73.0625 192.910156 73.1875 192.832031 Z M 73.117188 192.636719 " fill-opacity="1" fill-rule="nonzero"/><path fill="#e2a002" d="M 72.9375 192.144531 L 73.117188 192.636719 C 73.277344 192.398438 73.285156 192.214844 72.9375 192.144531 Z M 72.9375 192.144531 " fill-opacity="1" fill-rule="nonzero"/><path fill="#e2a002" d="M 68.457031 194.386719 C 68.097656 194.757812 67.71875 195.09375 67.71875 195.09375 C 68.046875 195.027344 68.597656 194.863281 68.96875 194.617188 C 69.34375 194.375 69.535156 194.058594 69.167969 193.664062 C 69.167969 193.664062 68.8125 194.027344 68.457031 194.386719 Z M 68.457031 194.386719 " fill-opacity="1" fill-rule="nonzero"/><path fill="#e2a002" d="M 79.484375 182.007812 L 79.160156 181.785156 C 79.183594 181.925781 79.257812 182.027344 79.484375 182.007812 Z M 79.484375 182.007812 " fill-opacity="1" fill-rule="nonzero"/><path fill="#e2a002" d="M 24.332031 147.257812 C 24.304688 147.183594 24.261719 147.109375 24.203125 147.03125 C 24.199219 147.03125 24.25 147.121094 24.332031 147.257812 Z M 24.332031 147.257812 " fill-opacity="1" fill-rule="nonzero"/><path fill="#e2a002" d="M 55.328125 195.273438 L 55.289062 195.214844 C 55.285156 195.238281 55.300781 195.257812 55.328125 195.273438 Z M 55.328125 195.273438 " fill-opacity="1" fill-rule="nonzero"/><path fill="#e2a002" d="M 73.984375 132.683594 C 74.074219 132.59375 74.136719 132.53125 74.136719 132.53125 C 74.058594 132.570312 74.011719 132.625 73.984375 132.683594 Z M 73.984375 132.683594 " fill-opacity="1" fill-rule="nonzero"/><path fill="#e2a002" d="M 88.390625 169.445312 C 88.371094 169.449219 88.351562 169.449219 88.328125 169.449219 C 88.328125 169.480469 88.328125 169.511719 88.328125 169.542969 C 88.347656 169.511719 88.367188 169.480469 88.390625 169.445312 Z M 88.390625 169.445312 " fill-opacity="1" fill-rule="nonzero"/><path fill="#e2a002" d="M 87.960938 172.445312 C 88.105469 171.566406 88.261719 170.507812 88.324219 169.59375 C 88.324219 169.574219 88.324219 169.558594 88.328125 169.542969 C 88.015625 170.007812 87.878906 170.394531 87.867188 170.824219 C 87.855469 171.285156 87.929688 171.785156 87.960938 172.445312 Z M 87.960938 172.445312 " fill-opacity="1" fill-rule="nonzero"/><path fill="#e2a002" d="M 85.335938 179.597656 C 85.40625 179.65625 85.484375 179.710938 85.578125 179.769531 C 85.566406 179.558594 85.472656 179.535156 85.335938 179.597656 Z M 85.335938 179.597656 " fill-opacity="1" fill-rule="nonzero"/><path fill="#e2a002" d="M 83.363281 179.28125 C 83.363281 179.28125 83.605469 178.941406 83.835938 178.589844 C 84.058594 178.230469 84.28125 177.875 84.28125 177.875 C 84.570312 178.28125 84.390625 178.769531 84.175781 179.203125 C 83.960938 179.640625 83.753906 180.042969 84.046875 180.351562 C 84.402344 180.460938 85.003906 179.757812 85.335938 179.597656 C 84.753906 179.125 84.925781 178.644531 85.039062 178.257812 C 85.164062 177.828125 85.199219 177.523438 84.011719 177.472656 C 83.960938 177.574219 83.90625 177.679688 83.855469 177.792969 C 83.683594 178.1875 83.527344 178.660156 83.363281 179.28125 Z M 83.363281 179.28125 " fill-opacity="1" fill-rule="nonzero"/><path fill="#e2a002" d="M 85.226562 174.160156 C 85.164062 174.792969 85.050781 175.285156 84.914062 175.695312 C 84.804688 175.980469 84.6875 176.222656 84.5625 176.453125 C 84.695312 176.378906 84.835938 176.359375 84.976562 176.339844 C 85.347656 176.285156 85.769531 176.222656 86.066406 175.09375 C 86.066406 175.09375 85.859375 174.859375 85.648438 174.621094 C 85.4375 174.390625 85.226562 174.160156 85.226562 174.160156 Z M 85.226562 174.160156 " fill-opacity="1" fill-rule="nonzero"/><path fill="#e2a002" d="M 83.980469 177.472656 C 83.992188 177.472656 84 177.472656 84.011719 177.472656 C 84.144531 177.21875 84.277344 176.992188 84.402344 176.757812 C 84.457031 176.65625 84.511719 176.554688 84.5625 176.453125 C 84.523438 176.476562 84.484375 176.503906 84.445312 176.539062 C 84.273438 176.683594 84.140625 176.960938 83.980469 177.472656 Z M 83.980469 177.472656 " fill-opacity="1" fill-rule="nonzero"/><path fill="#e2a002" d="M 79.339844 185.5 C 79.492188 185.339844 79.632812 185.167969 79.765625 184.980469 C 79.765625 184.980469 79.757812 184.976562 79.746094 184.976562 C 79.496094 185.164062 79.238281 185.371094 78.992188 185.589844 C 78.71875 185.816406 78.46875 186.066406 78.238281 186.320312 C 78.449219 186.203125 78.652344 186.070312 78.851562 185.921875 C 79.019531 185.796875 79.183594 185.65625 79.339844 185.5 Z M 79.339844 185.5 " fill-opacity="1" fill-rule="nonzero"/><path fill="#e2a002" d="M 80.828125 184.246094 C 80.964844 184.1875 81.101562 184.113281 81.234375 184.019531 C 81.113281 184.082031 80.976562 184.15625 80.828125 184.246094 Z M 80.828125 184.246094 " fill-opacity="1" fill-rule="nonzero"/><path fill="#e2a002" d="M 80.179688 184.34375 C 79.894531 184.28125 79.765625 184.058594 79.921875 183.59375 C 79.921875 183.59375 80.242188 183.585938 80.5625 183.578125 C 80.886719 183.5625 81.214844 183.550781 81.214844 183.550781 C 81.214844 183.550781 81.210938 183.390625 81.203125 183.148438 C 81.203125 182.910156 81.183594 182.589844 81.160156 182.269531 C 81.117188 181.628906 81.058594 181.015625 81.058594 181.015625 C 81.070312 181.464844 80.910156 181.839844 80.691406 182.160156 C 80.476562 182.480469 80.167969 182.722656 79.925781 182.960938 C 79.4375 183.4375 79.105469 183.8125 79.761719 184.515625 C 79.761719 184.515625 79.507812 184.566406 79.253906 184.621094 C 79.003906 184.671875 78.753906 184.722656 78.753906 184.722656 C 78.753906 184.722656 79.003906 184.789062 79.257812 184.851562 C 79.472656 184.90625 79.6875 184.960938 79.746094 184.976562 C 80.132812 184.683594 80.511719 184.433594 80.828125 184.242188 C 80.589844 184.34375 80.359375 184.382812 80.179688 184.34375 Z M 80.179688 184.34375 " fill-opacity="1" fill-rule="nonzero"/><path fill="#e2a002" d="M 76.960938 188.460938 C 76.746094 188.671875 76.535156 188.878906 76.535156 188.878906 C 76.488281 188.914062 76.460938 188.933594 76.441406 188.949219 C 76.4375 188.953125 76.429688 188.960938 76.425781 188.96875 C 76.453125 188.996094 77.496094 188.421875 77.269531 188.152344 C 77.265625 188.160156 77.257812 188.164062 77.25 188.175781 C 77.171875 188.253906 77.066406 188.355469 76.960938 188.460938 Z M 76.960938 188.460938 " fill-opacity="1" fill-rule="nonzero"/><path fill="#e2a002" d="M 83.011719 181.007812 C 82.792969 181.277344 82.648438 181.492188 82.566406 181.664062 C 82.476562 181.832031 82.441406 181.957031 82.453125 182.058594 C 82.453125 182.0625 82.453125 182.0625 82.453125 182.0625 C 82.589844 181.828125 82.714844 181.597656 82.804688 181.410156 C 82.929688 181.167969 83.011719 181.007812 83.011719 181.007812 Z M 83.011719 181.007812 " fill-opacity="1" fill-rule="nonzero"/><path fill="#e2a002" d="M 82.824219 182.4375 C 82.644531 182.351562 82.472656 182.261719 82.453125 182.0625 C 82.410156 182.136719 82.367188 182.210938 82.324219 182.285156 C 82.144531 182.597656 81.964844 182.914062 81.828125 183.148438 C 81.679688 183.378906 81.585938 183.53125 81.585938 183.53125 C 81.585938 183.53125 81.847656 183.574219 82.109375 183.617188 C 82.371094 183.652344 82.636719 183.691406 82.636719 183.691406 C 83.554688 182.742188 83.183594 182.601562 82.824219 182.4375 Z M 82.824219 182.4375 " fill-opacity="1" fill-rule="nonzero"/><g clip-path="url(#9782ffba79)"><path fill="#e2a002" d="M 20.175781 151.03125 C 20.15625 150.898438 20.148438 150.730469 20.148438 150.546875 C 20.082031 150.671875 20.023438 150.804688 19.988281 150.945312 Z M 20.175781 151.03125 " fill-opacity="1" fill-rule="nonzero"/></g><path fill="#e2a002" d="M 20.652344 151.25 L 20.175781 151.03125 C 20.234375 151.316406 20.359375 151.449219 20.652344 151.25 Z M 20.652344 151.25 " fill-opacity="1" fill-rule="nonzero"/><g clip-path="url(#73a45c7260)"><path fill="#e2a002" d="M 21.675781 149.097656 C 22.128906 148.75 22.308594 148.441406 21.613281 147.890625 C 21.613281 147.890625 21.398438 148.265625 21.1875 148.640625 C 21.082031 148.828125 20.976562 149.019531 20.894531 149.160156 C 20.816406 149.300781 20.765625 149.394531 20.765625 149.394531 C 20.113281 149.058594 19.789062 148.886719 20.351562 147.945312 C 19.972656 148.050781 19.914062 149.113281 19.835938 149.679688 L 20.066406 149.339844 C 20.167969 149.648438 20.144531 150.132812 20.148438 150.546875 C 20.503906 149.859375 21.210938 149.441406 21.675781 149.097656 Z M 21.675781 149.097656 " fill-opacity="1" fill-rule="nonzero"/></g><path fill="#e2a002" d="M 22.246094 147.503906 C 22.246094 147.503906 22.242188 146.996094 22.238281 146.488281 C 22.234375 145.972656 22.265625 145.464844 22.265625 145.464844 C 22.078125 145.742188 21.804688 146.25 21.714844 146.6875 C 21.621094 147.125 21.710938 147.488281 22.246094 147.503906 Z M 22.246094 147.503906 " fill-opacity="1" fill-rule="nonzero"/><path fill="#e2a002" d="M 24.1875 146.023438 C 24.375 145.738281 24.570312 145.484375 24.5625 145.152344 C 24.097656 145.445312 24.109375 145.261719 24.246094 144.9375 C 24.382812 144.617188 24.640625 144.160156 24.640625 143.910156 C 23.015625 145.175781 24.589844 144.949219 24.1875 146.023438 Z M 24.1875 146.023438 " fill-opacity="1" fill-rule="nonzero"/><path fill="#e2a002" d="M 24.1875 146.023438 C 24.105469 146.152344 24.023438 146.296875 23.976562 146.457031 C 24.082031 146.289062 24.140625 146.152344 24.1875 146.023438 Z M 24.1875 146.023438 " fill-opacity="1" fill-rule="nonzero"/><path fill="#e2a002" d="M 30.902344 136.546875 L 30.96875 136.558594 C 30.953125 136.539062 30.933594 136.539062 30.902344 136.546875 Z M 30.902344 136.546875 " fill-opacity="1" fill-rule="nonzero"/><g clip-path="url(#5f877f11a3)"><path fill="#e2a002" d="M 90.019531 158.976562 C 89.871094 158.570312 89.699219 158.089844 89.585938 157.628906 C 89.472656 157.164062 89.449219 156.710938 89.652344 156.335938 L 88.933594 156.472656 C 88.929688 156.421875 88.925781 156.371094 88.921875 156.324219 C 88.859375 155.464844 88.820312 154.921875 88.824219 154.554688 C 88.820312 154.167969 88.84375 153.980469 88.878906 153.808594 C 88.910156 153.636719 88.949219 153.484375 88.957031 153.171875 C 88.960938 153.015625 88.953125 152.820312 88.9375 152.558594 C 88.90625 152.304688 88.863281 151.984375 88.796875 151.582031 C 88.796875 151.582031 88.523438 151.425781 88.253906 151.269531 C 88.179688 151.226562 88.105469 151.183594 88.035156 151.144531 C 87.988281 150.96875 87.941406 150.792969 87.894531 150.617188 C 87.898438 150.613281 87.902344 150.609375 87.90625 150.605469 C 87.875 150.515625 87.84375 150.429688 87.8125 150.34375 C 87.335938 148.710938 86.726562 147.140625 85.996094 145.636719 C 85.882812 145.257812 85.707031 144.871094 85.433594 144.507812 C 85.433594 144.507812 85.441406 144.53125 85.449219 144.566406 C 85.082031 143.882812 84.691406 143.214844 84.277344 142.566406 C 84.320312 142.527344 84.363281 142.484375 84.398438 142.421875 C 84.128906 142.019531 83.8125 141.671875 83.464844 141.363281 C 80.964844 137.835938 77.726562 134.871094 73.976562 132.695312 C 73.980469 132.691406 73.980469 132.6875 73.984375 132.683594 C 73.980469 132.6875 73.976562 132.691406 73.976562 132.691406 C 73.675781 132.519531 73.375 132.351562 73.066406 132.1875 C 73.179688 132.0625 73.304688 131.933594 73.429688 131.804688 C 74.070312 131.140625 74.734375 130.429688 73.433594 129.875 C 73.933594 130.484375 73.699219 131.023438 73.257812 131.335938 C 72.8125 131.65625 72.183594 131.734375 71.777344 131.441406 C 71.785156 131.464844 71.785156 131.5 71.78125 131.539062 C 71.601562 131.453125 71.421875 131.371094 71.242188 131.289062 C 71.671875 131.144531 71.75 130.867188 71.597656 130.589844 C 71.429688 130.289062 71 129.976562 70.496094 129.878906 C 70.703125 129.972656 70.871094 130.089844 71 130.21875 C 71.125 130.347656 71.214844 130.488281 71.265625 130.625 C 71.359375 130.871094 71.328125 131.101562 71.1875 131.265625 C 70.917969 131.144531 70.644531 131.027344 70.367188 130.910156 C 70.308594 130.867188 70.25 130.828125 70.191406 130.785156 C 70.277344 130.746094 70.375 130.683594 70.484375 130.578125 C 70.789062 130.070312 70.273438 129.507812 69.542969 128.96875 C 69.171875 128.707031 68.753906 128.441406 68.367188 128.179688 C 67.972656 127.9375 67.613281 127.691406 67.367188 127.4375 C 66.84375 127.367188 66.554688 127.457031 66.351562 127.605469 C 66.144531 127.757812 66.015625 127.992188 65.792969 128.28125 C 65.738281 127.9375 65.46875 127.640625 65.1875 127.375 C 64.902344 127.105469 64.613281 126.839844 64.535156 126.492188 C 63.957031 126.613281 63.472656 126.617188 63.027344 126.542969 C 62.585938 126.46875 62.183594 126.3125 61.773438 126.191406 C 61.367188 126.0625 60.957031 125.929688 60.507812 125.894531 C 60.371094 125.890625 60.226562 125.894531 60.082031 125.90625 C 60.082031 125.910156 60.074219 125.910156 60.054688 125.910156 C 59.734375 125.941406 59.394531 126.015625 59.03125 126.175781 C 58.933594 126.046875 58.902344 125.953125 58.90625 125.886719 C 58.816406 125.886719 58.753906 125.890625 58.753906 125.890625 L 58.878906 126.03125 C 58.476562 126.269531 58 126.398438 57.484375 126.453125 C 57.304688 126.472656 57.121094 126.484375 56.933594 126.492188 C 57.097656 126.539062 57.257812 126.59375 57.414062 126.65625 C 57.523438 126.703125 57.625 126.753906 57.730469 126.804688 C 57.4375 126.832031 57.066406 126.878906 56.699219 126.921875 C 56.171875 126.980469 55.652344 127.058594 55.355469 127.109375 C 55.308594 127.027344 55.242188 126.917969 55.179688 126.808594 C 55.066406 126.617188 54.949219 126.429688 54.917969 126.375 C 54.4375 126.304688 53.996094 126.214844 53.636719 126.125 C 53.875 126.222656 54.066406 126.359375 54.167969 126.515625 C 54.242188 126.628906 54.265625 126.742188 54.226562 126.855469 C 54.144531 126.859375 54.066406 126.867188 53.984375 126.867188 C 53.8125 126.882812 53.644531 126.886719 53.472656 126.894531 C 53.433594 126.859375 53.394531 126.820312 53.355469 126.785156 C 53.117188 126.5625 52.878906 126.34375 52.878906 126.34375 C 52.878906 126.34375 52.765625 126.457031 52.601562 126.632812 C 52.515625 126.71875 52.414062 126.828125 52.3125 126.945312 C 51.726562 126.964844 51.144531 127.003906 50.582031 127.027344 C 49.847656 127.078125 49.140625 127.152344 48.488281 127.265625 C 47.941406 127.378906 47.4375 127.515625 46.984375 127.695312 C 47.179688 127.515625 47.453125 127.402344 47.722656 127.3125 C 48.179688 127.15625 48.609375 127.019531 48.621094 126.59375 C 48.445312 126.261719 47.523438 126.335938 47.175781 126.210938 C 47.253906 126.960938 46.796875 127.175781 46.445312 127.371094 C 46.085938 127.566406 45.855469 127.742188 46.417969 128.425781 C 46.378906 128.542969 46.382812 128.640625 46.46875 128.699219 C 46.25 128.761719 46.039062 128.820312 45.835938 128.882812 C 45.726562 128.917969 45.617188 128.949219 45.507812 128.984375 C 45.550781 128.996094 45.597656 129.003906 45.652344 129.007812 C 45.859375 129.027344 46.125 128.9375 46.535156 128.726562 C 46.675781 128.773438 46.933594 128.761719 47.382812 128.660156 C 46.855469 129.183594 46.164062 129.363281 45.414062 129.375 C 45.128906 129.390625 44.832031 129.382812 44.539062 129.371094 C 44.601562 129.335938 44.664062 129.300781 44.726562 129.269531 C 45 129.148438 45.257812 129.0625 45.507812 128.984375 C 45.363281 128.941406 45.25 128.855469 45.132812 128.769531 C 44.832031 128.546875 44.492188 128.289062 43.484375 128.878906 C 43.484375 128.878906 43.472656 129.085938 43.460938 129.328125 C 43.363281 129.328125 43.265625 129.324219 43.175781 129.324219 C 43.175781 129.324219 43.222656 129.242188 43.296875 129.121094 C 43.371094 128.996094 43.46875 128.835938 43.570312 128.679688 C 43.777344 128.359375 43.984375 128.042969 43.984375 128.042969 C 42.160156 128.667969 40.066406 129.09375 38.082031 129.8125 C 36.105469 130.519531 34.246094 131.492188 33.0625 132.894531 L 34.011719 133.171875 C 33.855469 133.304688 33.695312 133.433594 33.53125 133.558594 C 33.375 133.6875 33.214844 133.8125 33.054688 133.9375 C 32.738281 134.183594 32.410156 134.414062 32.085938 134.632812 C 31.449219 135.09375 30.804688 135.503906 30.222656 135.921875 C 29.648438 136.347656 29.089844 136.734375 28.660156 137.15625 C 28.222656 137.574219 27.875 137.984375 27.667969 138.40625 C 28.9375 138.019531 28.765625 138.453125 28.277344 139.050781 C 28.160156 139.207031 28.023438 139.375 27.878906 139.542969 C 27.832031 139.566406 27.785156 139.582031 27.730469 139.597656 L 27.796875 139.640625 C 27.390625 140.121094 26.972656 140.605469 26.921875 140.875 C 27.152344 140.691406 27.386719 140.484375 27.621094 140.265625 C 27.765625 140.125 27.910156 139.972656 28.050781 139.816406 L 28.335938 140.011719 C 27.714844 140.730469 27.339844 141.171875 27.0625 141.441406 C 26.792969 141.722656 26.644531 141.839844 26.496094 141.9375 C 26.351562 142.035156 26.214844 142.113281 25.992188 142.328125 C 25.878906 142.4375 25.746094 142.582031 25.574219 142.777344 C 25.414062 142.976562 25.222656 143.234375 24.984375 143.566406 C 24.984375 143.566406 25.066406 143.871094 25.148438 144.171875 C 25.1875 144.324219 25.230469 144.472656 25.261719 144.585938 C 25.296875 144.699219 25.316406 144.773438 25.316406 144.773438 C 25.382812 144.875 25.460938 144.144531 25.652344 143.4375 C 25.832031 142.726562 26.183594 142.078125 26.652344 142.347656 C 26.613281 142.609375 26.5625 142.878906 26.5 143.144531 C 26.4375 143.417969 26.375 143.695312 26.300781 143.972656 C 26.230469 144.25 26.148438 144.53125 26.066406 144.816406 C 25.984375 145.097656 25.917969 145.390625 25.84375 145.679688 C 25.769531 145.972656 25.699219 146.261719 25.636719 146.554688 C 25.578125 146.847656 25.539062 147.144531 25.503906 147.4375 C 25.46875 147.730469 25.445312 148.019531 25.4375 148.304688 C 25.433594 148.59375 25.460938 148.882812 25.5 149.160156 C 25.5 149.160156 25.152344 148.644531 24.828125 148.113281 C 24.636719 147.792969 24.449219 147.46875 24.328125 147.257812 C 24.480469 147.671875 24.136719 148.039062 23.703125 148.535156 C 23.445312 148.824219 23.148438 149.152344 22.890625 149.546875 C 22.648438 149.949219 22.449219 150.414062 22.375 150.953125 C 22.375 150.953125 22.628906 150.535156 22.882812 150.113281 C 23.011719 149.90625 23.132812 149.699219 23.234375 149.546875 C 23.335938 149.394531 23.402344 149.292969 23.402344 149.292969 C 23.691406 149.773438 23.792969 150.320312 23.753906 150.917969 C 23.710938 151.507812 23.585938 152.160156 23.4375 152.835938 C 23.398438 153.007812 23.359375 153.179688 23.320312 153.347656 C 23.285156 153.523438 23.253906 153.695312 23.222656 153.871094 C 23.164062 154.21875 23.109375 154.570312 23.074219 154.917969 C 23.011719 155.613281 23.0625 156.296875 23.261719 156.902344 C 23.316406 156.253906 23.378906 155.609375 23.898438 155.550781 C 23.941406 155.609375 23.976562 155.675781 24.007812 155.75 C 24.003906 155.992188 24.019531 156.039062 24.074219 156.007812 C 24.117188 156.265625 24.097656 156.574219 24.042969 156.898438 C 23.957031 157.445312 23.796875 158.035156 23.632812 158.472656 C 23.5625 158.460938 23.5 158.441406 23.441406 158.414062 C 23.371094 157.980469 23.402344 157.554688 23.699219 156.964844 C 23.699219 156.964844 23.441406 157.007812 23.179688 157.050781 C 22.921875 157.097656 22.664062 157.144531 22.664062 157.144531 C 22.667969 157.242188 22.679688 157.339844 22.6875 157.4375 C 22.488281 156.886719 22.460938 156.195312 22.414062 155.527344 C 22.355469 154.199219 22.414062 152.972656 21.640625 153.164062 C 21.503906 153.867188 21.511719 154.566406 21.625 155.234375 C 21.75 155.902344 21.941406 156.535156 22.152344 157.125 C 22.371094 157.710938 22.589844 158.253906 22.71875 158.753906 C 22.863281 159.25 22.933594 159.707031 22.824219 160.128906 C 22.824219 160.128906 22.546875 159.792969 22.269531 159.457031 C 22.132812 159.285156 21.996094 159.113281 21.890625 158.984375 C 21.785156 158.855469 21.722656 158.765625 21.722656 158.765625 C 21.722656 158.765625 21.742188 158.851562 21.777344 158.980469 C 21.8125 159.105469 21.859375 159.277344 21.90625 159.445312 C 22 159.78125 22.097656 160.117188 22.097656 160.117188 L 22.164062 159.71875 C 22.609375 159.996094 22.585938 160.417969 22.515625 160.914062 C 22.453125 161.410156 22.324219 161.980469 22.503906 162.503906 C 22.503906 162.503906 22.222656 162.347656 21.9375 162.195312 C 21.652344 162.035156 21.367188 161.875 21.367188 161.875 C 21.367188 161.875 21.375 162.003906 21.386719 162.195312 C 21.402344 162.386719 21.410156 162.644531 21.441406 162.898438 C 21.496094 163.40625 21.554688 163.917969 21.554688 163.917969 L 21.8125 163.621094 C 22.695312 166.8125 23.21875 169.519531 23.640625 172.5625 C 23.640625 172.5625 23.628906 172.449219 23.609375 172.28125 C 23.589844 172.109375 23.558594 171.886719 23.546875 171.660156 C 23.515625 171.207031 23.484375 170.753906 23.484375 170.753906 C 23.738281 170.824219 24.082031 171.699219 24.242188 172.5 C 24.511719 172.265625 24.382812 171.675781 24.320312 171.121094 C 24.261719 170.664062 24.210938 170.246094 24.367188 170.109375 C 24.507812 170.910156 24.683594 171.707031 24.886719 172.496094 C 24.898438 172.683594 24.90625 172.867188 24.910156 173.050781 C 24.917969 173.472656 24.945312 173.894531 24.996094 174.394531 C 25.023438 174.640625 25.058594 174.910156 25.113281 175.203125 C 25.171875 175.492188 25.253906 175.808594 25.355469 176.15625 C 25.542969 176.179688 25.683594 175.867188 25.859375 175.554688 C 26.058594 176.078125 26.269531 176.597656 26.5 177.113281 C 26.328125 177.234375 26.058594 177.226562 25.585938 176.953125 C 26.378906 177.667969 26.402344 178.085938 26.457031 178.445312 C 26.507812 178.800781 26.601562 179.085938 27.492188 179.460938 C 27.339844 179.328125 27.230469 179.050781 27.121094 178.773438 C 27.144531 178.695312 27.175781 178.640625 27.207031 178.601562 C 27.582031 179.332031 27.984375 180.050781 28.421875 180.757812 C 28.433594 181.359375 28.550781 181.960938 29.046875 182.742188 C 29.046875 182.742188 29.199219 182.875 29.433594 183.074219 C 29.664062 183.273438 29.988281 183.523438 30.304688 183.773438 C 30.546875 183.96875 30.792969 184.160156 31.003906 184.316406 C 31.167969 184.511719 31.335938 184.703125 31.507812 184.898438 C 31.425781 184.964844 31.316406 184.980469 31.316406 184.980469 C 31.613281 185.222656 31.902344 185.476562 32.183594 185.738281 C 32.476562 185.988281 32.761719 186.246094 33.039062 186.507812 C 33.085938 186.554688 33.132812 186.59375 33.179688 186.640625 C 33.246094 186.703125 33.3125 186.769531 33.378906 186.832031 C 33.398438 186.976562 33.488281 187.117188 33.695312 187.230469 C 33.777344 187.273438 33.851562 187.304688 33.917969 187.332031 C 33.925781 187.335938 33.933594 187.34375 33.941406 187.351562 C 34.199219 187.582031 34.453125 187.8125 34.703125 188.042969 C 35.257812 188.523438 35.808594 188.972656 36.351562 189.355469 C 36.550781 189.488281 36.746094 189.605469 36.9375 189.722656 C 37.722656 190.261719 38.523438 190.765625 39.34375 191.226562 C 39.34375 191.230469 39.34375 191.238281 39.34375 191.242188 C 39.414062 191.277344 39.484375 191.308594 39.554688 191.339844 C 39.902344 191.53125 40.253906 191.714844 40.605469 191.894531 C 40.320312 191.953125 40.082031 192.003906 40.082031 192.003906 C 41.8125 192.855469 43.59375 194.039062 45.503906 194.9375 C 47.398438 195.839844 49.402344 196.472656 51.222656 196.320312 L 50.75 195.453125 C 50.953125 195.46875 51.160156 195.492188 51.359375 195.519531 C 51.5625 195.539062 51.765625 195.558594 51.964844 195.585938 C 52.363281 195.640625 52.757812 195.707031 53.140625 195.785156 C 53.914062 195.910156 54.660156 196.074219 55.367188 196.195312 C 56.074219 196.300781 56.742188 196.421875 57.34375 196.429688 C 57.945312 196.445312 58.480469 196.402344 58.925781 196.25 C 57.753906 195.621094 58.179688 195.4375 58.949219 195.363281 C 59.722656 195.25 60.871094 195.253906 61.191406 195.03125 C 60.898438 195 60.585938 194.980469 60.269531 194.96875 C 59.949219 194.960938 59.621094 194.972656 59.289062 195 C 58.632812 195.050781 57.96875 195.097656 57.371094 195.171875 C 56.339844 195.277344 55.511719 195.363281 55.328125 195.269531 L 55.398438 195.371094 C 55.398438 195.371094 55.128906 195.398438 54.722656 195.414062 C 54.320312 195.433594 53.773438 195.460938 53.226562 195.476562 C 52.675781 195.472656 52.128906 195.472656 51.71875 195.46875 C 51.507812 195.46875 51.335938 195.464844 51.21875 195.453125 C 51.097656 195.449219 51.027344 195.445312 51.027344 195.445312 L 51.164062 194.914062 C 54.730469 195.25 58.339844 194.957031 61.816406 194.023438 C 61.816406 194.027344 61.816406 194.03125 61.820312 194.035156 C 61.820312 194.03125 61.820312 194.027344 61.820312 194.023438 C 62.152344 193.933594 62.484375 193.839844 62.816406 193.738281 C 62.824219 193.90625 62.828125 194.085938 62.832031 194.265625 C 62.84375 195.191406 62.878906 196.164062 64.1875 195.632812 C 63.40625 195.554688 63.191406 195.007812 63.28125 194.476562 C 63.371094 193.933594 63.761719 193.429688 64.257812 193.351562 C 64.234375 193.335938 64.207031 193.3125 64.183594 193.285156 C 64.371094 193.21875 64.554688 193.148438 64.742188 193.078125 C 64.539062 193.488281 64.675781 193.738281 64.984375 193.824219 C 65.242188 193.898438 65.613281 193.863281 65.96875 193.707031 C 66.382812 193.820312 66.25 193.9375 65.945312 194.058594 C 65.625 194.1875 65.117188 194.328125 64.941406 194.503906 C 66.703125 194.726562 66 194.046875 66.441406 193.550781 C 66.753906 193.605469 67.148438 193.578125 67.582031 193.511719 C 68.023438 193.4375 68.507812 193.328125 68.964844 193.234375 C 69.339844 193.148438 69.699219 193.078125 70.011719 193.0625 C 69.890625 193.191406 69.84375 193.429688 69.890625 193.835938 C 69.890625 193.835938 70.304688 193.722656 70.71875 193.609375 C 70.925781 193.550781 71.136719 193.492188 71.289062 193.449219 C 71.445312 193.40625 71.550781 193.375 71.550781 193.375 C 71.773438 194.074219 71.882812 194.425781 70.820312 194.691406 C 71.164062 194.890625 71.953125 194.179688 72.40625 193.835938 L 72.003906 193.910156 C 72.148438 193.621094 72.507812 193.292969 72.796875 192.996094 C 72.0625 193.230469 71.265625 193.027344 70.695312 192.941406 C 70.570312 192.921875 70.457031 192.914062 70.355469 192.921875 C 70.652344 192.65625 70.761719 192.425781 70.796875 192.214844 C 70.835938 191.960938 70.761719 191.703125 70.714844 191.339844 C 70.996094 191.542969 71.394531 191.558594 71.78125 191.546875 C 72.171875 191.539062 72.566406 191.523438 72.863281 191.714844 C 73.191406 191.214844 73.527344 190.867188 73.894531 190.605469 C 74.261719 190.34375 74.65625 190.167969 75.027344 189.964844 C 75.40625 189.765625 75.792969 189.570312 76.132812 189.273438 C 76.234375 189.179688 76.332031 189.078125 76.425781 188.964844 C 76.421875 188.964844 76.429688 188.957031 76.441406 188.945312 C 76.648438 188.695312 76.835938 188.402344 76.980469 188.03125 C 77.136719 188.054688 77.226562 188.09375 77.273438 188.148438 C 77.335938 188.082031 77.375 188.035156 77.375 188.035156 L 77.1875 188.023438 C 77.304688 187.570312 77.550781 187.140625 77.878906 186.738281 C 77.992188 186.597656 78.113281 186.457031 78.238281 186.320312 C 78.089844 186.402344 77.9375 186.480469 77.785156 186.542969 C 77.019531 186.851562 76.253906 187.027344 75.496094 187.113281 C 75.039062 187.171875 74.605469 187.21875 74.199219 187.269531 C 74.558594 186.945312 74.914062 186.609375 75.257812 186.261719 C 75.46875 186.410156 75.667969 186.550781 75.667969 186.550781 C 75.996094 186.175781 76.273438 185.789062 76.527344 185.386719 C 76.765625 185 76.96875 184.582031 77.171875 184.167969 C 77.839844 183.367188 78.457031 182.539062 79.027344 181.6875 L 79.160156 181.78125 C 79.148438 181.683594 79.34375 181.425781 79.65625 181.023438 C 79.816406 180.824219 80.015625 180.59375 80.238281 180.335938 C 80.453125 180.074219 80.691406 179.777344 80.953125 179.460938 C 80.960938 179.449219 80.96875 179.441406 80.976562 179.429688 C 83.203125 177.027344 85.042969 174.261719 86.402344 171.230469 C 86.410156 171.222656 86.417969 171.214844 86.429688 171.210938 C 86.585938 171.101562 86.738281 170.984375 86.835938 171.007812 C 86.933594 171.035156 86.980469 171.199219 86.875 171.644531 C 86.886719 171.898438 87.035156 171.242188 87.050781 170.484375 C 87.0625 170.21875 87.0625 169.941406 87.039062 169.6875 C 87.125 169.457031 87.210938 169.226562 87.292969 168.992188 C 87.445312 169.3125 87.75 169.492188 88.332031 169.449219 C 88.363281 168.597656 88.328125 167.894531 88.097656 167.628906 L 88.304688 167.785156 C 88.304688 167.785156 88.183594 167.378906 87.96875 166.839844 C 88.101562 166.351562 88.222656 165.859375 88.328125 165.363281 C 88.582031 165.8125 88.878906 166.082031 89.316406 165.855469 C 89.316406 165.855469 89.128906 165.460938 88.945312 165.066406 C 88.855469 164.871094 88.75 164.679688 88.675781 164.535156 C 88.597656 164.390625 88.546875 164.296875 88.546875 164.296875 C 89.429688 164.832031 89.1875 162.785156 89.851562 163.167969 C 89.851562 163.167969 89.839844 163.101562 89.816406 162.984375 C 89.792969 162.867188 89.757812 162.699219 89.714844 162.5 C 89.625 162.097656 89.53125 161.566406 89.386719 161.042969 C 89.253906 160.542969 89.128906 160.050781 89.019531 159.671875 C 89.027344 159.417969 89.027344 159.160156 89.03125 158.90625 L 89.652344 158.738281 C 89.652344 158.738281 89.582031 159.007812 89.511719 159.277344 C 89.476562 159.410156 89.441406 159.542969 89.414062 159.644531 C 89.386719 159.746094 89.367188 159.8125 89.367188 159.8125 C 89.886719 160.054688 90.121094 160.058594 90.195312 159.886719 C 90.269531 159.71875 90.167969 159.382812 90.019531 158.976562 Z M 28.757812 146.261719 C 28.855469 145.976562 28.949219 145.699219 29.019531 145.417969 C 29.035156 145.355469 29.046875 145.292969 29.0625 145.230469 C 29.304688 145.070312 29.527344 145.144531 29.714844 145.710938 C 29.714844 145.710938 29.359375 146.035156 29.003906 146.363281 C 28.820312 146.550781 28.636719 146.738281 28.503906 146.867188 C 28.601562 146.667969 28.6875 146.464844 28.757812 146.261719 Z M 29.25 144.398438 C 29.292969 144.199219 29.339844 144 29.390625 143.8125 C 29.425781 143.667969 29.46875 143.523438 29.511719 143.386719 C 29.585938 143.855469 29.46875 144.164062 29.25 144.398438 Z M 30.902344 144.8125 C 31.039062 144.796875 31.199219 144.824219 31.382812 144.902344 C 31.210938 145.097656 31.039062 145.296875 30.875 145.496094 C 30.875 145.375 30.878906 145.25 30.886719 145.125 C 30.890625 145.019531 30.898438 144.914062 30.902344 144.8125 Z M 26.714844 151.640625 C 26.761719 151.277344 26.757812 150.871094 26.734375 150.453125 C 26.722656 149.917969 26.671875 149.363281 26.652344 148.859375 C 26.652344 148.796875 26.652344 148.738281 26.65625 148.679688 C 26.726562 148.515625 26.808594 148.371094 26.890625 148.269531 C 26.8125 148.292969 26.738281 148.328125 26.664062 148.371094 C 26.679688 148.082031 26.710938 147.824219 26.777344 147.636719 C 26.832031 147.800781 27.066406 147.464844 27.355469 147.09375 C 27.644531 147.195312 27.9375 146.785156 28.230469 146.308594 C 28.355469 146.328125 28.421875 146.519531 28.390625 146.984375 C 28.351562 147.023438 28.328125 147.050781 28.328125 147.050781 C 28.347656 147.046875 28.367188 147.046875 28.386719 147.046875 C 28.382812 147.070312 28.382812 147.097656 28.378906 147.125 C 28.394531 147.097656 28.40625 147.070312 28.417969 147.042969 C 28.914062 147.015625 29.234375 146.839844 29.480469 146.597656 C 29.746094 146.347656 29.910156 146.015625 30.0625 145.699219 C 30.199219 145.417969 30.335938 145.15625 30.519531 144.988281 C 30.515625 145.007812 30.507812 145.027344 30.5 145.046875 C 30.417969 145.292969 30.34375 145.558594 30.265625 145.824219 C 30.191406 146.0625 30.121094 146.300781 30.054688 146.527344 C 29.929688 146.691406 29.804688 146.855469 29.683594 147.023438 C 29.648438 147.035156 29.617188 147.042969 29.59375 147.042969 C 29.59375 147.078125 29.597656 147.109375 29.605469 147.136719 C 28.539062 148.613281 27.625 150.164062 26.855469 151.765625 C 26.804688 151.730469 26.757812 151.6875 26.714844 151.640625 Z M 88.414062 152.144531 C 88.765625 152.734375 88.96875 153.394531 88.570312 153.589844 C 88.464844 152.980469 88.339844 152.378906 88.195312 151.785156 C 88.269531 151.902344 88.34375 152.019531 88.414062 152.144531 Z M 70.167969 130.832031 C 70.148438 130.824219 70.132812 130.816406 70.113281 130.808594 C 70.121094 130.804688 70.128906 130.804688 70.136719 130.800781 C 70.148438 130.8125 70.15625 130.820312 70.167969 130.832031 Z M 69.421875 130.207031 C 69.382812 130.179688 69.347656 130.152344 69.3125 130.125 C 69.3125 130.125 69.355469 130.160156 69.429688 130.21875 C 69.453125 130.253906 69.476562 130.289062 69.5 130.324219 C 69.574219 130.445312 69.652344 130.566406 69.738281 130.660156 C 69.382812 130.523438 69.027344 130.390625 68.667969 130.269531 C 69.011719 129.773438 69.226562 129.929688 69.421875 130.207031 Z M 55.246094 127.128906 C 55.15625 127.144531 55.101562 127.152344 55.101562 127.152344 C 55.0625 127.105469 55.054688 127.050781 55.054688 127 C 55.125 127.046875 55.1875 127.089844 55.246094 127.128906 Z M 54.582031 126.691406 C 54.582031 126.691406 54.664062 126.746094 54.777344 126.816406 C 54.710938 126.824219 54.640625 126.832031 54.574219 126.835938 C 54.578125 126.789062 54.582031 126.742188 54.582031 126.691406 Z M 38.429688 130.816406 C 38.363281 130.871094 38.296875 130.925781 38.230469 130.980469 C 38.214844 130.964844 38.207031 130.953125 38.1875 130.933594 C 38.269531 130.886719 38.351562 130.847656 38.429688 130.816406 Z M 36.511719 132.289062 C 36.707031 132.230469 36.898438 132.175781 37.085938 132.125 C 36.914062 132.351562 36.804688 132.550781 36.789062 132.714844 L 36.753906 132.457031 C 36.753906 132.457031 36.542969 132.851562 36.304688 133.410156 C 36.0625 133.96875 35.835938 134.730469 35.734375 135.417969 C 35.890625 134.972656 36.210938 134.554688 36.566406 134.171875 C 36.9375 133.804688 37.347656 133.464844 37.675781 133.140625 C 38.199219 132.664062 38.542969 132.207031 38.273438 131.695312 C 38.476562 131.546875 38.527344 131.359375 38.34375 131.109375 C 38.652344 131.011719 38.898438 130.878906 39.113281 130.695312 C 39.457031 130.726562 39.734375 130.890625 39.917969 131.105469 C 39.796875 131.203125 39.671875 131.316406 39.542969 131.4375 C 38.984375 131.941406 38.460938 132.609375 38.585938 132.882812 C 38.839844 132.832031 39.078125 132.394531 39.382812 132.09375 C 39.683594 131.789062 40.015625 131.582031 40.386719 131.949219 C 41.195312 131.492188 40.878906 131.441406 40.507812 131.367188 C 40.535156 131.351562 40.558594 131.332031 40.589844 131.3125 C 40.855469 131.144531 41.210938 130.917969 41.566406 130.691406 C 41.921875 130.457031 42.289062 130.25 42.566406 130.09375 C 42.84375 129.933594 43.027344 129.828125 43.027344 129.828125 C 43.515625 130.140625 43.175781 131.394531 42.796875 131.433594 C 42.492188 131.523438 42.164062 131.703125 41.824219 131.90625 C 41.480469 132.109375 41.121094 132.320312 40.757812 132.523438 C 40.035156 132.929688 39.273438 133.203125 38.484375 132.988281 C 38.15625 133.507812 38.507812 133.664062 38.691406 133.851562 C 38.878906 134.042969 38.890625 134.234375 37.96875 134.875 C 36.644531 135.082031 35.402344 135.679688 34.265625 136.417969 C 34.308594 135.992188 34.554688 135.429688 34.769531 134.878906 C 35.09375 134.078125 35.363281 133.320312 34.675781 133.105469 C 34.675781 133.105469 34.53125 133.515625 34.386719 133.925781 C 34.355469 134.003906 34.332031 134.085938 34.304688 134.160156 C 33.960938 133.191406 35.273438 132.632812 36.511719 132.289062 Z M 33.316406 133.84375 C 33.460938 133.699219 33.585938 133.578125 33.675781 133.5 C 33.765625 133.417969 33.820312 133.375 33.820312 133.375 L 34.296875 134.191406 C 34.261719 134.300781 34.226562 134.40625 34.203125 134.492188 C 34.15625 134.648438 34.125 134.753906 34.125 134.753906 C 33.890625 133.796875 32.726562 135.214844 32.441406 134.710938 C 32.761719 134.390625 33.074219 134.085938 33.316406 133.84375 Z M 30.78125 136.527344 C 30.78125 136.527344 30.949219 136.316406 31.226562 136.019531 C 31.480469 135.738281 31.8125 135.371094 32.160156 135 C 32.121094 135.058594 32.078125 135.125 32.03125 135.195312 C 31.8125 135.542969 31.503906 135.984375 31.238281 136.457031 C 30.964844 136.925781 30.691406 137.386719 30.5 137.742188 C 30.3125 138.101562 30.191406 138.339844 30.191406 138.339844 L 29.585938 137.992188 C 29.6875 137.867188 29.785156 137.746094 29.878906 137.632812 C 29.886719 137.625 29.894531 137.621094 29.90625 137.617188 C 30.023438 137.546875 30.144531 137.476562 30.230469 137.425781 C 30.324219 137.375 30.382812 137.339844 30.382812 137.339844 C 30.355469 137.261719 30.328125 137.191406 30.300781 137.128906 C 30.582031 136.800781 30.792969 136.585938 30.902344 136.546875 Z M 24.953125 152.921875 C 25.496094 151.261719 25.355469 153.519531 25.996094 152.898438 C 26.148438 152.820312 26.265625 152.71875 26.363281 152.597656 C 26.371094 152.671875 26.375 152.75 26.371094 152.828125 C 26.144531 153.359375 25.933594 153.894531 25.738281 154.433594 C 25.535156 154.523438 25.355469 154.453125 25.21875 154.257812 C 25.121094 154.121094 25.046875 153.929688 24.996094 153.699219 C 24.945312 153.472656 24.9375 153.207031 24.953125 152.921875 Z M 45.800781 193.90625 C 45.9375 193.945312 46.078125 193.984375 46.21875 194.023438 C 46.21875 194.039062 46.21875 194.054688 46.21875 194.070312 C 46.058594 194.027344 45.921875 193.972656 45.800781 193.90625 Z M 48.972656 194.625 C 49.628906 194.738281 50.289062 194.824219 50.949219 194.894531 C 50.488281 195.207031 49.726562 194.988281 48.972656 194.625 Z M 65.921875 193.640625 C 65.832031 193.65625 65.746094 193.667969 65.667969 193.667969 C 65.484375 193.664062 65.324219 193.628906 65.191406 193.566406 C 64.949219 193.460938 64.8125 193.273438 64.796875 193.058594 C 65.160156 192.921875 65.519531 192.773438 65.878906 192.621094 C 65.820312 192.710938 65.78125 192.847656 65.777344 193.046875 C 65.832031 193.261719 65.972656 193.402344 66.171875 193.484375 C 66.082031 193.523438 65.996094 193.574219 65.921875 193.640625 Z M 66.652344 192.527344 C 66.515625 192.496094 66.375 192.464844 66.246094 192.460938 C 66.59375 192.304688 66.9375 192.144531 67.28125 191.976562 C 67.402344 192.648438 67.042969 192.613281 66.652344 192.527344 Z M 66.652344 192.527344 " fill-opacity="1" fill-rule="nonzero"/></g><path fill="#e2a002" d="M 61.820312 194.039062 C 61.820312 194.167969 61.820312 194.257812 61.820312 194.257812 C 61.847656 194.175781 61.839844 194.101562 61.820312 194.039062 Z M 61.820312 194.039062 " fill-opacity="1" fill-rule="nonzero"/><path fill="#006a75" d="M 39.746094 181.519531 C 39.746094 181.511719 39.746094 181.5 39.746094 181.492188 C 39.753906 181.386719 39.753906 181.273438 39.757812 181.152344 C 39.757812 181.136719 39.757812 181.121094 39.757812 181.105469 C 39.757812 180.980469 39.757812 180.851562 39.75 180.71875 C 39.75 180.703125 39.75 180.6875 39.75 180.671875 C 39.742188 180.535156 39.734375 180.390625 39.71875 180.238281 C 39.71875 180.230469 39.71875 180.21875 39.71875 180.210938 C 39.703125 180.054688 39.683594 179.894531 39.660156 179.726562 C 39.660156 179.722656 39.660156 179.722656 39.660156 179.722656 C 39.617188 179.402344 39.550781 179.070312 39.46875 178.734375 C 39.421875 178.539062 39.363281 178.335938 39.296875 178.125 C 39.132812 177.609375 38.894531 177 38.539062 176.367188 C 38.542969 176.355469 38.542969 176.34375 38.542969 176.328125 C 38.554688 176.238281 38.570312 176.101562 38.59375 175.925781 C 38.640625 175.578125 38.714844 175.082031 38.832031 174.484375 C 38.941406 173.890625 39.097656 173.199219 39.289062 172.464844 C 39.390625 172.101562 39.488281 171.71875 39.609375 171.339844 C 39.667969 171.148438 39.726562 170.957031 39.785156 170.761719 C 39.847656 170.570312 39.914062 170.378906 39.980469 170.1875 C 40.101562 169.800781 40.253906 169.425781 40.394531 169.050781 C 40.527344 168.675781 40.691406 168.316406 40.835938 167.964844 C 40.976562 167.613281 41.144531 167.285156 41.292969 166.964844 C 41.367188 166.808594 41.4375 166.65625 41.507812 166.507812 C 41.585938 166.363281 41.660156 166.222656 41.730469 166.085938 C 41.875 165.820312 42 165.566406 42.121094 165.351562 C 42.246094 165.140625 42.355469 164.953125 42.445312 164.800781 C 42.625 164.492188 42.730469 164.316406 42.730469 164.316406 C 42.730469 164.316406 42.617188 164.488281 42.421875 164.785156 C 42.328125 164.933594 42.207031 165.117188 42.070312 165.324219 C 41.9375 165.53125 41.800781 165.777344 41.644531 166.039062 C 41.566406 166.171875 41.488281 166.308594 41.402344 166.449219 C 41.324219 166.59375 41.246094 166.746094 41.164062 166.902344 C 41 167.210938 40.816406 167.535156 40.65625 167.882812 C 40.496094 168.230469 40.3125 168.582031 40.160156 168.953125 C 40 169.320312 39.832031 169.695312 39.6875 170.078125 C 39.613281 170.269531 39.539062 170.460938 39.464844 170.648438 C 39.394531 170.839844 39.324219 171.03125 39.257812 171.222656 C 39.117188 171.601562 39 171.980469 38.882812 172.347656 C 38.652344 173.082031 38.460938 173.773438 38.320312 174.375 C 38.199219 174.847656 38.113281 175.261719 38.050781 175.59375 C 37.65625 175.035156 37.164062 174.484375 36.550781 173.992188 C 36.457031 173.914062 36.363281 173.84375 36.265625 173.769531 C 36.234375 173.75 36.203125 173.726562 36.171875 173.703125 C 36.105469 173.65625 36.035156 173.609375 35.964844 173.5625 C 35.929688 173.535156 35.886719 173.511719 35.851562 173.484375 C 35.785156 173.445312 35.722656 173.402344 35.65625 173.363281 C 35.613281 173.335938 35.566406 173.3125 35.523438 173.285156 C 35.492188 173.269531 35.460938 173.25 35.425781 173.230469 C 35.453125 172.632812 35.527344 172.046875 35.652344 171.492188 C 36.445312 167.78125 39.171875 165.574219 40.308594 164.796875 C 41.671875 163.847656 42.859375 163.445312 43.410156 163.28125 C 43.515625 163.847656 43.722656 165.125 43.925781 166.597656 C 44.191406 168.683594 44.429688 171.101562 43.953125 173.339844 C 43.453125 175.570312 42.222656 177.660156 41.109375 179.441406 C 40.527344 180.351562 40.039062 181.085938 39.746094 181.519531 " fill-opacity="1" fill-rule="nonzero"/><g clip-path="url(#52d6e9b395)"><path fill="#006a75" d="M 41.800781 184.257812 C 41.058594 183.734375 40.328125 183.160156 39.628906 182.542969 C 39.628906 182.53125 39.632812 182.511719 39.636719 182.496094 C 39.636719 182.488281 39.640625 182.476562 39.640625 182.464844 C 39.644531 182.453125 39.648438 182.433594 39.648438 182.417969 C 39.652344 182.398438 39.65625 182.382812 39.660156 182.359375 C 39.664062 182.324219 39.671875 182.285156 39.675781 182.246094 C 39.675781 182.238281 39.675781 182.230469 39.679688 182.222656 C 39.683594 182.191406 39.6875 182.160156 39.691406 182.125 C 40.464844 182.757812 41.265625 183.339844 42.066406 183.855469 C 43.753906 184.933594 45.5625 185.824219 47.453125 186.5 C 49.375 187.191406 51.46875 187.648438 53.675781 187.859375 C 53.890625 187.890625 54.105469 187.902344 54.3125 187.910156 L 55.296875 187.964844 L 56.589844 187.96875 L 57.828125 187.910156 C 58.015625 187.898438 58.195312 187.882812 58.378906 187.863281 C 58.476562 187.851562 58.574219 187.839844 58.675781 187.832031 C 59.105469 187.800781 59.535156 187.734375 59.957031 187.667969 C 60.089844 187.648438 60.226562 187.628906 60.359375 187.609375 C 61.734375 187.359375 62.769531 187.109375 63.730469 186.792969 C 64.125 186.683594 64.523438 186.535156 64.90625 186.390625 C 65.058594 186.335938 65.214844 186.277344 65.371094 186.222656 C 65.554688 186.148438 65.726562 186.074219 65.898438 186.003906 C 65.992188 185.960938 66.089844 185.921875 66.1875 185.878906 L 66.589844 185.710938 L 66.996094 185.511719 C 69.128906 184.507812 71.136719 183.183594 72.964844 181.570312 C 73.789062 180.847656 74.625 180 75.515625 178.96875 C 76.25 178.113281 76.960938 177.144531 77.691406 176.003906 C 78.292969 175.050781 78.859375 173.984375 79.425781 172.742188 C 79.882812 171.71875 80.289062 170.574219 80.667969 169.246094 C 80.96875 168.171875 81.207031 166.984375 81.390625 165.605469 L 81.488281 164.683594 C 81.507812 164.523438 81.515625 164.363281 81.523438 164.214844 L 81.570312 163.335938 C 81.578125 163.242188 81.578125 163.125 81.574219 163.007812 C 81.574219 162.953125 81.574219 162.898438 81.578125 162.84375 L 81.582031 161.859375 L 81.578125 161.859375 C 81.578125 161.847656 81.578125 161.839844 81.574219 161.828125 L 81.578125 161.828125 L 81.535156 160.972656 C 81.527344 160.683594 81.5 160.386719 81.46875 160.105469 L 81.464844 160.042969 C 81.449219 159.933594 81.441406 159.824219 81.429688 159.71875 C 81.414062 159.523438 81.394531 159.320312 81.363281 159.117188 L 81.226562 158.21875 C 80.980469 156.855469 80.695312 155.6875 80.347656 154.640625 C 79.914062 153.347656 79.464844 152.246094 78.972656 151.265625 C 78.367188 150.074219 77.765625 149.058594 77.136719 148.15625 C 76.375 147.082031 75.640625 146.171875 74.898438 145.378906 C 73.988281 144.421875 73.148438 143.636719 72.324219 142.980469 C 70.503906 141.519531 68.53125 140.339844 66.457031 139.476562 L 66.078125 139.316406 L 65.675781 139.167969 C 65.578125 139.128906 65.480469 139.09375 65.382812 139.058594 C 65.222656 138.996094 65.0625 138.9375 64.898438 138.878906 C 64.730469 138.832031 64.574219 138.78125 64.421875 138.730469 C 64.058594 138.617188 63.683594 138.496094 63.304688 138.40625 C 62.15625 138.085938 61.003906 137.910156 60.128906 137.789062 C 59.980469 137.777344 59.847656 137.761719 59.710938 137.746094 C 59.324219 137.707031 58.921875 137.664062 58.550781 137.65625 L 57.792969 137.617188 L 56.253906 137.613281 L 56.253906 137.632812 L 55.230469 137.691406 L 54.46875 137.765625 C 54.269531 137.785156 54.066406 137.804688 53.863281 137.839844 C 51.839844 138.128906 49.933594 138.640625 48.199219 139.355469 C 46.503906 140.050781 44.890625 140.9375 43.40625 141.984375 C 40.828125 143.820312 38.582031 146.214844 36.917969 148.914062 C 36.835938 149.046875 36.757812 149.179688 36.679688 149.308594 L 36.488281 149.632812 L 41.738281 151.644531 L 29.449219 160.3125 L 25.976562 145.601562 L 30.960938 147.511719 L 31.09375 147.285156 C 31.40625 146.753906 31.742188 146.226562 32.089844 145.714844 C 34.289062 142.472656 37.179688 139.636719 40.445312 137.523438 C 42.3125 136.320312 44.324219 135.324219 46.421875 134.570312 C 48.570312 133.792969 50.898438 133.277344 53.34375 133.039062 C 53.585938 133.007812 53.820312 132.992188 54.066406 132.980469 L 54.542969 132.953125 C 54.753906 132.941406 54.960938 132.929688 55.175781 132.917969 L 56.566406 132.910156 L 57.050781 132.929688 L 58.128906 132.984375 L 58.867188 133.054688 C 59.390625 133.09375 59.863281 133.164062 60.363281 133.238281 C 60.5 133.261719 60.640625 133.28125 60.78125 133.300781 C 62.246094 133.5625 63.4375 133.847656 64.511719 134.195312 C 64.980469 134.328125 65.441406 134.496094 65.886719 134.660156 C 66.046875 134.71875 66.207031 134.777344 66.367188 134.835938 C 66.5625 134.910156 66.765625 135 66.96875 135.085938 L 67.722656 135.402344 L 68.160156 135.613281 C 70.542969 136.726562 72.785156 138.199219 74.820312 139.984375 C 75.757812 140.800781 76.6875 141.746094 77.671875 142.878906 C 78.5 143.839844 79.292969 144.917969 80.101562 146.175781 C 80.785156 147.246094 81.421875 148.433594 82.042969 149.808594 C 82.5625 150.960938 83.023438 152.234375 83.445312 153.703125 C 83.789062 154.914062 84.054688 156.246094 84.261719 157.765625 L 84.371094 158.800781 C 84.398438 159.019531 84.410156 159.234375 84.421875 159.464844 C 84.425781 159.585938 84.433594 159.710938 84.441406 159.832031 L 84.441406 159.871094 C 84.460938 160.195312 84.480469 160.527344 84.476562 160.851562 L 84.480469 161.949219 L 84.4375 162.914062 C 84.433594 162.96875 84.429688 163.03125 84.429688 163.089844 C 84.425781 163.1875 84.421875 163.285156 84.410156 163.394531 L 84.359375 163.933594 C 84.347656 164.050781 84.335938 164.175781 84.328125 164.300781 C 84.304688 164.539062 84.285156 164.761719 84.25 164.976562 L 84.097656 166.011719 C 83.835938 167.503906 83.519531 168.808594 83.132812 169.996094 C 82.660156 171.421875 82.160156 172.660156 81.601562 173.773438 C 80.9375 175.09375 80.269531 176.234375 79.5625 177.253906 C 78.726562 178.449219 77.910156 179.464844 77.070312 180.367188 C 76.070312 181.425781 75.132812 182.308594 74.203125 183.054688 C 72.175781 184.695312 69.96875 186.019531 67.648438 186.996094 L 67.210938 187.183594 L 66.476562 187.457031 C 66.285156 187.53125 66.09375 187.601562 65.898438 187.671875 C 65.746094 187.71875 65.585938 187.769531 65.425781 187.820312 C 64.984375 187.964844 64.566406 188.097656 64.136719 188.203125 C 63.101562 188.492188 61.964844 188.714844 60.554688 188.910156 C 60.425781 188.921875 60.285156 188.9375 60.148438 188.953125 C 59.679688 189.003906 59.234375 189.050781 58.78125 189.066406 C 58.675781 189.074219 58.570312 189.078125 58.464844 189.085938 C 58.273438 189.097656 58.085938 189.109375 57.894531 189.113281 L 56.621094 189.117188 L 56.132812 189.097656 L 55.285156 189.054688 L 54.238281 188.957031 C 54.007812 188.9375 53.789062 188.914062 53.578125 188.878906 C 51.292969 188.558594 49.148438 187.996094 47.195312 187.195312 C 45.289062 186.421875 43.472656 185.433594 41.800781 184.257812 " fill-opacity="1" fill-rule="nonzero"/></g><path fill="#006a75" d="M 37.492188 180.253906 C 37.644531 180.425781 37.773438 180.574219 37.882812 180.699219 C 37.992188 180.820312 38.074219 180.917969 38.132812 180.988281 C 38.191406 181.054688 38.222656 181.089844 38.222656 181.089844 C 38.222656 181.089844 38.199219 181.046875 38.160156 180.96875 C 38.121094 180.890625 38.066406 180.769531 37.984375 180.625 C 37.90625 180.480469 37.804688 180.308594 37.683594 180.109375 C 37.558594 179.917969 37.421875 179.691406 37.257812 179.460938 C 37.171875 179.347656 37.085938 179.226562 37 179.101562 C 36.910156 178.976562 36.808594 178.855469 36.707031 178.726562 C 36.511719 178.464844 36.285156 178.207031 36.050781 177.9375 C 35.9375 177.800781 35.808594 177.675781 35.683594 177.542969 C 35.554688 177.410156 35.429688 177.273438 35.296875 177.144531 C 35.015625 176.894531 34.75 176.621094 34.457031 176.378906 C 34.160156 176.140625 33.871094 175.894531 33.5625 175.679688 C 33.410156 175.570312 33.257812 175.464844 33.109375 175.359375 C 32.957031 175.257812 32.796875 175.167969 32.644531 175.074219 C 32.492188 174.980469 32.34375 174.886719 32.195312 174.804688 C 32.046875 174.71875 31.890625 174.648438 31.746094 174.578125 C 31.453125 174.433594 31.179688 174.292969 30.910156 174.199219 C 30.644531 174.097656 30.398438 174.007812 30.183594 173.933594 C 29.960938 173.871094 29.761719 173.824219 29.601562 173.785156 C 29.28125 173.707031 29.097656 173.671875 29.097656 173.671875 C 29.097656 173.671875 29.269531 173.757812 29.5625 173.902344 C 29.710938 173.972656 29.886719 174.058594 30.09375 174.15625 C 30.289062 174.269531 30.511719 174.394531 30.753906 174.523438 C 31.003906 174.648438 31.25 174.824219 31.519531 174.984375 C 31.65625 175.070312 31.792969 175.152344 31.929688 175.246094 C 32.066406 175.34375 32.207031 175.4375 32.347656 175.535156 C 32.488281 175.636719 32.636719 175.730469 32.777344 175.839844 C 32.914062 175.949219 33.058594 176.058594 33.203125 176.167969 C 33.5 176.378906 33.773438 176.625 34.054688 176.859375 C 34.347656 177.085938 34.609375 177.347656 34.882812 177.582031 C 35.144531 177.835938 35.414062 178.074219 35.65625 178.320312 C 35.898438 178.570312 36.144531 178.796875 36.359375 179.03125 C 36.582031 179.261719 36.789062 179.484375 36.980469 179.6875 C 37.167969 179.894531 37.339844 180.085938 37.492188 180.253906 Z M 32.265625 179.367188 C 30.953125 178.292969 29.976562 176.773438 29.160156 175.433594 C 28.605469 174.496094 28.175781 173.722656 27.960938 173.332031 C 28.390625 173.160156 29.226562 172.871094 30.375 172.789062 C 31.308594 172.710938 33.144531 172.730469 34.964844 173.691406 C 35.398438 173.921875 35.800781 174.183594 36.160156 174.480469 C 37.636719 175.664062 38.359375 177.21875 38.703125 178.316406 C 38.765625 178.511719 38.820312 178.703125 38.867188 178.886719 C 38.945312 179.199219 39.003906 179.511719 39.042969 179.808594 C 39.210938 180.960938 39.109375 181.851562 39.039062 182.304688 C 38.609375 182.179688 37.769531 181.921875 36.742188 181.578125 C 35.273438 181.0625 33.589844 180.425781 32.265625 179.367188 " fill-opacity="1" fill-rule="nonzero"/><g fill="#006a75" fill-opacity="1"><g transform="translate(96.700075, 187.052479)"><g><path d="M 9.65625 -35.46875 L 9.65625 0 L 2.734375 0 L 2.734375 -48.984375 L 12.390625 -48.984375 L 20.296875 -19.65625 L 20.296875 -48.984375 L 27.140625 -48.984375 L 27.140625 0 L 19.234375 0 Z M 9.65625 -35.46875 "/></g></g></g><g fill="#006a75" fill-opacity="1"><g transform="translate(131.057074, 187.052479)"><g><path d="M 27.703125 0 L 19.9375 0 L 18.609375 -8.890625 L 9.171875 -8.890625 L 7.84375 0 L 0.765625 0 L 8.609375 -48.984375 L 19.875 -48.984375 Z M 10.140625 -15.53125 L 17.5625 -15.53125 L 13.859375 -40.296875 Z M 10.140625 -15.53125 "/></g></g></g><g fill="#006a75" fill-opacity="1"><g transform="translate(164.01462, 187.052479)"><g><path d="M 18.890625 0 C 18.796875 -0.320312 18.703125 -0.625 18.609375 -0.90625 C 18.515625 -1.1875 18.429688 -1.535156 18.359375 -1.953125 C 18.296875 -2.378906 18.25 -2.914062 18.21875 -3.5625 C 18.195312 -4.21875 18.1875 -5.035156 18.1875 -6.015625 L 18.1875 -13.71875 C 18.1875 -16 17.789062 -17.601562 17 -18.53125 C 16.207031 -19.46875 14.925781 -19.9375 13.15625 -19.9375 L 10.5 -19.9375 L 10.5 0 L 2.796875 0 L 2.796875 -48.984375 L 14.40625 -48.984375 C 18.425781 -48.984375 21.332031 -48.046875 23.125 -46.171875 C 24.914062 -44.304688 25.8125 -41.488281 25.8125 -37.71875 L 25.8125 -33.859375 C 25.8125 -28.828125 24.132812 -25.515625 20.78125 -23.921875 C 22.738281 -23.128906 24.078125 -21.835938 24.796875 -20.046875 C 25.523438 -18.253906 25.890625 -16.070312 25.890625 -13.5 L 25.890625 -5.953125 C 25.890625 -4.734375 25.9375 -3.671875 26.03125 -2.765625 C 26.125 -1.859375 26.359375 -0.9375 26.734375 0 Z M 10.5 -41.984375 L 10.5 -26.9375 L 13.5 -26.9375 C 14.945312 -26.9375 16.078125 -27.304688 16.890625 -28.046875 C 17.710938 -28.796875 18.125 -30.148438 18.125 -32.109375 L 18.125 -36.9375 C 18.125 -38.71875 17.804688 -40.003906 17.171875 -40.796875 C 16.546875 -41.585938 15.554688 -41.984375 14.203125 -41.984375 Z M 10.5 -41.984375 "/></g></g></g><g fill="#006a75" fill-opacity="1"><g transform="translate(196.622302, 187.052479)"><g><path d="M 27.703125 0 L 19.9375 0 L 18.609375 -8.890625 L 9.171875 -8.890625 L 7.84375 0 L 0.765625 0 L 8.609375 -48.984375 L 19.875 -48.984375 Z M 10.140625 -15.53125 L 17.5625 -15.53125 L 13.859375 -40.296875 Z M 10.140625 -15.53125 "/></g></g></g><g fill="#006a75" fill-opacity="1"><g transform="translate(229.579843, 187.052479)"><g><path d="M 9.65625 -35.46875 L 9.65625 0 L 2.734375 0 L 2.734375 -48.984375 L 12.390625 -48.984375 L 20.296875 -19.65625 L 20.296875 -48.984375 L 27.140625 -48.984375 L 27.140625 0 L 19.234375 0 Z M 9.65625 -35.46875 "/></g></g></g><g fill="#006a75" fill-opacity="1"><g transform="translate(263.936835, 187.052479)"><g><path d="M 0.703125 -7 C 1.117188 -6.945312 1.5625 -6.921875 2.03125 -6.921875 C 2.5 -6.921875 2.941406 -6.921875 3.359375 -6.921875 C 4.566406 -6.921875 5.601562 -7.222656 6.46875 -7.828125 C 7.332031 -8.441406 7.765625 -9.703125 7.765625 -11.609375 L 7.765625 -48.984375 L 15.46875 -48.984375 L 15.46875 -12.171875 C 15.46875 -9.703125 15.160156 -7.671875 14.546875 -6.078125 C 13.941406 -4.492188 13.125 -3.25 12.09375 -2.34375 C 11.070312 -1.4375 9.894531 -0.796875 8.5625 -0.421875 C 7.238281 -0.046875 5.851562 0.140625 4.40625 0.140625 C 3.707031 0.140625 3.078125 0.140625 2.515625 0.140625 C 1.953125 0.140625 1.347656 0.09375 0.703125 0 Z M 0.703125 -7 "/></g></g></g><g fill="#006a75" fill-opacity="1"><g transform="translate(286.328516, 187.052479)"><g><path d="M 27.703125 0 L 19.9375 0 L 18.609375 -8.890625 L 9.171875 -8.890625 L 7.84375 0 L 0.765625 0 L 8.609375 -48.984375 L 19.875 -48.984375 Z M 10.140625 -15.53125 L 17.5625 -15.53125 L 13.859375 -40.296875 Z M 10.140625 -15.53125 "/></g></g></g></svg>